{
    "asset" : {
        "generator" : "Khronos glTF Blender I/O v3.2.43",
        "version" : "2.0"
    },
    "scene" : 0,
    "scenes" : [
        {
            "name" : "Scene",
            "nodes" : [
                1
            ]
        }
    ],
    "nodes" : [
        {
            "mesh" : 0,
            "name" : "earth"
        },
        {
            "children" : [
                0
            ],
            "name" : "Inclination axis",
            "rotation" : [
                0.19111983478069305,
                -0.9200519323348999,
                -0.0695619210600853,
                0.33487147092819214
            ]
        }
    ],
    "materials" : [
        {
            "doubleSided" : true,
            "emissiveFactor" : [
                1,
                1,
                1
            ],
            "emissiveTexture" : {
                "index" : 0
            },
            "name" : "surface",
            "normalTexture" : {
                "index" : 1
            },
            "pbrMetallicRoughness" : {
                "baseColorTexture" : {
                    "index" : 2
                },
                "metallicRoughnessTexture" : {
                    "index" : 3
                }
            }
        }
    ],
    "meshes" : [
        {
            "name" : "earth",
            "primitives" : [
                {
                    "attributes" : {
                        "POSITION" : 0,
                        "NORMAL" : 1,
                        "TEXCOORD_0" : 2
                    },
                    "indices" : 3,
                    "material" : 0
                }
            ]
        }
    ],
    "textures" : [
        {
            "sampler" : 0,
            "source" : 0
        },
        {
            "sampler" : 0,
            "source" : 1
        },
        {
            "sampler" : 0,
            "source" : 2
        },
        {
            "sampler" : 0,
            "source" : 3
        }
    ],
    "images" : [
        {
            "mimeType" : "image/webp",
            "name" : "earth_night",
            "uri" : "textures/earth_night.webp"
        },
        {
            "mimeType" : "image/webp",
            "name" : "earth_normal",
            "uri" : "textures/earth_normal.webp"
        },
        {
            "mimeType" : "image/webp",
            "name" : "earth_color_jpg",
            "uri" : "textures/earth_color_jpg.webp"
        },
        {
            "mimeType" : "image/webp",
            "name" : "earth_roughnessmetallic",
            "uri" : "textures/earth_roughnessmetallic.webp"
        }
    ],
    "accessors" : [
        {
            "bufferView" : 0,
            "componentType" : 5126,
            "count" : 10339,
            "max" : [
                1,
                1,
                0.9999999403953552
            ],
            "min" : [
                -0.9999999403953552,
                -1,
                -0.9999999403953552
            ],
            "type" : "VEC3"
        },
        {
            "bufferView" : 1,
            "componentType" : 5126,
            "count" : 10339,
            "type" : "VEC3"
        },
        {
            "bufferView" : 2,
            "componentType" : 5126,
            "count" : 10339,
            "type" : "VEC2"
        },
        {
            "bufferView" : 3,
            "componentType" : 5123,
            "count" : 61440,
            "type" : "SCALAR"
        }
    ],
    "bufferViews" : [
        {
            "buffer" : 0,
            "byteLength" : 124068,
            "byteOffset" : 0
        },
        {
            "buffer" : 0,
            "byteLength" : 124068,
            "byteOffset" : 124068
        },
        {
            "buffer" : 0,
            "byteLength" : 82712,
            "byteOffset" : 248136
        },
        {
            "buffer" : 0,
            "byteLength" : 122880,
            "byteOffset" : 330848
        }
    ],
    "samplers" : [
        {
            "magFilter" : 9729,
            "minFilter" : 9987
        }
    ],
    "buffers" : [
        {
            "byteLength" : 453728,
            "uri" : "ziemia.bin"
        }
    ]
}
