<svg  viewBox="0 0 136 31" fill="none" xmlns="http://www.w3.org/2000/svg">
  <path fill="currentColor" d="M0 0h2.86316v31H0zM11.4526 0h.715789v31H11.4526zM14.3159 0h2.14737v31H14.3159zM21.4736 0h1.43158v31H21.4736zM28.6313 0h4.29474v31H28.6313zM35.7896 0h2.86316v31H35.7896zM46.5264 0h2.14737v31H46.5264zM52.9683 0h.715789v31H52.9683zM57.2632 0h.715789v31H57.2632zM90 0h3v31h-3zM74.4419 0h.715789v31H74.4419zM78.7368 0h2.86316v31H78.7368zM85.8945 0h1.43158v31H85.8945zM93.0527 0h2.14737v31H93.0527zM100.21 0h.715789v31H100.21zM107.369 0h2.86316v31H107.369zM114.526 0h1.43158v31H114.526zM121.684 0h4.29474v31H121.684zM135.284 0h.715789v31H135.284z"/>
</svg>
