<svg viewBox="0 0 242 45" fill="none" xmlns="http://www.w3.org/2000/svg">
  <path d="M236.562 -0.000488281L241.775 -0.000488281V5.21294L236.562 5.21294V-0.000488281Z" fill="currentColor"/>
  <path d="M226.135 -0.000488281L231.348 -0.000488281V5.21294L226.135 5.21294V-0.000488281Z" fill="currentColor"/>
  <path d="M236.562 10.4258H241.775V15.6392H236.562V10.4258Z" fill="currentColor"/>
  <path d="M215.708 10.4258H220.922V15.6392H215.708V10.4258Z" fill="currentColor"/>
  <path d="M192.248 -0.000488281L197.461 -0.000488281V5.21294L192.248 5.21294V-0.000488281Z" fill="currentColor"/>
  <path d="M181.821 -0.000488281L187.034 -0.000488281V5.21294L181.821 5.21294V-0.000488281Z" fill="currentColor"/>
  <path d="M192.248 10.4258H197.461V15.6392H192.248V10.4258Z" fill="currentColor"/>
  <path d="M181.821 10.4258H187.034V15.6392H181.821V10.4258Z" fill="currentColor"/>
  <path d="M129 -0.000488281L134.213 -0.000488281V5.21294L129 5.21294V-0.000488281Z" fill="currentColor"/>
  <path d="M118.574 -0.000488281L123.787 -0.000488281V5.21294L118.574 5.21294V-0.000488281Z" fill="currentColor"/>
  <path d="M108.147 -0.000488281L113.36 -0.000488281V5.21294L108.147 5.21294V-0.000488281Z" fill="currentColor"/>
  <path d="M129 10.4258H134.213V15.6392H129V10.4258Z" fill="currentColor"/>
  <path d="M108.147 10.4258H113.36V15.6392H108.147V10.4258Z" fill="currentColor"/>
  <path d="M84.6866 -0.000488281L89.9 -0.000488281V5.21294L84.6866 5.21294V-0.000488281Z" fill="currentColor"/>
  <path d="M74.2592 -0.000488281L79.4727 -0.000488281V5.21294L74.2592 5.21294V-0.000488281Z" fill="currentColor"/>
  <path d="M74.2592 10.4258H79.4727V15.6392H74.2592V10.4258Z" fill="currentColor"/>
  <path d="M54.7407 -0.000488281L59.9541 -0.000488281V5.21294L54.7407 5.21294V-0.000488281Z" fill="currentColor"/>
  <path d="M33.8869 -0.000488281L39.1003 -0.000488281V5.21294L33.8869 5.21294V-0.000488281Z" fill="currentColor"/>
  <path d="M54.7407 10.4258H59.9541V15.6392H54.7407V10.4258Z" fill="currentColor"/>
  <path d="M33.8869 10.4258H39.1003V15.6392H33.8869V10.4258Z" fill="currentColor"/>
  <path d="M10.4267 -0.000488281L15.6401 -0.000488281V5.21294L10.4267 5.21294V-0.000488281Z" fill="currentColor"/>
  <path d="M-3.05176e-05 -0.000488281L5.21338 -0.000488281L5.21338 5.21294L-3.05176e-05 5.21294L-3.05176e-05 -0.000488281Z" fill="currentColor"/>
  <path d="M10.4267 10.4258H15.6401V15.6392H10.4267V10.4258Z" fill="currentColor"/>
  <path d="M236.562 29.3574H241.775V34.5708H236.562V29.3574Z" fill="currentColor"/>
  <path d="M226.135 29.3574H231.348V34.5708H226.135V29.3574Z" fill="currentColor"/>
  <path d="M215.708 29.3574H220.922V34.5708H215.708V29.3574Z" fill="currentColor"/>
  <path d="M236.562 39.7852H241.775V44.9986H236.562V39.7852Z" fill="currentColor"/>
  <path d="M215.708 39.7852H220.922V44.9986H215.708V39.7852Z" fill="currentColor"/>
  <path d="M181.821 29.3574H187.034V34.5708H181.821V29.3574Z" fill="currentColor"/>
  <path d="M192.248 39.7852H197.461V44.9986H192.248V39.7852Z" fill="currentColor"/>
  <path d="M181.821 39.7852H187.034V44.9986H181.821V39.7852Z" fill="currentColor"/>
  <path d="M129 29.3574H134.213V34.5708H129V29.3574Z" fill="currentColor"/>
  <path d="M108.147 29.3574H113.36V34.5708H108.147V29.3574Z" fill="currentColor"/>
  <path d="M129 39.7852H134.213V44.9986H129V39.7852Z" fill="currentColor"/>
  <path d="M108.147 39.7852H113.36V44.9986H108.147V39.7852Z" fill="currentColor"/>
  <path d="M84.6866 29.3574H89.9V34.5708H84.6866V29.3574Z" fill="currentColor"/>
  <path d="M74.2592 29.3574H79.4727V34.5708H74.2592V29.3574Z" fill="currentColor"/>
  <path d="M84.6866 39.7852H89.9V44.9986H84.6866V39.7852Z" fill="currentColor"/>
  <path d="M74.2592 39.7852H79.4727V44.9986H74.2592V39.7852Z" fill="currentColor"/>
  <path d="M54.7407 29.3574H59.9541V34.5708H54.7407V29.3574Z" fill="currentColor"/>
  <path d="M44.3137 29.3574H49.5271V34.5708H44.3137V29.3574Z" fill="currentColor"/>
  <path d="M54.7407 39.7852H59.9541V44.9986H54.7407V39.7852Z" fill="currentColor"/>
  <path d="M33.8869 39.7852H39.1003V44.9986H33.8869V39.7852Z" fill="currentColor"/>
  <path d="M10.4267 29.3574H15.6401V34.5708H10.4267V29.3574Z" fill="currentColor"/>
  <path d="M-3.05176e-05 29.3574H5.21338L5.21338 34.5708H-3.05176e-05L-3.05176e-05 29.3574Z" fill="currentColor"/>
  <path d="M10.4267 39.7852H15.6401V44.9986H10.4267V39.7852Z" fill="currentColor"/>
  <path d="M-3.05176e-05 39.7852H5.21338L5.21338 44.9986H-3.05176e-05L-3.05176e-05 39.7852Z" fill="currentColor"/>
</svg>
