<svg viewBox="0 0 1583 409" fill="none" xmlns="http://www.w3.org/2000/svg">
  <path d="M.620117 402V7.45166H141.692V57.4932H53.1763V177.945h84.9947v50.041H53.1763V402H.620117Z" fill="currentColor"/>
  <path d="m291.565 402-45.264-162.195h-20.117V402h-52.556V7.45166h87.51c21.458 0 38.893 6.78954 52.304 20.36864 13.579 13.4115 20.369 34.1154 20.369 62.1118v63.3689c0 20.453-2.85 36.63-8.55 48.533-5.7 11.735-15.591 20.62-29.673 26.655L344.121 402h-52.556Zm-10.31-305.2783c0-14.2497-2.263-24.3083-6.79-30.1758-4.526-6.0352-11.902-9.0527-22.129-9.0527h-26.152V189.764h26.152c10.227 0 17.603-2.934 22.129-8.802 4.527-5.867 6.79-15.926 6.79-30.175V96.7217Z" fill="currentColor"/>
  <path d="M364.741 83.1426c0-27.6612 7.712-48.2813 23.135-61.8604C403.299 7.70312 423.752.913574 449.233.913574c52.137 0 78.206 27.409626 78.206 82.229026V326.309c0 14.417-2.179 27.074-6.538 37.971-4.191 10.729-10.143 19.279-17.854 25.65-7.544 6.37-16.094 11.064-25.65 14.082-9.388 3.185-19.698 4.778-30.93 4.778s-21.71-1.593-31.433-4.778c-9.555-3.186-18.189-7.963-25.901-14.334-7.544-6.538-13.495-15.171-17.854-25.901-4.358-10.896-6.538-23.386-6.538-37.468V83.1426Zm110.142 6.7895c0-13.4114-2.85-23.3024-8.55-29.6728-5.532-6.3705-12.322-9.5557-20.369-9.5557s-14.836 3.1852-20.368 9.5557c-5.533 6.3704-8.299 16.2614-8.299 29.6728V319.52c0 13.411 2.766 23.302 8.299 29.672 5.532 6.371 12.321 9.556 20.368 9.556 8.047 0 14.837-3.185 20.369-9.556 5.7-6.37 8.55-16.261 8.55-29.672V89.9321Z" fill="currentColor"/>
  <path d="m686.868 402-69.405-263.284L618.469 402h-52.556V7.45166h65.884l72.17 267.81034-1.006-267.81034h52.557V402h-68.65Z" fill="currentColor"/>
  <path d="M829.197 402V57.4932h-49.036V7.45166h150.376V57.4932h-48.784V402h-52.556Z" fill="currentColor"/>
  <path d="m1073.12 402-45.27-162.195h-20.11V402h-52.559V7.45166h87.509c21.46 0 38.89 6.78954 52.31 20.36864 13.57 13.4115 20.36 34.1154 20.36 62.1118v63.3689c0 20.453-2.85 36.63-8.55 48.533-5.7 11.735-15.59 20.62-29.67 26.655L1125.67 402h-52.55Zm-10.31-305.2783c0-14.2497-2.27-24.3083-6.79-30.1758-4.53-6.0352-11.9-9.0527-22.13-9.0527h-26.15V189.764h26.15c10.23 0 17.6-2.934 22.13-8.802 4.52-5.867 6.79-15.926 6.79-30.175V96.7217Z" fill="currentColor"/>
  <path d="M1148.81 402V7.45166h52.55V402h-52.55Z" fill="currentColor"/>
  <path d="M1242.35 402V7.45166h88.52c21.12 0 38.31 6.95724 51.55 20.87154 13.41 13.9144 20.12 34.4507 20.12 61.6089v50.0419c0 30.175-12.58 50.041-37.72 59.597 15.42 5.7 26.4 13.83 32.94 24.392 6.54 10.394 9.81 23.386 9.81 38.977v56.58c0 27.325-6.63 47.945-19.87 61.86-13.24 13.747-30.43 20.62-51.55 20.62h-93.8Zm107.63-305.2783c0-14.2497-2.26-24.3083-6.79-30.1758-4.53-6.0352-11.9-9.0527-22.13-9.0527h-26.15V175.43h26.15c10.23 0 17.6-2.934 22.13-8.801 4.53-6.035 6.79-16.178 6.79-30.427V96.7217Zm5.03 167.7273c0-25.985-11.32-38.977-33.95-38.977h-26.15v126.486h31.43c10.23 0 17.52-2.933 21.88-8.801 4.53-5.867 6.79-15.926 6.79-30.176v-48.532Z" fill="currentColor"/>
  <path d="M1441.01 402V7.45166h141.07V57.4932h-88.51V177.945h84.99v50.041h-84.99v123.972h88.51V402h-141.07Z" fill="currentColor"/>
</svg>
