<svg width="24" height="24" viewBox="0 0 24 24" fill="none" xmlns="http://www.w3.org/2000/svg">
<path d="M14.1298 1.59998C12.4521 1.59998 11.2001 2.97048 11.2001 4.52966V7.2281C8.99984 7.34485 6.98766 7.93147 5.38132 8.85154C4.7623 8.2571 3.93342 7.99313 3.12976 7.99373C2.25841 7.99437 1.36763 8.29631 0.753195 8.98748L0.739133 9.0031L0.72507 9.01873C0.135654 9.75536 -0.0977344 10.7422 0.0594455 11.7219C0.202991 12.6165 0.721168 13.5147 1.62195 14.1031C1.61605 14.2024 1.60007 14.2997 1.60007 14.4C1.60007 18.3696 6.26567 21.6 12.0001 21.6C17.7345 21.6 22.4001 18.3696 22.4001 14.4C22.4001 14.2997 22.3841 14.2024 22.3782 14.1031C23.279 13.5147 23.7972 12.6165 23.9407 11.7219C24.0979 10.7422 23.8645 9.75536 23.2751 9.01873L23.261 9.0031L23.2469 8.98748C22.6324 8.29621 21.7418 7.99437 20.8704 7.99373C20.0667 7.99313 19.2377 8.25688 18.6188 8.85154C17.0125 7.93147 15.0003 7.34485 12.8001 7.2281V4.52966C12.8001 3.74644 13.2522 3.19998 14.1298 3.19998C14.5463 3.19998 15.0538 3.4087 15.8485 3.68748C16.5204 3.92314 17.3947 4.16133 18.5126 4.23279C18.78 5.02325 19.5223 5.59998 20.4001 5.59998C21.5001 5.59998 22.4001 4.69998 22.4001 3.59998C22.4001 2.49998 21.5001 1.59998 20.4001 1.59998C19.649 1.59998 18.9981 2.02431 18.6563 2.6406C17.7007 2.58768 16.9987 2.39574 16.3782 2.1781C15.6551 1.92448 14.9908 1.59998 14.1298 1.59998ZM3.12976 9.59373C3.44587 9.59349 3.74621 9.67645 3.99382 9.81091C3.11063 10.5481 2.44053 11.4094 2.03601 12.35C1.82122 12.0848 1.69179 11.7872 1.6407 11.4687C1.55448 10.9314 1.71529 10.3728 1.97038 10.0422C2.21144 9.78269 2.65164 9.59408 3.12976 9.59373ZM20.8688 9.59373C21.3471 9.59408 21.7888 9.78277 22.0298 10.0422C22.2849 10.3728 22.4457 10.9314 22.3594 11.4687C22.3084 11.7872 22.1789 12.0848 21.9641 12.35C21.5596 11.4094 20.8895 10.5481 20.0063 9.81091C20.2534 9.67661 20.5528 9.59349 20.8688 9.59373ZM8.00007 11.2C8.88407 11.2 9.60007 11.916 9.60007 12.8C9.60007 13.684 8.88407 14.4 8.00007 14.4C7.11607 14.4 6.40007 13.684 6.40007 12.8C6.40007 11.916 7.11607 11.2 8.00007 11.2ZM16.0001 11.2C16.8841 11.2 17.6001 11.916 17.6001 12.8C17.6001 13.684 16.8841 14.4 16.0001 14.4C15.1161 14.4 14.4001 13.684 14.4001 12.8C14.4001 11.916 15.1161 11.2 16.0001 11.2ZM16.1907 15.6265C15.6795 17.1201 14.0449 18.4 12.0001 18.4C9.95527 18.4 8.32065 17.1208 7.80945 15.7344C8.72945 16.4808 10.2625 17.014 12.0001 17.014C13.7377 17.014 15.2707 16.4801 16.1907 15.6265Z" fill="#F3F3F3"/>
</svg>
