<svg width="82" height="97" viewBox="0 0 82 97" fill="none" xmlns="http://www.w3.org/2000/svg">
  <path stroke="currentColor" stroke-width="2" d="M42 32v8"/>
  <mask id="a" fill="currentColor">
    <path fill-rule="evenodd" clip-rule="evenodd" d="m38.0972 24.8754-5.46 4.9803V51.895l5.4 4.9804h7.14l5.46-4.9804V29.8557l-5.4-4.9803h-7.14Z"/>
  </mask>
  <path d="m32.6372 29.8557-.6739-.7388-.3261.2974v.4414h1Zm5.46-4.9803v-1h-.3876l-.2863.2612.6739.7388Zm-5.46 19.5569h-1 1Zm0 7.4627h-1v.4381l.322.297.678-.7351Zm5.4 4.9804-.678.7351.2873.2649h.3907v-1Zm7.14 0v1h.3876l.2863-.2612-.6739-.7388Zm5.46-4.9804.6739.7389.3261-.2975v-.4414h-1Zm0-7.4627h-1 1Zm0-7.1139h1-1Zm0-7.4627h1v-.4381l-.3221-.297-.6779.7351Zm-5.4-4.9803.678-.7351-.2873-.2649h-.3907v1Zm-11.9261 5.7191 5.46-4.9803-1.3478-1.4776-5.46 4.9803 1.3478 1.4776Zm.3261 13.8378V29.8557h-2v14.5766h2Zm0 7.4627v-7.4627h-2v7.4627h2Zm5.078 4.2453-5.4-4.9804-1.356 1.4702 5.4 4.9804 1.356-1.4702Zm6.462-.2649h-7.14v2h7.14v-2Zm4.7861-4.7192-5.46 4.9804 1.3478 1.4776 5.46-4.9803-1.3478-1.4777Zm-.3261-6.7239v7.4627h2v-7.4627h-2Zm0-7.1139v7.1139h2v-7.1139h-2Zm0-7.4627v7.4627h2v-7.4627h-2Zm-5.078-4.2452 5.4 4.9803 1.3559-1.4702-5.3999-4.9803-1.356 1.4702Zm-6.462.2649h7.14v-2h-7.14v2Z" fill="currentColor" mask="url(#a)"/>
  <path opacity=".4" d="m39.0003 69.8275 2.8276 2.8276 2.8275-2.8276h-5.6551ZM39.0003 81.8275l2.8276 2.8276 2.8275-2.8276h-5.6551ZM39.0003 93.8275l2.8276 2.8276 2.8275-2.8276h-5.6551Z" fill="currentColor"/>
  <path opacity=".4" d="M29.9786 74.7458c-7.9839-2.6076-14.7846-7.9613-19.1937-15.1099-4.40903-7.1485-6.14075-15.6287-4.88739-23.9335 1.25335-8.3049 5.41059-15.8963 11.73289-21.4253 6.3223-5.52896 14.4002-8.63726 22.798-8.7725 8.3978-.13523 16.5715 2.71135 23.0686 8.0339 6.4971 5.3225 10.8966 12.7762 12.4167 21.0363 1.5201 8.2602.0624 16.7918-4.1142 24.0786-4.1766 7.2868-10.8014 12.8567-18.6972 15.72" stroke="currentColor"/>
  <path opacity=".1" d="M28.4263 79.4987c-9.1084-2.9748-16.867-9.0826-21.89703-17.238-5.03003-8.1553-7.005663-17.83-5.575776-27.3045C2.38338 25.4817 7.12616 16.821 14.3389 10.5133 21.5517 4.20563 30.7673.659535 40.3479.505251 49.9284.350966 59.2534 3.59848 66.6656 9.67065 74.0777 15.7428 79.0969 24.2463 80.8311 33.6699c1.7343 9.4235.0712 19.1568-4.6937 27.4699-4.7648 8.3131-12.3227 14.6675-21.3305 17.9341" stroke="currentColor"/>
</svg>
