<svg width="18" height="23" viewBox="0 0 18 23" fill="none" xmlns="http://www.w3.org/2000/svg">
<path d="M12.3917 5.76798L8.99969 2.37598L5.60769 5.76798L4.71169 4.87198L8.99969 0.583984L13.2877 4.87198L12.3917 5.76798Z" fill="#F3F3F3"/>
<path d="M8.35969 1.47998H9.63969V14.92H8.35969V1.47998Z" fill="#F3F3F3"/>
<path d="M15.3997 22.6H2.59969C1.51169 22.6 0.679688 21.768 0.679688 20.68V9.15999C0.679688 8.07199 1.51169 7.23998 2.59969 7.23998H7.07969V8.51999H2.59969C2.21569 8.51999 1.95969 8.77599 1.95969 9.15999V20.68C1.95969 21.064 2.21569 21.32 2.59969 21.32H15.3997C15.7837 21.32 16.0397 21.064 16.0397 20.68V9.15999C16.0397 8.77599 15.7837 8.51999 15.3997 8.51999H10.9197V7.23998H15.3997C16.4877 7.23998 17.3197 8.07199 17.3197 9.15999V20.68C17.3197 21.768 16.4877 22.6 15.3997 22.6Z" fill="#F3F3F3"/>
</svg>
