<svg width="24" height="24" viewBox="0 0 24 24" fill="none" xmlns="http://www.w3.org/2000/svg">
<path d="M22.4004 5.54963C21.6348 5.88963 20.8124 6.11843 19.9492 6.22163C20.8308 5.69363 21.5068 4.85763 21.8252 3.86083C21.0012 4.34963 20.0876 4.70483 19.1148 4.89683C18.3364 4.06723 17.2276 3.54883 16.0004 3.54883C13.6436 3.54883 11.7332 5.46003 11.7332 7.81603C11.7332 8.15043 11.7716 8.47683 11.8436 8.78803C8.29721 8.61043 5.15321 6.91123 3.04761 4.32883C2.68121 4.95923 2.47081 5.69203 2.47081 6.47523C2.47081 7.95523 3.22361 9.26163 4.36841 10.0264C3.66921 10.004 3.01081 9.81203 2.43561 9.49283C2.43561 9.51123 2.43561 9.52803 2.43561 9.54643C2.43561 11.6144 3.90601 13.3392 5.85881 13.7304C5.50121 13.828 5.12361 13.88 4.73401 13.88C4.45961 13.88 4.19161 13.8528 3.93161 13.804C4.47481 15.4992 6.05081 16.7336 7.91801 16.768C6.45801 17.9128 4.61801 18.5952 2.61801 18.5952C2.27401 18.5952 1.93401 18.5752 1.59961 18.5352C3.48841 19.7456 5.73081 20.452 8.14121 20.452C15.9908 20.452 20.282 13.9496 20.282 8.31043C20.282 8.12563 20.278 7.94163 20.27 7.75843C21.1044 7.15603 21.8284 6.40483 22.4004 5.54963Z" fill="#F3F3F3"/>
</svg>
