<svg xmlns="http://www.w3.org/2000/svg" viewBox="0 0 42.664 42.664">
  <path d="M222.918,693.749l.25.433.75-.433-.75-.433Zm-15.625-9.021.25-.433-.75-.433v.866Zm0,18.042h-.5v.866l.75-.433Zm26.04-9.022h0Zm-2.791,10.416.433.25Zm-7.374-10.848-15.625-9.021-.5.866,15.625,9.021Zm-16.375-8.588V702.77h1V684.728Zm.75,18.475,15.625-9.021-.5-.866-15.625,9.021Zm26.29-9.455a21.328,21.328,0,0,0-5.293-14.065l-.752.659a20.329,20.329,0,0,1,5.045,13.406Zm-5.293-14.065a21.335,21.335,0,0,0-13.254-7.085l-.13.992a20.334,20.334,0,0,1,12.632,6.752ZM215.286,672.6a21.333,21.333,0,0,0-14.636,3.413l.556.831a20.333,20.333,0,0,1,13.95-3.252Zm-14.636,3.413a21.333,21.333,0,0,0-8.754,12.215l.966.259a20.332,20.332,0,0,1,8.344-11.643ZM191.9,688.226a21.334,21.334,0,0,0,1.473,14.956l.9-.442a20.334,20.334,0,0,1-1.4-14.255Zm1.473,14.956a21.332,21.332,0,0,0,10.969,10.274l.382-.924a20.335,20.335,0,0,1-10.454-9.792Zm10.969,10.274a21.337,21.337,0,0,0,15.02.492l-.321-.947a20.335,20.335,0,0,1-14.317-.469Zm15.02.492a21.33,21.33,0,0,0,11.617-9.534l-.866-.5A20.331,20.331,0,0,1,219.037,713Zm11.617-9.534a21.324,21.324,0,0,0,2.858-10.666h-1a20.327,20.327,0,0,1-2.724,10.166Z" transform="translate(-191.169 -672.416)" fill="currentColor"/>
</svg>
