<svg xmlns="http://www.w3.org/2000/svg" viewBox="0 0 42.666 42.66">
  <path d="M222.917,1813.21l-.25.43h0Zm10.416,18.04h0Zm-41.666,0h0Zm10.416-18.04.25.43h0Zm20.834,36.08-.25-.43h0Zm-10.417,2.79v0Zm-10.417-2.79.25-.43h0Zm10.417-38.87v0Zm10.417,20.83h0Zm-5.209-9.02.25-.43Zm4.959-8.59a20.377,20.377,0,0,1,7.442,7.44l.866-.5a21.414,21.414,0,0,0-7.808-7.81Zm7.442,7.44a20.337,20.337,0,0,1,2.724,10.17h1a21.382,21.382,0,0,0-2.858-10.67Zm-37.942,10.17a20.337,20.337,0,0,1,2.724-10.17l-.866-.5a21.372,21.372,0,0,0-2.858,10.67Zm2.724-10.17a20.37,20.37,0,0,1,7.442-7.44l-.5-.87a21.414,21.414,0,0,0-7.808,7.81Zm27.776,27.78a20.381,20.381,0,0,1-10.167,2.72v1a21.353,21.353,0,0,0,10.667-2.85Zm-10.167,2.72a20.378,20.378,0,0,1-10.167-2.72l-.5.87a21.35,21.35,0,0,0,10.667,2.85Zm-10.167-37.94a20.378,20.378,0,0,1,10.167-2.72v-1a21.35,21.35,0,0,0-10.667,2.85Zm10.167-2.72a20.381,20.381,0,0,1,10.167,2.72l.5-.87a21.353,21.353,0,0,0-10.667-2.85Zm-10.167,37.94a20.37,20.37,0,0,1-7.442-7.44l-.866.5a21.414,21.414,0,0,0,7.808,7.81Zm-7.442-7.44a20.337,20.337,0,0,1-2.724-10.17h-1a21.372,21.372,0,0,0,2.858,10.67Zm37.942-10.17a20.337,20.337,0,0,1-2.724,10.17l.866.5a21.382,21.382,0,0,0,2.858-10.67Zm-2.724,10.17a20.377,20.377,0,0,1-7.442,7.44l.5.87a21.414,21.414,0,0,0,7.808-7.81Zm-7.692-10.17a9.956,9.956,0,0,1-2.05,6.04l.794.61a10.95,10.95,0,0,0,2.256-6.65Zm-2.05,6.04a9.951,9.951,0,0,1-5.3,3.54l.259.96a10.93,10.93,0,0,0,5.836-3.89Zm-5.3,3.54a9.918,9.918,0,0,1-6.361-.42l-.383.93a10.859,10.859,0,0,0,7,.45Zm-6.361-.42a9.883,9.883,0,0,1-4.793-4.2l-.866.5a10.926,10.926,0,0,0,5.276,4.63Zm-4.793-4.2a9.91,9.91,0,0,1-1.244-6.25l-.991-.14a10.92,10.92,0,0,0,1.369,6.89Zm-1.244-6.25a9.894,9.894,0,0,1,2.82-5.72l-.707-.71a10.906,10.906,0,0,0-3.1,6.29Zm2.82-5.72a9.846,9.846,0,0,1,5.718-2.82l-.131-.99a10.881,10.881,0,0,0-6.294,3.1Zm5.718-2.82a9.888,9.888,0,0,1,6.252,1.24l.5-.86a10.819,10.819,0,0,0-6.883-1.37Zm6.252,1.24a9.89,9.89,0,0,1,3.63,3.63l.866-.5a10.832,10.832,0,0,0-4-3.99Zm3.63,3.63a9.936,9.936,0,0,1,1.329,4.96h1a10.915,10.915,0,0,0-1.463-5.46Z" transform="translate(-191.167 -1809.92)" fill="currentColor"/>
</svg>
