<svg xmlns="http://www.w3.org/2000/svg" viewBox="0 0 42.666 42.666">
  <path d="M385.417,269.458l-.25.433ZM395.833,287.5h0Zm-41.666,0h0Zm10.416-18.042.25.433Zm20.834,36.084-.25-.433Zm-20.834,0,.25-.433Zm20.584-35.651a20.33,20.33,0,0,1,7.442,7.442l.866-.5a21.326,21.326,0,0,0-7.808-7.808Zm7.442,7.442a20.331,20.331,0,0,1,2.724,10.167h1a21.338,21.338,0,0,0-2.858-10.667ZM354.667,287.5a20.331,20.331,0,0,1,2.724-10.167l-.866-.5a21.327,21.327,0,0,0-2.858,10.667Zm2.724-10.167a20.322,20.322,0,0,1,7.442-7.442l-.5-.866a21.326,21.326,0,0,0-7.808,7.808Zm27.776,27.776A20.334,20.334,0,0,1,375,307.833v1a21.33,21.33,0,0,0,10.667-2.858ZM375,307.833a20.331,20.331,0,0,1-10.167-2.724l-.5.866A21.327,21.327,0,0,0,375,308.833Zm-10.167-37.942A20.331,20.331,0,0,1,375,267.167v-1a21.327,21.327,0,0,0-10.667,2.858ZM375,267.167a20.334,20.334,0,0,1,10.167,2.724l.5-.866A21.33,21.33,0,0,0,375,266.167Zm-10.167,37.942a20.322,20.322,0,0,1-7.442-7.442l-.866.5a21.326,21.326,0,0,0,7.808,7.808Zm-7.442-7.442a20.331,20.331,0,0,1-2.724-10.167h-1a21.327,21.327,0,0,0,2.858,10.667ZM395.333,287.5a20.331,20.331,0,0,1-2.724,10.167l.866.5a21.338,21.338,0,0,0,2.858-10.667Zm-2.724,10.167a20.33,20.33,0,0,1-7.442,7.442l.5.866a21.326,21.326,0,0,0,7.808-7.808Z" transform="translate(-353.667 -266.167)" fill="currentColor"/>
</svg>
