<svg xmlns="http://www.w3.org/2000/svg" viewBox="0 0 41.212 42.667">
  <path d="M204.778,294.512a9.92,9.92,0,0,1-2.566-4.445l-.966.258a10.917,10.917,0,0,0,2.825,4.894Zm9.579,2.567a9.931,9.931,0,0,1-5.134,0l-.258.966a10.913,10.913,0,0,0,5.65,0Zm7.012-7.012a9.922,9.922,0,0,1-2.567,4.445l.707.707a10.919,10.919,0,0,0,2.826-4.894Zm-2.567-9.579a9.922,9.922,0,0,1,2.567,4.445l.966-.258a10.919,10.919,0,0,0-2.826-4.894Zm-9.579-2.567a9.931,9.931,0,0,1,5.134,0l.258-.966a10.913,10.913,0,0,0-5.65,0Zm-7.012,7.012a9.922,9.922,0,0,1,2.567-4.445l-.707-.707a10.919,10.919,0,0,0-2.826,4.894Zm14.842,22.208a20.353,20.353,0,0,1-10.526,0l-.258.965a21.317,21.317,0,0,0,11.043,0Zm14.378-14.378a20.338,20.338,0,0,1-5.263,9.115l.707.707a21.329,21.329,0,0,0,5.521-9.563Zm-5.263-19.641a20.338,20.338,0,0,1,5.263,9.115l.965-.258a21.327,21.327,0,0,0-5.521-9.564Zm-19.641-5.263a20.353,20.353,0,0,1,10.526,0l.259-.965a21.317,21.317,0,0,0-11.043,0Zm-14.378,14.378a20.338,20.338,0,0,1,5.263-9.115l-.707-.707a21.327,21.327,0,0,0-5.521,9.564Zm5.263,19.641a20.338,20.338,0,0,1-5.263-9.115l-.965.259a21.329,21.329,0,0,0,5.521,9.563Z" transform="translate(-191.184 -266.167)" fill="currentColor"/>
</svg>
