<svg xmlns="http://www.w3.org/2000/svg" viewBox="0 0 41.212 42.675">
  <path d="M217.053,1282.14a20.416,20.416,0,0,1-10.526,0l-.258.97a21.318,21.318,0,0,0,11.043,0Zm14.378-14.38a20.371,20.371,0,0,1-5.263,9.12l.707.7a21.261,21.261,0,0,0,5.521-9.56Zm-5.263-19.64a20.371,20.371,0,0,1,5.263,9.12l.965-.26a21.261,21.261,0,0,0-5.521-9.56Zm-19.641-5.26a20.416,20.416,0,0,1,10.526,0l.259-.97a21.318,21.318,0,0,0-11.043,0Zm-14.378,14.38a20.371,20.371,0,0,1,5.263-9.12l-.707-.7a21.261,21.261,0,0,0-5.521,9.56Zm5.263,19.64a20.371,20.371,0,0,1-5.263-9.12l-.965.26a21.261,21.261,0,0,0,5.521,9.56Zm24.295-14.38a9.918,9.918,0,0,1-9.917,9.92v1a10.919,10.919,0,0,0,10.917-10.92Zm-9.917,9.92a9.918,9.918,0,0,1-9.917-9.92h-1a10.919,10.919,0,0,0,10.917,10.92Zm-9.917-9.92a9.918,9.918,0,0,1,9.917-9.92v-1a10.919,10.919,0,0,0-10.917,10.92Zm9.917-9.92a9.918,9.918,0,0,1,9.917,9.92h1a10.919,10.919,0,0,0-10.917-10.92Z" transform="translate(-191.184 -1241.163)" fill="currentColor"/>
</svg>
