<svg xmlns="http://www.w3.org/2000/svg" viewBox="0 0 42.666 42.668">
  <path d="M212.5,877.083a20.833,20.833,0,0,0,20.833-20.833M212.5,877.083a20.83,20.83,0,0,1-20.833-20.833M212.5,877.083a20.936,20.936,0,0,0,4.065-.4m16.768-20.437A20.832,20.832,0,0,0,212.5,835.417m20.833,20.833a20.931,20.931,0,0,1-.4,4.065m.4-4.065a20.931,20.931,0,0,0-.4-4.065m-41.27,4.065A20.832,20.832,0,0,1,212.5,835.417M191.667,856.25a20.931,20.931,0,0,0,.4,4.065m-.4-4.065a20.931,20.931,0,0,1,.4-4.065M212.5,835.417a20.928,20.928,0,0,0-4.065.4m-6.352,20.437h20.834M212.5,866.667V845.833m11.575,27.742a20.959,20.959,0,0,0,5.749-5.749m-21.389,8.861a20.844,20.844,0,0,0,4.065.4m-17.325-9.259a20.949,20.949,0,0,0,5.749,5.75m0-34.65a20.932,20.932,0,0,0-5.749,5.749m21.389-8.862a20.926,20.926,0,0,0-4.065-.4m17.325,9.259a20.963,20.963,0,0,0-5.749-5.75" transform="translate(-191.167 -834.916)" fill="none" stroke="currentColor" stroke-miterlimit="10" stroke-width="1"/>
</svg>
