<svg xmlns="http://www.w3.org/2000/svg" viewBox="0 0 42.667 42.66">
  <path d="M70.657,1915.22a21.082,21.082,0,0,0,0-5.44m-4.128,15.4a20.717,20.717,0,0,0,2.723-4.7m-11.278,11.27a20.874,20.874,0,0,0,4.709-2.72m-9.962,4.13a21.865,21.865,0,0,1-5.441,0m-9.963-4.13a20.869,20.869,0,0,0,4.708,2.72m-11.278-11.28a20.57,20.57,0,0,0,2.723,4.71m-4.128-9.96a21.094,21.094,0,0,1,0-5.44m4.128-9.96a20.721,20.721,0,0,0-2.723,4.7m11.278-11.27a20.5,20.5,0,0,0-4.708,2.72m9.962-4.13a21.865,21.865,0,0,1,5.441,0m9.962,4.13a20.868,20.868,0,0,0-4.708-2.72m11.278,11.28a20.57,20.57,0,0,0-2.723-4.71m-6.113,12.68A10.417,10.417,0,1,1,50,1902.08,10.421,10.421,0,0,1,60.417,1912.5Z" transform="translate(-28.667 -1891.17)" fill="none" stroke="currentColor" stroke-miterlimit="10" stroke-width="1"/>
</svg>
