<svg xmlns="http://www.w3.org/2000/svg" viewBox="0 0 42.664 42.661">
  <path d="M50,1039.58v.5h0Zm-10.416-2.79-.25.44h0ZM50,1040.08a21.341,21.341,0,0,0,14.065-5.29l-.659-.75A20.339,20.339,0,0,1,50,1039.08Zm14.065-5.29a21.321,21.321,0,0,0,7.085-13.25l-.992-.13a20.321,20.321,0,0,1-6.752,12.63Zm7.085-13.25a21.328,21.328,0,0,0-3.412-14.64l-.831.56a20.318,20.318,0,0,1,3.252,13.95ZM67.74,1006.9a21.348,21.348,0,0,0-12.216-8.754l-.259.966a20.307,20.307,0,0,1,11.643,8.348Zm-12.216-8.754a21.335,21.335,0,0,0-14.956,1.473l.442.9a20.308,20.308,0,0,1,14.255-1.408Zm-14.956,1.473a21.349,21.349,0,0,0-10.273,10.971l.924.38a20.307,20.307,0,0,1,9.792-10.45ZM30.294,1010.59a21.331,21.331,0,0,0-.492,15.02l.947-.32a20.343,20.343,0,0,1,.469-14.32Zm-.492,15.02a21.348,21.348,0,0,0,9.534,11.62l.5-.87a20.342,20.342,0,0,1-9.087-11.07Zm9.534,11.62A21.347,21.347,0,0,0,50,1040.08v-1a20.374,20.374,0,0,1-10.166-2.72Zm4.269-23.69a2.629,2.629,0,0,1-2.625,2.63v1a3.631,3.631,0,0,0,3.625-3.63Zm-2.625,2.63a2.629,2.629,0,0,1-2.625-2.63h-1a3.631,3.631,0,0,0,3.625,3.63Zm-2.625-2.63a2.621,2.621,0,0,1,2.625-2.62v-1a3.622,3.622,0,0,0-3.625,3.62Zm2.625-2.62a2.621,2.621,0,0,1,2.625,2.62h1a3.622,3.622,0,0,0-3.625-3.62Zm11.645,7.83A2.621,2.621,0,0,1,50,1021.37v1a3.622,3.622,0,0,0,3.625-3.62ZM50,1021.37a2.621,2.621,0,0,1-2.625-2.62h-1A3.622,3.622,0,0,0,50,1022.37Zm-2.625-2.62A2.629,2.629,0,0,1,50,1016.12v-1a3.631,3.631,0,0,0-3.625,3.63ZM50,1016.12a2.629,2.629,0,0,1,2.625,2.63h1A3.631,3.631,0,0,0,50,1015.12Zm11.647-2.58a2.629,2.629,0,0,1-2.625,2.63v1a3.631,3.631,0,0,0,3.625-3.63Zm-2.625,2.63a2.629,2.629,0,0,1-2.625-2.63h-1a3.631,3.631,0,0,0,3.625,3.63Zm-2.625-2.63a2.621,2.621,0,0,1,2.625-2.62v-1a3.622,3.622,0,0,0-3.625,3.62Zm2.625-2.62a2.621,2.621,0,0,1,2.625,2.62h1a3.622,3.622,0,0,0-3.625-3.62Zm-6.4,18.25A2.621,2.621,0,0,1,50,1031.79v1a3.622,3.622,0,0,0,3.625-3.62ZM50,1031.79a2.621,2.621,0,0,1-2.625-2.62h-1A3.622,3.622,0,0,0,50,1032.79Zm-2.625-2.62A2.629,2.629,0,0,1,50,1026.54v-1a3.631,3.631,0,0,0-3.625,3.63ZM50,1026.54a2.629,2.629,0,0,1,2.625,2.63h1A3.631,3.631,0,0,0,50,1025.54Z" transform="translate(-28.67 -997.419)" fill="currentColor"/>
</svg>
