<svg xmlns="http://www.w3.org/2000/svg" viewBox="0 0 42.667 42.666">
  <path d="M272.917,693.75l-.354-.354a.5.5,0,0,0,0,.708Zm20.833-20.833.353-.354a.5.5,0,0,0-.707,0Zm20.833,20.833.354.354a.5.5,0,0,0,0-.708ZM293.75,714.583l-.354.354a.5.5,0,0,0,.707,0Zm-20.833-41.666v-.5h-.5v.5Zm41.666,0h.5v-.5h-.5Zm0,41.666v.5h.5v-.5Zm-41.666,0h-.5v.5h.5Zm.353-20.479L294.1,673.27l-.707-.707L272.563,693.4ZM293.4,673.27,314.23,694.1l.707-.708L294.1,672.563ZM314.23,693.4,293.4,714.23l.707.707L314.937,694.1ZM294.1,714.23,273.27,693.4l-.707.708L293.4,714.937Zm-21.186-40.813h41.666v-1H272.917Zm41.166-.5v41.666h1V672.917Zm.5,41.166H272.917v1h41.666Zm-41.166.5V672.917h-1v41.666Z" transform="translate(-272.417 -672.417)" fill="currentColor"/>
</svg>
