<svg xmlns="http://www.w3.org/2000/svg" viewBox="0 0 42.73 42.661">
  <path d="M205.328,1900.02l-.433.25.5.87.433-.25Zm7.2-1.41,0,.5h.006ZM200.5,1919.44l.434-.24,0-.01Zm-1.382-6.94v-.5h-1v.5Zm27.82,0v-.5h-1v.5Zm-2.382,6.94-.432-.25,0,.01Zm-5.325-18.55.434.25.5-.87-.433-.25Zm-13.909,24.09.433.25.5-.87-.433-.25Zm13.912-.87-.433.25.5.87.432-.25ZM201.85,1894l-.433.25.5.86.433-.25Zm-7.361,28.92.434-.25,0-.01Zm-2.322-10.42v-.5h-1v.5Zm41.728,0v-.5h-1v.5Zm-3.322,10.42-.432-.26,0,.01Zm-7.861-28.06.433.25.5-.86-.433-.25ZM201.847,1931l.433.25.5-.86-.433-.25Zm20.867-.86-.433.25.5.86.432-.25Zm-13.91-24.1-.433.25.5.87.433-.25Zm3.727-.48,0,.5h.006Zm-6.014,10.41.434-.25h0Zm-.441-3.47v-.5h-1v.5Zm13.91,0v-.5h-1v.5Zm-1.441,3.47-.432-.25h0Zm-2.786-9.06.433.25.5-.87-.433-.25Zm-6.955,12.05.432.25.5-.87-.433-.25Zm6.954-.87-.433.25.5.87.433-.25Zm-11.393-25.3a.493.493,0,0,0-.271.65.5.5,0,0,0,.654.27Zm-10.625,11.93a.5.5,0,1,0-.923-.39Zm-.923,15.95a.5.5,0,1,0,.923-.39Zm11.931,10.62a.5.5,0,0,0-.654.27.493.493,0,0,0,.271.65Zm15.949.92a.493.493,0,0,0,.271-.65.5.5,0,0,0-.654-.27Zm10.625-11.93a.5.5,0,1,0,.923.39Zm.923-15.95a.5.5,0,1,0-.923.39Zm-11.931-10.62a.5.5,0,0,0,.654-.27.493.493,0,0,0-.271-.65Zm-15.576-.02a.5.5,0,0,0-.381-.93Zm5.007-2.35a.494.494,0,0,0-.432.56.5.5,0,0,0,.559.43Zm5.445.99a.5.5,0,0,0,.559-.43.494.494,0,0,0-.432-.56Zm5.515.43a.5.5,0,0,0-.381.93Zm-13.305,7.35a.5.5,0,1,0-.382-.92Zm3.253-1.88a.491.491,0,0,0-.433.55.505.505,0,0,0,.56.44Zm3.629.99a.505.505,0,0,0,.56-.44.491.491,0,0,0-.433-.55Zm3.761-.03a.5.5,0,1,0-.381.92Zm-19.8,15.19a.493.493,0,0,0,.561.43.5.5,0,0,0,.43-.56Zm1.9,3.24a.5.5,0,0,0-.922.39Zm.956,3.64a.5.5,0,1,0,.8-.6Zm3.261,1.88a.5.5,0,1,0-.61.79Zm16.934.79a.5.5,0,1,0-.61-.79Zm1.855-3.27a.5.5,0,1,0,.8.6Zm2.674-2.65a.5.5,0,0,0-.922-.39Zm-.008-3.76a.5.5,0,0,0,.43.56.493.493,0,0,0,.561-.43Zm-34.472,1.04a.508.508,0,0,0,.562.43.5.5,0,0,0,.429-.56Zm2.38,4.99a.5.5,0,1,0-.922.39Zm1.864,5.21a.5.5,0,1,0,.8-.6Zm4.54,3.16a.508.508,0,0,0-.7.1.5.5,0,0,0,.091.7Zm25.4.8a.5.5,0,0,0,.092-.7.509.509,0,0,0-.7-.1Zm3.135-4.56a.5.5,0,1,0,.8.6Zm3.582-4.22a.5.5,0,1,0-.922-.39Zm.467-5.51a.5.5,0,0,0,.429.56.508.508,0,0,0,.562-.43Zm-22.659-8.62a.5.5,0,0,0-.381-.93Zm1.5-1.43a.5.5,0,0,0,.127,1Zm1.815,1a.5.5,0,0,0,.127-1Zm2.008-.5a.5.5,0,0,0-.381.93Zm-10.242,7.86a.5.5,0,0,0,.991-.13Zm1.431,1.5a.5.5,0,1,0-.922.38Zm.049,2.06a.5.5,0,1,0,.795-.6Zm1.982.59a.5.5,0,1,0-.61.79Zm8.466.79a.5.5,0,1,0-.61-.79Zm.576-1.98a.5.5,0,1,0,.8.6Zm1.767-1.08a.5.5,0,1,0-.922-.38Zm-.482-2.01a.5.5,0,0,0,.991.13Zm-6.4-22.17a21.145,21.145,0,0,0-8.166,1.62l.383.92a20.342,20.342,0,0,1,7.783-1.54Zm-19.714,13.16a21.3,21.3,0,0,0-1.619,8.17h1a20.219,20.219,0,0,1,1.542-7.78Zm-1.619,8.17a21.3,21.3,0,0,0,1.619,8.17l.923-.39a20.219,20.219,0,0,1-1.542-7.78Zm13.167,19.71a21.145,21.145,0,0,0,8.166,1.62v-1a20.342,20.342,0,0,1-7.783-1.54Zm8.166,1.62a21.145,21.145,0,0,0,8.166-1.62l-.383-.92a20.342,20.342,0,0,1-7.783,1.54Zm19.714-13.16a21.3,21.3,0,0,0,1.619-8.17h-1a20.22,20.22,0,0,1-1.542,7.78Zm1.619-8.17a21.3,21.3,0,0,0-1.619-8.17l-.923.39a20.22,20.22,0,0,1,1.542,7.78ZM220.7,1892.79a21.145,21.145,0,0,0-8.166-1.62v1a20.342,20.342,0,0,1,7.783,1.54Zm-18.347,2.07a21.381,21.381,0,0,1,2.388-1.17l-.381-.93a21.7,21.7,0,0,0-2.507,1.24Zm7.522-2.53a19.6,19.6,0,0,1,2.656-.16l.006-1a19.949,19.949,0,0,0-2.789.17Zm2.662-.16a19.6,19.6,0,0,1,2.656.16l.127-.99a19.949,19.949,0,0,0-2.789-.17Zm7.79,1.52a21.468,21.468,0,0,1,2.388,1.17l.5-.86a21.7,21.7,0,0,0-2.507-1.24Zm-14.5,7.2a12.1,12.1,0,0,1,1.573-.78l-.382-.92a13.705,13.705,0,0,0-1.69.83Zm4.953-1.67a12.749,12.749,0,0,1,1.748-.11l.006-1a14.75,14.75,0,0,0-1.881.12Zm1.754-.11a12.749,12.749,0,0,1,1.748.11l.127-.99a14.75,14.75,0,0,0-1.881-.12Zm5.128,1a12.02,12.02,0,0,1,1.572.78l.5-.87a13.649,13.649,0,0,0-1.691-.83Zm-19.541,12.39a14.362,14.362,0,0,0,.126,1.88l.991-.13a13.415,13.415,0,0,1-.117-1.75Zm1.109,5.51a14.6,14.6,0,0,0,.841,1.69l.864-.51a12.761,12.761,0,0,1-.783-1.57Zm.839,1.68a14.167,14.167,0,0,0,1.039,1.57l.8-.6a13.877,13.877,0,0,1-.967-1.46Zm3.69,4.24a15.369,15.369,0,0,0,1.566,1.05l.5-.87a13.548,13.548,0,0,1-1.456-.97Zm15.978,1.05a15.258,15.258,0,0,0,1.566-1.05l-.61-.79a13.548,13.548,0,0,1-1.456.97Zm4.217-3.72a14.167,14.167,0,0,0,1.039-1.57l-.868-.49a13.879,13.879,0,0,1-.967,1.46Zm1.037-1.56a14.6,14.6,0,0,0,.841-1.69l-.922-.39a12.757,12.757,0,0,1-.783,1.57Zm1.824-5.32a14.362,14.362,0,0,0,.126-1.88h-1a13.418,13.418,0,0,1-.117,1.75Zm-35.648-1.88a21.032,21.032,0,0,0,.185,2.79l.991-.13a20.2,20.2,0,0,1-.176-2.66Zm1.643,8.17a21.107,21.107,0,0,0,1.247,2.5l.863-.51a20.005,20.005,0,0,1-1.188-2.38Zm1.244,2.49a20.566,20.566,0,0,0,1.542,2.33l.8-.6a21.2,21.2,0,0,1-1.468-2.22Zm5.472,6.29a22.618,22.618,0,0,0,2.321,1.55l.5-.86a20.888,20.888,0,0,1-2.212-1.49Zm23.688,1.55a22.4,22.4,0,0,0,2.321-1.55l-.61-.8a20.775,20.775,0,0,1-2.211,1.49Zm6.252-5.51a20.421,20.421,0,0,0,1.541-2.33l-.868-.49a21.054,21.054,0,0,1-1.469,2.22Zm1.539-2.32a21.1,21.1,0,0,0,1.247-2.5l-.922-.39a20.012,20.012,0,0,1-1.189,2.38Zm2.705-7.88a21.035,21.035,0,0,0,.185-2.79h-1a20.2,20.2,0,0,1-.176,2.66Zm-24.407-8.38a5.627,5.627,0,0,1,.757-.37l-.381-.93a9.088,9.088,0,0,0-.875.43Zm2.384-.8a4.723,4.723,0,0,1,.841-.05l.006-1a6.32,6.32,0,0,0-.974.05Zm.847-.05a4.723,4.723,0,0,1,.841.05l.127-1a6.32,6.32,0,0,0-.974-.05Zm2.468.48a5.626,5.626,0,0,1,.757.37l.5-.87a9.2,9.2,0,0,0-.875-.43Zm-9.926,5.96a7.238,7.238,0,0,0,.065.97l.991-.13a6.4,6.4,0,0,1-.056-.84Zm.574,2.85a7.058,7.058,0,0,0,.435.87l.864-.5a6.739,6.739,0,0,1-.377-.75Zm.433.87a6.773,6.773,0,0,0,.538.81l.795-.6a6.835,6.835,0,0,1-.465-.71Zm1.91,2.19a8.121,8.121,0,0,0,.811.55l.5-.87a6.3,6.3,0,0,1-.7-.47Zm8.266.55a8.224,8.224,0,0,0,.81-.55l-.61-.79a6.3,6.3,0,0,1-.7.47Zm2.182-1.93a6.773,6.773,0,0,0,.538-.81l-.868-.5a6.687,6.687,0,0,1-.466.71Zm.536-.81a7.2,7.2,0,0,0,.435-.87l-.922-.38a6.745,6.745,0,0,1-.377.75Zm.944-2.75a7.238,7.238,0,0,0,.065-.97h-1a6.4,6.4,0,0,1-.056.84Z" transform="translate(-191.166 -1891.169)" fill="currentColor"/>
</svg>
