<svg xmlns="http://www.w3.org/2000/svg" viewBox="0 0 42.666 42.66">
  <path d="M395.833,1831.25h0Zm-41.666,0h0Zm21.333,20.83v-20.83h-1v20.83Zm-.25-20.4,18.044-10.41-.5-.87-18.044,10.42Zm17.294-10.85v20.84h1v-20.84Zm.25,20.4-18.044,10.42.5.87,18.044-10.42Zm-.183-20.15a20.345,20.345,0,0,1,2.722,10.17h1a21.39,21.39,0,0,0-2.856-10.67Zm2.722,10.17a20.345,20.345,0,0,1-2.722,10.17l.866.5a21.39,21.39,0,0,0,2.856-10.67Zm-2.722,10.17a20.28,20.28,0,0,1-7.442,7.44l.5.87a21.323,21.323,0,0,0,7.808-7.81Zm-7.442,7.44A20.181,20.181,0,0,1,375,1851.58v1a21.258,21.258,0,0,0,10.669-2.85Zm-27.713-7.19v-20.84h-1v20.84Zm-.75-20.4,18.044,10.41.5-.86-18.044-10.42Zm18.544,30.38-18.044-10.42-.5.87,18.044,10.42Zm-18.044-30.38,18.044-10.42-.5-.87-18.044,10.42Zm17.544-10.42,18.044,10.42.5-.87-18.044-10.42Zm.25.07a20.181,20.181,0,0,1,10.169,2.72l.5-.87A21.258,21.258,0,0,0,375,1809.92Zm10.169,2.72a20.28,20.28,0,0,1,7.442,7.44l.866-.5a21.323,21.323,0,0,0-7.808-7.81Zm-27.78,7.44a20.28,20.28,0,0,1,7.442-7.44l-.5-.87a21.334,21.334,0,0,0-7.809,7.81Zm7.442-7.44A20.178,20.178,0,0,1,375,1810.92v-1a21.258,21.258,0,0,0-10.669,2.85ZM375,1851.58a20.178,20.178,0,0,1-10.169-2.72l-.5.87A21.258,21.258,0,0,0,375,1852.58Zm-10.169-2.72a20.28,20.28,0,0,1-7.442-7.44l-.867.5a21.334,21.334,0,0,0,7.809,7.81Zm-10.164-17.61a20.263,20.263,0,0,1,2.721-10.17l-.865-.5a21.26,21.26,0,0,0-2.856,10.67Zm2.721,10.17a20.263,20.263,0,0,1-2.721-10.17h-1a21.287,21.287,0,0,0,2.856,10.67Z" transform="translate(-353.667 -1809.92)" fill="currentColor"/>
</svg>
