<svg xmlns="http://www.w3.org/2000/svg" viewBox="0 0 42.666 42.66">
  <path d="M212.933,1750.25l10.417-18.04-.867-.5-10.416,18.04Zm9.734-17.86a20.3,20.3,0,0,1,7.443,7.44l.866-.5a21.412,21.412,0,0,0-7.81-7.81Zm7.443,7.44a20.326,20.326,0,0,1,2.723,10.17h1a21.36,21.36,0,0,0-2.857-10.67Zm3.223,9.67H212.5v1h20.833Zm-.5.5a20.326,20.326,0,0,1-2.723,10.17l.866.5a21.36,21.36,0,0,0,2.857-10.67Zm-2.723,10.17a20.373,20.373,0,0,1-7.443,7.44l.5.86a21.309,21.309,0,0,0,7.81-7.8Zm-6.76,7.62-10.417-18.04-.866.5,10.416,18.04Zm-20.834.5,10.417-18.04-.866-.5-10.417,18.04Zm20.15-.68a20.375,20.375,0,0,1-10.166,2.72v1a21.258,21.258,0,0,0,10.667-2.86Zm-10.166,2.72a20.378,20.378,0,0,1-10.167-2.72l-.5.86a21.258,21.258,0,0,0,10.667,2.86Zm-20.833-19.83H212.5v-1H191.667Zm10.666,17.11a20.375,20.375,0,0,1-7.444-7.44l-.866.5a21.324,21.324,0,0,0,7.81,7.8Zm-7.444-7.44a20.335,20.335,0,0,1-2.722-10.17h-1a21.37,21.37,0,0,0,2.856,10.67ZM192.167,1750a20.335,20.335,0,0,1,2.722-10.17l-.866-.5a21.37,21.37,0,0,0-2.856,10.67Zm2.722-10.17a20.3,20.3,0,0,1,7.444-7.44l-.5-.87a21.427,21.427,0,0,0-7.81,7.81Zm6.761-7.62,10.417,18.04.866-.5-10.417-18.04Zm.683.18a20.378,20.378,0,0,1,10.167-2.72v-1a21.35,21.35,0,0,0-10.667,2.85Zm10.167-2.72a20.375,20.375,0,0,1,10.166,2.72l.5-.87a21.35,21.35,0,0,0-10.667-2.85Z" transform="translate(-191.167 -1728.67)" fill="currentColor"/>
</svg>
