<svg xmlns="http://www.w3.org/2000/svg" viewBox="0 0 42.7 42.723">
  <path d="M375,845.425V835.417m-9.375,15.416-8.667-5m8.667,15.834-8.667,5m27.417-15.834a10.82,10.82,0,1,0,1.45,5.417A10.821,10.821,0,0,0,384.375,850.833Zm0,0,8.667-5M375,877.083V867.075m18.042-.408-8.667-5m0,0a10.818,10.818,0,1,0-3.958,3.958A10.818,10.818,0,0,0,384.375,861.667Zm8.667-15.834a20.832,20.832,0,1,0,2.791,10.417A20.832,20.832,0,0,0,393.042,845.833Z" transform="translate(-353.633 -834.874)" fill="none" stroke="currentColor" stroke-miterlimit="10" stroke-width="1"/>
</svg>
