<svg xmlns="http://www.w3.org/2000/svg" viewBox="0 0 42.663 42.658">
  <path d="M304.164,1244.46l.25-.44h0Zm-16.429,7.62.433-.25h0Zm12.027,0,.433.25h0Zm-12.027,20.83.433.25h0Zm12.027,0-.433.25h0Zm-6.014-31.74a21.338,21.338,0,0,0-14.064,5.29l.659.75a20.339,20.339,0,0,1,13.406-5.04Zm-14.064,5.29a21.317,21.317,0,0,0-7.084,13.25l.991.13a20.324,20.324,0,0,1,6.752-12.63Zm-7.084,13.25a21.339,21.339,0,0,0,3.413,14.64l.831-.56a20.339,20.339,0,0,1-3.253-13.95Zm3.413,14.64a21.339,21.339,0,0,0,12.215,8.75l.259-.96a20.367,20.367,0,0,1-11.643-8.35Zm12.215,8.75a21.323,21.323,0,0,0,14.956-1.47l-.443-.9a20.376,20.376,0,0,1-14.254,1.41Zm14.956-1.47a21.348,21.348,0,0,0,10.273-10.97l-.924-.38a20.308,20.308,0,0,1-9.792,10.45Zm10.273-10.97a21.331,21.331,0,0,0,.491-15.02l-.947.32a20.344,20.344,0,0,1-.468,14.32Zm.491-15.02a21.346,21.346,0,0,0-9.534-11.62l-.5.87A20.34,20.34,0,0,1,313,1255.96Zm-9.534-11.62a21.344,21.344,0,0,0-10.666-2.85v1a20.371,20.371,0,0,1,10.165,2.72Zm-10.232,18.23-6.014-10.42-.866.5,6.014,10.42Zm-6.014-10.42a6.441,6.441,0,0,1,5.581-9.66v-1a7.44,7.44,0,0,0-6.447,11.16Zm5.581-9.66a6.441,6.441,0,0,1,5.58,9.66l.866.5a7.44,7.44,0,0,0-6.446-11.16Zm5.58,9.66-6.013,10.42.866.5,6.013-10.42Zm-6.013,10.42-6.014,10.41.866.5,6.014-10.41Zm-6.014,10.41a6.441,6.441,0,0,1-11.161,0l-.866.5a7.438,7.438,0,0,0,12.893,0Zm-11.161,0a6.441,6.441,0,0,1,5.58-9.66v-1a7.44,7.44,0,0,0-6.446,11.16Zm5.58-9.66h12.028v-1H281.721Zm11.6-.25,6.013,10.41.866-.5-6.013-10.41Zm6.013,10.41a7.438,7.438,0,0,0,12.893,0l-.866-.5a6.441,6.441,0,0,1-11.161,0Zm12.893,0a7.44,7.44,0,0,0-6.446-11.16v1a6.44,6.44,0,0,1,5.58,9.66ZM305.776,1262H293.749v1h12.027Z" transform="translate(-272.418 -1241.17)" fill="currentColor"/>
</svg>
