<svg xmlns="http://www.w3.org/2000/svg" viewBox="0 0 41.213 42.667">
  <path d="M55.263,794.64a20.329,20.329,0,0,1-10.525,0l-.259.966a21.318,21.318,0,0,0,11.043,0Zm14.378-14.377a20.337,20.337,0,0,1-5.263,9.115l.707.707a21.333,21.333,0,0,0,5.521-9.563Zm-5.263-19.641a20.336,20.336,0,0,1,5.263,9.115l.966-.259a21.333,21.333,0,0,0-5.521-9.563Zm-19.64-5.263a20.349,20.349,0,0,1,10.525,0l.259-.965a21.318,21.318,0,0,0-11.043,0ZM30.359,769.737a20.337,20.337,0,0,1,5.263-9.115l-.707-.707a21.333,21.333,0,0,0-5.522,9.563Zm5.263,19.641a20.338,20.338,0,0,1-5.263-9.115l-.966.259a21.335,21.335,0,0,0,5.522,9.563ZM59.917,775A9.917,9.917,0,0,1,50,784.917v1A10.917,10.917,0,0,0,60.917,775ZM50,784.917A9.917,9.917,0,0,1,40.083,775h-1A10.917,10.917,0,0,0,50,785.917ZM40.083,775A9.917,9.917,0,0,1,50,765.083v-1A10.917,10.917,0,0,0,39.083,775ZM50,765.083A9.917,9.917,0,0,1,59.917,775h1A10.917,10.917,0,0,0,50,764.083Z" transform="translate(-29.393 -753.667)" fill="currentColor"/>
</svg>
