<svg xmlns="http://www.w3.org/2000/svg" viewBox="0 0 41.185 37.262">
  <path d="M200.134,2002.21l9.775-16.93m12.366,21.41H202.73m19.545,0a5.125,5.125,0,1,0,.691-2.59A5.118,5.118,0,0,0,222.275,2006.69Zm-19.545,0a5.136,5.136,0,1,1-9.74-2.29,5.173,5.173,0,0,1,2.639-2.47,5.135,5.135,0,0,1,6.41,2.17A5.168,5.168,0,0,1,202.73,2006.69Zm12.358-21.41,9.769,16.93m-7.18-21.41a5.171,5.171,0,0,1-.873,2.88,5.243,5.243,0,0,1-2.324,1.91,5.183,5.183,0,0,1-5.642-1.13,5.133,5.133,0,0,1-1.418-2.65,5.178,5.178,0,1,1,10.257-1.01Z" transform="translate(-191.948 -1975.12)" fill="none" stroke="currentColor" stroke-linecap="round" stroke-miterlimit="10" stroke-width="1"/>
</svg>
