<svg xmlns="http://www.w3.org/2000/svg" viewBox="0 0 41.666 42.666">
  <path d="M293.75,33.333l-.354.354.354.354.353-.354ZM283.333,22.917v-.5h-1.207l.854.854Zm20.834,0,.353.354.854-.854h-1.207ZM293.75,54.167l.353-.354-.353-.354-.354.354ZM283.333,64.583l-.353-.354-.854.854h1.207Zm20.834,0v.5h1.207l-.854-.854ZM272.917,44.25h41.666v-1H272.917ZM294.1,32.98,283.687,22.563l-.707.707L293.4,33.687Zm-10.77-9.563h20.834v-1H283.333Zm20.48-.854L293.4,32.98l.707.707L304.52,23.27ZM293.4,53.813,282.98,64.23l.707.707L294.1,54.52Zm-10.063,11.27h20.834v-1H283.333Zm21.187-.854L294.1,53.813l-.707.707,10.417,10.417Z" transform="translate(-272.917 -22.417)" fill="currentColor"/>
</svg>
