<svg xmlns="http://www.w3.org/2000/svg" viewBox="0 0 42.666 42.666">
  <path d="M375,389.583a20.833,20.833,0,0,0,0-41.666m0,41.666a20.833,20.833,0,0,1,0-41.666m0,41.666V368.75m0,20.833,18.042-10.416M375,389.583l-18.042-10.416M375,347.917V368.75m0-20.833,18.042,10.416M375,347.917l-18.042,10.416M375,368.75l-18.042-10.417M375,368.75l-18.042,10.417M375,368.75l18.042,10.417M375,368.75l18.042-10.417m-36.084,0v20.834m36.084,0V358.333" transform="translate(-353.667 -347.417)" fill="none" stroke="currentColor" stroke-miterlimit="10" stroke-width="1"/>
</svg>
