<svg xmlns="http://www.w3.org/2000/svg" viewBox="0 0 42.667 42.666">
  <path d="M70.833,937.5A20.833,20.833,0,0,1,50,958.333M70.833,937.5A20.833,20.833,0,0,0,50,916.667M70.833,937.5H29.167M50,958.333A20.833,20.833,0,0,1,29.167,937.5M50,958.333c5.753,0,10.417-9.327,10.417-20.833S55.753,916.667,50,916.667m0,41.666c-5.753,0-10.417-9.327-10.417-20.833S44.247,916.667,50,916.667m0,41.666V916.667M29.167,937.5A20.833,20.833,0,0,1,50,916.667M31.954,927.083H68.046M31.954,947.917H68.046" transform="translate(-28.667 -916.167)" fill="none" stroke="currentColor" stroke-linecap="round" stroke-miterlimit="10" stroke-width="1"/>
</svg>
