<svg xmlns="http://www.w3.org/2000/svg" viewBox="0 0 42.667 42.667">
  <path d="M233.346,43.8a20.833,20.833,0,0,1-20.833,20.833M233.346,43.8a20.833,20.833,0,0,0-20.833-20.833M233.346,43.8c0,5.753-9.327,10.417-20.833,10.417S191.679,49.554,191.679,43.8m41.667,0c0-5.753-9.327-10.417-20.833-10.417S191.679,38.048,191.679,43.8m41.667,0H191.679m20.834,20.833A20.834,20.834,0,0,1,191.679,43.8m20.834,20.833c5.753,0,10.416-9.327,10.416-20.833s-4.663-20.833-10.416-20.833m0,41.667c-5.753,0-10.417-9.327-10.417-20.833s4.664-20.833,10.417-20.833m0,41.667V22.967M191.679,43.8a20.834,20.834,0,0,1,20.834-20.833" transform="translate(-191.179 -22.467)" fill="none" stroke="currentColor" stroke-linecap="round" stroke-linejoin="round" stroke-width="1"/>
</svg>
