<svg xmlns="http://www.w3.org/2000/svg" viewBox="0 0 42.667 42.66">
  <path d="M29.167,1841.67v-.5h-.5v.5Zm10.417,10.41v.5h.5v-.5Zm-10.417,0h-.5v.5h.5Zm0-41.66v-.5h-.5v.5Zm10.417,0h.5v-.5h-.5Zm-10.417,10.41h-.5v.5h.5Zm41.667,20.84h.5v-.5h-.5Zm0,10.41v.5h.5v-.5Zm-10.417,0h-.5v.5h.5Zm0-41.66v-.5h-.5v.5Zm10.417,0h.5v-.5h-.5Zm0,10.41v.5h.5v-.5Zm-41.667,21.34H39.583v-1H29.167Zm9.917-.5v10.41h1v-10.41Zm.5,9.91H29.167v1H39.583Zm-9.917.5v-10.41h-1v10.41Zm-.5-41.16H39.583v-1H29.167Zm9.917-.5v10.41h1v-10.41Zm.5,9.91H29.167v1H39.583Zm-9.917.5v-10.41h-1v10.41Zm30.75,21.34H70.833v-1H60.417Zm9.917-.5v10.41h1v-10.41Zm.5,9.91H60.417v1H70.833Zm-9.917.5v-10.41h-1v10.41Zm-.5-41.16H70.833v-1H60.417Zm9.917-.5v10.41h1v-10.41Zm.5,9.91H60.417v1H70.833Zm-9.917.5v-10.41h-1v10.41Zm-20.98,21.19,20.833-20.83-.707-.71L39.23,1841.31Zm-.707-20.83,20.833,20.83.707-.71-20.833-20.83Z" transform="translate(-28.667 -1809.92)" fill="currentColor"/>
</svg>
