<svg xmlns="http://www.w3.org/2000/svg" viewBox="0 0 42.666 41.666">
  <path d="M272.917,145.833c0-8.346,20.833-12.487,20.833-20.833m0,0c0,8.346-10.417,12.487-10.417,20.833M293.75,125v20.833m0-20.833c0,8.346,10.417,12.487,10.417,20.833M293.75,125c0,8.346,20.833,12.487,20.833,20.833M293.75,125c0-8.346,20.833-12.488,20.833-20.833M293.75,125c0-8.346,10.417-12.487,10.417-20.833M293.75,125V104.167m0,20.833c0-8.346-10.417-12.487-10.417-20.833M293.75,125c0-8.346-20.833-12.488-20.833-20.833" transform="translate(-272.417 -104.167)" fill="none" stroke="currentColor" stroke-miterlimit="10" stroke-width="1"/>
</svg>
