<svg viewBox="0 0 26 27" fill="none" xmlns="http://www.w3.org/2000/svg">
<path d="M13 4.87321C14.0696 4.87321 14.9366 4.00617 14.9366 2.93661C14.9366 1.86705 14.0696 1 13 1C11.9305 1 11.0634 1.86705 11.0634 2.93661C11.0634 4.00617 11.9305 4.87321 13 4.87321Z" fill="currentColor"/>
<path d="M4.80315 20.884C5.08922 19.8534 4.48568 18.7861 3.45509 18.5C2.4245 18.2139 1.35713 18.8175 1.07105 19.8481C0.784972 20.8786 1.38852 21.946 2.41911 22.2321C3.4497 22.5182 4.51707 21.9146 4.80315 20.884Z" fill="currentColor"/>
<path d="M23.5641 22.2367C24.5973 21.9598 25.2104 20.8979 24.9335 19.8648C24.6567 18.8317 23.5948 18.2186 22.5617 18.4954C21.5286 18.7722 20.9155 19.8342 21.1923 20.8673C21.4691 21.9004 22.531 22.5135 23.5641 22.2367Z" fill="currentColor"/>
<path d="M3.45509 18.5L3.32135 18.9818L3.45509 18.5ZM4.80315 20.884L4.32136 20.7503L4.80315 20.884ZM2.41911 22.2321L2.28537 22.7139L2.41911 22.2321ZM1.07105 19.8481L0.589268 19.7143L1.07105 19.8481ZM24.9335 19.8648L25.4165 19.7354L24.9335 19.8648ZM23.5641 22.2367L23.6936 22.7196L23.5641 22.2367ZM21.1923 20.8673L21.6753 20.7379L21.1923 20.8673ZM22.5617 18.4954L22.6911 18.9784L22.5617 18.4954ZM24.1197 14.5562C24.1197 20.6975 19.1412 25.6759 13 25.6759V26.6759C19.6935 26.6759 25.1197 21.2497 25.1197 14.5562H24.1197ZM13 25.6759C6.85881 25.6759 1.88038 20.6975 1.88038 14.5562H0.880377C0.880377 21.2497 6.30653 26.6759 13 26.6759V25.6759ZM1.88038 14.5562C1.88038 8.41504 6.85881 3.43661 13 3.43661V2.43661C6.30653 2.43661 0.880377 7.86275 0.880377 14.5562H1.88038ZM13 3.43661C19.1412 3.43661 24.1197 8.41504 24.1197 14.5562H25.1197C25.1197 7.86275 19.6935 2.43661 13 2.43661V3.43661ZM14.4366 2.93661C14.4366 3.73002 13.7934 4.37321 13 4.37321V5.37321C14.3457 5.37321 15.4366 4.28231 15.4366 2.93661H14.4366ZM13 4.37321C12.2066 4.37321 11.5634 3.73002 11.5634 2.93661H10.5634C10.5634 4.28231 11.6543 5.37321 13 5.37321V4.37321ZM11.5634 2.93661C11.5634 2.14319 12.2066 1.5 13 1.5V0.5C11.6543 0.5 10.5634 1.59091 10.5634 2.93661H11.5634ZM13 1.5C13.7934 1.5 14.4366 2.14319 14.4366 2.93661H15.4366C15.4366 1.59091 14.3457 0.5 13 0.5V1.5ZM3.32135 18.9818C4.08586 19.194 4.53358 19.9858 4.32136 20.7503L5.28493 21.0178C5.64487 19.7211 4.8855 18.3782 3.58883 18.0182L3.32135 18.9818ZM4.32136 20.7503C4.10914 21.5148 3.31735 21.9625 2.55284 21.7503L2.28537 22.7139C3.58204 23.0738 4.92499 22.3144 5.28493 21.0178L4.32136 20.7503ZM2.55284 21.7503C1.78834 21.5381 1.34062 20.7463 1.55283 19.9818L0.589268 19.7143C0.229329 21.011 0.988699 22.3539 2.28537 22.7139L2.55284 21.7503ZM1.55283 19.9818C1.76505 19.2173 2.55684 18.7696 3.32135 18.9818L3.58883 18.0182C2.29216 17.6583 0.949208 18.4176 0.589268 19.7143L1.55283 19.9818ZM24.4506 19.9942C24.6559 20.7606 24.2011 21.5483 23.4347 21.7537L23.6936 22.7196C24.9934 22.3713 25.7648 21.0352 25.4165 19.7354L24.4506 19.9942ZM23.4347 21.7537C22.6684 21.9591 21.8806 21.5042 21.6753 20.7379L20.7093 20.9967C21.0576 22.2965 22.3937 23.0679 23.6936 22.7196L23.4347 21.7537ZM21.6753 20.7379C21.4699 19.9715 21.9247 19.1837 22.6911 18.9784L22.4323 18.0125C21.1324 18.3608 20.361 19.6968 20.7093 20.9967L21.6753 20.7379ZM22.6911 18.9784C23.4575 18.773 24.2452 19.2278 24.4506 19.9942L25.4165 19.7354C25.0682 18.4356 23.7321 17.6642 22.4323 18.0125L22.6911 18.9784Z" fill="currentColor"/>
</svg>
