<svg xmlns="http://www.w3.org/2000/svg" viewBox="0 0 42.666 42.667">
  <path d="M117.309,43.75A14.048,14.048,0,0,1,124.264,31.7m0,24.092a14.045,14.045,0,0,0,13.91,0m0-24.092a14.044,14.044,0,0,1,6.954,12.046m-17.387,6.023a7.022,7.022,0,0,0,6.955,0m0-12.046a7.023,7.023,0,0,1,3.478,6.023m-10.433-6.023a7.025,7.025,0,0,0-3.477,6.023m27.819,0A20.833,20.833,0,1,1,131.25,22.917,20.833,20.833,0,0,1,152.083,43.75Z" transform="translate(-109.917 -22.417)" fill="none" stroke="currentColor" stroke-linecap="square" stroke-miterlimit="10" stroke-width="1"/>
</svg>
