<svg xmlns="http://www.w3.org/2000/svg" viewBox="0 0 42.667 42.665">
  <path d="M212.5,1445.83v0Zm18.042-31.25.433.25a.5.5,0,0,0,0-.5.512.512,0,0,0-.433-.25Zm-36.085,0v-.5a.512.512,0,0,0-.433.25.5.5,0,0,0,0,.5Zm7.626,28.46-.25.44Zm10.85,3.04,18.042-31.25-.866-.5-18.042,31.25Zm17.609-32H194.461v1h36.085Zm-36.518.75,18.043,31.25.866-.5-18.043-31.25Zm18.476,31.5a21.343,21.343,0,0,0,14.066-5.29l-.659-.75a20.342,20.342,0,0,1-13.407,5.04Zm14.066-5.29a21.321,21.321,0,0,0,7.085-13.26l-.991-.13a20.319,20.319,0,0,1-6.753,12.64Zm7.085-13.26a21.312,21.312,0,0,0-3.412-14.63l-.832.55a20.341,20.341,0,0,1,3.253,13.95Zm-3.412-14.63a21.318,21.318,0,0,0-12.217-8.76l-.259.97a20.35,20.35,0,0,1,11.644,8.34Zm-12.217-8.76a21.328,21.328,0,0,0-14.957,1.48l.442.89a20.324,20.324,0,0,1,14.256-1.4Zm-14.957,1.48a21.31,21.31,0,0,0-10.275,10.97l.924.38a20.33,20.33,0,0,1,9.793-10.46Zm-10.275,10.97a21.337,21.337,0,0,0-.492,15.02l.947-.32a20.343,20.343,0,0,1,.469-14.32Zm-.492,15.02a21.352,21.352,0,0,0,9.535,11.62l.5-.87a20.346,20.346,0,0,1-9.088-11.07Zm9.535,11.62a21.35,21.35,0,0,0,10.667,2.85v-1a20.375,20.375,0,0,1-10.167-2.72Z" transform="translate(-191.17 -1403.665)" fill="currentColor"/>
</svg>
