<svg xmlns="http://www.w3.org/2000/svg" viewBox="0 0 42.667 42.672">
  <path d="M375,1485.41l.433-.25a.5.5,0,0,0-.866,0Zm18.042,31.25.433.25h0Zm-15.959-4.16v.5a.5.5,0,0,0,.5-.5Zm-4.166,0h-.5a.5.5,0,0,0,.5.5Zm0-4.17v-.5a.48.48,0,0,0-.354.15.488.488,0,0,0-.146.35Zm4.166,0h.5a.5.5,0,0,0-.5-.5Zm-4.166-2.08h-.5a.5.5,0,0,0,.5.5Zm0-10.42v-.5a.48.48,0,0,0-.354.15.488.488,0,0,0-.146.35Zm4.166,0h.5a.5.5,0,0,0-.5-.5Zm0,10.42v.5a.5.5,0,0,0,.5-.5Zm8.334-18.04.25-.44h0Zm0,36.08.25.43h0Zm-8.334-18.04v.5h.5v-.5Zm-4.166,0h-.5v.5h.5Zm4.166,6.25v.5h.5v-.5Zm-4.166,0h-.5v.5h.5Zm1.65-27.34-18.042,31.25.866.5,18.042-31.25Zm-17.609,32h36.084v-1H356.958Zm36.517-.75-18.042-31.25-.866.5,18.042,31.25ZM377.083,1512h-4.166v1h4.166Zm-3.666.5v-4.17h-1v4.17Zm-.5-3.67h4.166v-1h-4.166Zm3.666-.5v4.17h1v-4.17Zm-3.166-2.08v-10.42h-1v10.42Zm-.5-9.92h4.166v-1h-4.166Zm3.666-.5v10.42h1v-10.42Zm.5,9.92h-4.166v1h4.166Zm8.584-17.98a21.274,21.274,0,0,0-13.452-2.67l.131.99a20.284,20.284,0,0,1,12.821,2.55Zm-13.452-2.67a21.308,21.308,0,0,0-12.3,6.06l.707.71a20.276,20.276,0,0,1,11.724-5.78Zm-12.3,6.06a21.346,21.346,0,0,0-6.066,12.3l.991.13a20.331,20.331,0,0,1,5.782-11.72Zm-6.066,12.3a21.316,21.316,0,0,0,2.676,13.45l.866-.5a20.323,20.323,0,0,1-2.551-12.82Zm2.676,13.45a21.328,21.328,0,0,0,29.142,7.81l-.5-.86a20.335,20.335,0,0,1-27.776-7.45Zm29.142,7.81a21.279,21.279,0,0,0,7.808-7.81l-.866-.5a20.412,20.412,0,0,1-7.442,7.45Zm7.808-7.81a21.34,21.34,0,0,0-7.808-29.14l-.5.87a20.334,20.334,0,0,1,7.442,27.77Zm-16.892-21.08v10.42h1v-10.42Zm.5,9.92h-4.166v1h4.166Zm-3.666.5v-10.42h-1v10.42Zm3.166,2.08v4.17h1v-4.17Zm.5,3.67h-4.166v1h4.166Zm-3.666.5v-4.17h-1v4.17Z" transform="translate(-353.667 -1484.91)" fill="currentColor"/>
</svg>
