<svg xmlns="http://www.w3.org/2000/svg" viewBox="0 0 42.667 42.66">
  <path d="M70.833,1993.75h0Zm-41.667,0h0Zm41.167,0a20.355,20.355,0,0,1-5.956,14.38l.707.7a21.317,21.317,0,0,0,6.248-15.08Zm-5.956,14.38A20.342,20.342,0,0,1,50,2014.08v1a21.3,21.3,0,0,0,15.085-6.25ZM50,2014.08a20.342,20.342,0,0,1-14.378-5.95l-.707.7A21.3,21.3,0,0,0,50,2015.08Zm-14.378-5.95a20.355,20.355,0,0,1-5.956-14.38h-1a21.317,21.317,0,0,0,6.248,15.08Zm-6.456-13.88H70.833v-1H29.167Zm.5-.5a20.355,20.355,0,0,1,5.956-14.38l-.707-.71a21.357,21.357,0,0,0-6.248,15.09Zm5.956-14.38A20.342,20.342,0,0,1,50,1973.42v-1a21.329,21.329,0,0,0-15.085,6.24ZM50,1973.42a20.342,20.342,0,0,1,14.378,5.95l.707-.71A21.329,21.329,0,0,0,50,1972.42Zm14.378,5.95a20.355,20.355,0,0,1,5.956,14.38h1a21.358,21.358,0,0,0-6.248-15.09Z" transform="translate(-28.667 -1972.42)" fill="currentColor"/>
</svg>
