<svg xmlns="http://www.w3.org/2000/svg" viewBox="0 0 42.666 42.666">
  <path d="M272.917,754.167v-.5h-.5v.5Zm41.666,0h.5v-.5h-.5Zm0,41.666v.5h.5v-.5Zm-41.666,0h-.5v.5h.5ZM286.8,768.055v-.5h-.5v.5Zm13.889,0h.5v-.5h-.5Zm0,13.889v.5h.5v-.5Zm-13.889,0h-.5v.5h.5Zm-13.888-27.277h41.666v-1H272.917Zm41.166-.5v41.666h1V754.167Zm.5,41.166H272.917v1h41.666Zm-41.166.5V754.167h-1v41.666Zm-.147.354,41.667-41.667-.707-.707L272.563,795.48Zm-.707-41.667,41.667,41.667.707-.707L273.27,753.813ZM286.8,768.555h13.889v-1H286.8Zm13.389-.5v13.889h1V768.055Zm.5,13.389H286.8v1h13.889Zm-13.389.5V768.055h-1v13.889Z" transform="translate(-272.417 -753.667)" fill="currentColor"/>
</svg>
