<svg xmlns="http://www.w3.org/2000/svg" viewBox="0 0 42.666 42.66">
  <path d="M191.667,1120.83h-.5a.489.489,0,0,0,.5.5Zm13.888-27.77v-.5a.5.5,0,0,0-.5.5Zm27.778-13.89h.5a.5.5,0,0,0-.5-.5Zm-41.666,0v-.5a.5.5,0,0,0-.5.5Zm41.666,41.66v.5h.5v-.5Zm-13.889-13.89v.5h.5v-.5Zm-27.424,14.25,13.889-13.89-.707-.71-13.889,13.89Zm14.035-14.25v-13.88h-1v13.88Zm-.5-13.38h13.889v-1H205.555Zm14.243-.15,13.889-13.89-.707-.71-13.889,13.89Zm13.535-14.74H191.667v1h41.666Zm-42.166.5v41.66h1v-41.66Zm41.666,0v41.66h1v-41.66Zm.5,41.16H191.667v1h41.666Zm-14.389-27.27v13.88h1v-13.88Zm.5,13.38H205.555v1h13.889Z" transform="translate(-191.167 -1078.67)" fill="currentColor"/>
</svg>
