<svg xmlns="http://www.w3.org/2000/svg" viewBox="0 0 42.666 42.666">
  <path d="M374.5,450a.5.5,0,0,0,1,0Zm20.833,0A20.332,20.332,0,0,1,375,470.333v1A21.333,21.333,0,0,0,396.333,450ZM375,470.333A20.332,20.332,0,0,1,354.667,450h-1A21.333,21.333,0,0,0,375,471.333ZM354.667,450A20.332,20.332,0,0,1,375,429.667v-1A21.333,21.333,0,0,0,353.667,450ZM375,429.667A20.332,20.332,0,0,1,395.333,450h1A21.333,21.333,0,0,0,375,428.667ZM375.5,450V429.167h-1V450Zm2.472,0A2.972,2.972,0,0,1,375,452.972v1A3.972,3.972,0,0,0,378.972,450ZM375,452.972A2.971,2.971,0,0,1,372.028,450h-1A3.972,3.972,0,0,0,375,453.972ZM372.028,450A2.971,2.971,0,0,1,375,447.028v-1A3.972,3.972,0,0,0,371.028,450ZM375,447.028A2.972,2.972,0,0,1,377.972,450h1A3.972,3.972,0,0,0,375,446.028Z" transform="translate(-353.667 -428.667)" fill="currentColor"/>
</svg>
