<svg xmlns="http://www.w3.org/2000/svg" viewBox="0 0 42.666 42.666">
  <path d="M384.021,119.792h.5V119.5l-.25-.144Zm0,10.416.25.433.25-.144v-.289Zm-18.042,0h-.5v.289l.25.144Zm0-10.416-.25-.433-.25.144v.289Zm8.771-4.776,9.021,5.209.5-.866-9.021-5.209Zm8.771,4.776v10.416h1V119.792Zm.25,9.983-9.021,5.209.5.866,9.021-5.209Zm-8.521,5.209-9.021-5.209-.5.866,9.021,5.209Zm-8.771-4.776V119.792h-1v10.416Zm-.25-9.983,9.021-5.209-.5-.866-9.021,5.209Zm29.1,4.775A20.332,20.332,0,0,1,375,145.333v1A21.333,21.333,0,0,0,396.333,125ZM375,145.333A20.332,20.332,0,0,1,354.667,125h-1A21.333,21.333,0,0,0,375,146.333ZM354.667,125A20.332,20.332,0,0,1,375,104.667v-1A21.333,21.333,0,0,0,353.667,125ZM375,104.667A20.332,20.332,0,0,1,395.333,125h1A21.333,21.333,0,0,0,375,103.667Zm.5,41.166V135.417h-1v10.416Zm0-31.25V104.167h-1v10.416Z" transform="translate(-353.667 -103.667)" fill="currentColor"/>
</svg>
