<svg xmlns="http://www.w3.org/2000/svg" viewBox="0 0 42.667 42.668">
  <path d="M227.233,760.27l.353.353.354-.353-.354-.354ZM212.5,775l-.353.354.353.353.354-.353ZM197.77,760.27l-.354-.354-.353.354.353.353ZM232.835,775A20.334,20.334,0,0,1,212.5,795.335v1A21.335,21.335,0,0,0,233.835,775ZM212.5,795.335A20.334,20.334,0,0,1,192.168,775h-1A21.334,21.334,0,0,0,212.5,796.335ZM192.168,775A20.333,20.333,0,0,1,212.5,754.668v-1A21.333,21.333,0,0,0,191.168,775ZM212.5,754.668A20.333,20.333,0,0,1,232.835,775h1A21.334,21.334,0,0,0,212.5,753.668Zm14.378,5.248-14.731,14.731.707.708,14.731-14.732Zm-14.024,14.731-14.732-14.731-.707.707,14.732,14.732Zm-14.732-14.024a20.338,20.338,0,0,1,6.6-4.408l-.383-.924a21.335,21.335,0,0,0-6.921,4.625Zm6.6-4.408a20.33,20.33,0,0,1,7.781-1.548v-1a21.336,21.336,0,0,0-8.164,1.624Zm7.781-1.548a20.331,20.331,0,0,1,7.782,1.548l.382-.924a21.333,21.333,0,0,0-8.164-1.624Zm7.782,1.548a20.334,20.334,0,0,1,6.6,4.408l.707-.707a21.314,21.314,0,0,0-6.921-4.625Z" transform="translate(-191.168 -753.667)" fill="currentColor"/>
</svg>
