<svg xmlns="http://www.w3.org/2000/svg" viewBox="0 0 42.666 42.663">
  <path d="M300.194,1018.75a6.44,6.44,0,0,1-6.444,6.44v1a7.441,7.441,0,0,0,7.444-7.44Zm-6.444,6.44a6.441,6.441,0,0,1-6.445-6.44h-1a7.442,7.442,0,0,0,7.445,7.44Zm-6.445-6.44a6.441,6.441,0,0,1,6.445-6.44v-1a7.442,7.442,0,0,0-7.445,7.44Zm6.445-6.44a6.44,6.44,0,0,1,6.444,6.44h1a7.442,7.442,0,0,0-7.444-7.44Zm20.333,6.44a20.33,20.33,0,0,1-20.333,20.33v1a21.332,21.332,0,0,0,21.333-21.33Zm-20.333,20.33a20.33,20.33,0,0,1-20.333-20.33h-1a21.332,21.332,0,0,0,21.333,21.33Zm-20.333-20.33a20.333,20.333,0,0,1,20.333-20.333v-1a21.334,21.334,0,0,0-21.333,21.333Zm20.333-20.333a20.333,20.333,0,0,1,20.333,20.333h1a21.334,21.334,0,0,0-21.333-21.333Z" transform="translate(-272.417 -997.417)" fill="currentColor"/>
</svg>
