<svg xmlns="http://www.w3.org/2000/svg" viewBox="0 0 42.666 42.666">
  <path d="M378.667,531.25A3.667,3.667,0,0,1,375,534.917v1a4.668,4.668,0,0,0,4.667-4.667ZM375,534.917a3.667,3.667,0,0,1-3.667-3.667h-1A4.668,4.668,0,0,0,375,535.917Zm-3.667-3.667A3.667,3.667,0,0,1,375,527.583v-1a4.668,4.668,0,0,0-4.667,4.667ZM375,527.583a3.667,3.667,0,0,1,3.667,3.667h1A4.668,4.668,0,0,0,375,526.583Zm12,3.667a12,12,0,0,1-12,12v1a13,13,0,0,0,13-13Zm-12,12a12,12,0,0,1-12-12h-1a13,13,0,0,0,13,13Zm-12-12a12,12,0,0,1,12-12v-1a13,13,0,0,0-13,13Zm12-12a12,12,0,0,1,12,12h1a13,13,0,0,0-13-13Zm20.333,12A20.333,20.333,0,0,1,375,551.583v1a21.333,21.333,0,0,0,21.333-21.333ZM375,551.583a20.333,20.333,0,0,1-20.333-20.333h-1A21.333,21.333,0,0,0,375,552.583ZM354.667,531.25A20.333,20.333,0,0,1,375,510.917v-1a21.333,21.333,0,0,0-21.333,21.333ZM375,510.917a20.333,20.333,0,0,1,20.333,20.333h1A21.333,21.333,0,0,0,375,509.917Z" transform="translate(-353.667 -509.917)" fill="currentColor"/>
</svg>
