<svg xmlns="http://www.w3.org/2000/svg" viewBox="0 0 42.874 44.081">
  <path d="M50,612.5l.354.353.354-.353-.354-.354ZM29.167,633.333h-.5v1.207l.854-.853Zm0-41.666.354-.354-.854-.854v1.208ZM50,633.333h-.5v1.207l.854-.853Zm0-41.666.354-.354-.854-.854v1.208ZM70.833,612.5l.354.353.354-.353-.354-.354Zm-21.187-.354L28.813,632.98l.707.707,20.833-20.834Zm-19.98,21.187V591.667h-1v41.666Zm-.854-41.313,20.833,20.833.707-.707L29.52,591.313ZM50.5,633.333V591.667h-1v41.666Zm-.854-41.313L70.48,612.853l.707-.707L50.353,591.313ZM70.48,612.146,49.646,632.98l.707.707,20.833-20.834Z" transform="translate(-28.667 -590.459)" fill="currentColor"/>
</svg>
