<svg xmlns="http://www.w3.org/2000/svg" viewBox="0 0 42.667 42.666">
  <path d="M29.167,308.333h-.5v.5h.5Zm0-41.666v-.5h-.5v.5Zm41.667,0h.5v-.5h-.5Zm0,41.666v.5h.5v-.5ZM50,287.5l.354-.354L50,286.793l-.354.353ZM29.667,308.333V266.667h-1v41.666Zm-.5-41.166H70.833v-1H29.167Zm41.167-.5v41.666h1V266.667Zm.5,41.166H29.167v1H70.833Zm.354.147L50.353,287.146l-.707.708L70.48,308.687Zm-21.54-20.834L28.813,307.98l.707.707,20.833-20.833Zm21.54,20.834L29.52,266.313l-.707.707L70.48,308.687Zm-.707-41.667L28.813,307.98l.707.707L71.187,267.02Z" transform="translate(-28.667 -266.167)" fill="currentColor"/>
</svg>
