<svg xmlns="http://www.w3.org/2000/svg" viewBox="0 0 42.666 42.666">
  <path d="M383.983,593.7a20.9,20.9,0,0,0-17.966,0m-9.821,9.821a20.9,20.9,0,0,0,0,17.966m37.608,0a20.9,20.9,0,0,0,0-17.966M366.017,631.3a20.89,20.89,0,0,0,17.966,0M370.09,607.589l-4.911,4.911L375,622.321l9.821-9.821L375,602.679Zm0,0-9.821-9.82m29.462,0-9.821,9.82m9.821,19.642-9.821-9.821m-9.82,0-9.821,9.821" transform="translate(-353.667 -591.167)" fill="none" stroke="currentColor" stroke-miterlimit="10" stroke-width="1"/>
</svg>
