{"buffers":[{"uri":"Android-optimised.bin","byteLength":336360}],"asset":{"version":"2.0","generator":"gltfpack 0.18"},"extensionsUsed":["KHR_mesh_quantization","KHR_texture_transform"],"extensionsRequired":["KHR_mesh_quantization"],"bufferViews":[{"buffer":0,"byteOffset":0,"byteLength":114440,"byteStride":8,"target":34962},{"buffer":0,"byteOffset":114440,"byteLength":57220,"byteStride":4,"target":34962},{"buffer":0,"byteOffset":171660,"byteLength":57220,"byteStride":4,"target":34962},{"buffer":0,"byteOffset":228880,"byteLength":107478,"target":34963}],"accessors":[{"bufferView":0,"byteOffset":0,"componentType":5123,"count":1252,"type":"VEC3","min":[1747,8503,296],"max":[10257,13923,2864]},{"bufferView":1,"byteOffset":0,"componentType":5120,"count":1252,"type":"VEC3","normalized":true},{"bufferView":2,"byteOffset":0,"componentType":5123,"count":1252,"type":"VEC2","normalized":true},{"bufferView":3,"byteOffset":0,"componentType":5123,"count":4452,"type":"SCALAR"},{"bufferView":0,"byteOffset":10016,"componentType":5123,"count":131,"type":"VEC3","min":[5591,15243,2356],"max":[6558,15379,2499]},{"bufferView":1,"byteOffset":5008,"componentType":5120,"count":131,"type":"VEC3","normalized":true},{"bufferView":2,"byteOffset":5008,"componentType":5123,"count":131,"type":"VEC2","normalized":true},{"bufferView":3,"byteOffset":8904,"componentType":5123,"count":486,"type":"SCALAR"},{"bufferView":0,"byteOffset":11064,"componentType":5123,"count":2240,"type":"VEC3","min":[4034,0,242],"max":[8104,1470,3191]},{"bufferView":1,"byteOffset":5532,"componentType":5120,"count":2240,"type":"VEC3","normalized":true},{"bufferView":2,"byteOffset":5532,"componentType":5123,"count":2240,"type":"VEC2","normalized":true},{"bufferView":3,"byteOffset":9876,"componentType":5123,"count":6636,"type":"SCALAR"},{"bufferView":0,"byteOffset":28984,"componentType":5123,"count":666,"type":"VEC3","min":[4123,1286,206],"max":[7970,9294,2780]},{"bufferView":1,"byteOffset":14492,"componentType":5120,"count":666,"type":"VEC3","normalized":true},{"bufferView":2,"byteOffset":14492,"componentType":5123,"count":666,"type":"VEC2","normalized":true},{"bufferView":3,"byteOffset":23148,"componentType":5123,"count":3552,"type":"SCALAR"},{"bufferView":0,"byteOffset":34312,"componentType":5123,"count":1146,"type":"VEC3","min":[3672,8627,0],"max":[8353,14693,2932]},{"bufferView":1,"byteOffset":17156,"componentType":5120,"count":1146,"type":"VEC3","normalized":true},{"bufferView":2,"byteOffset":17156,"componentType":5123,"count":1146,"type":"VEC2","normalized":true},{"bufferView":3,"byteOffset":30252,"componentType":5123,"count":4164,"type":"SCALAR"},{"bufferView":0,"byteOffset":43480,"componentType":5123,"count":1522,"type":"VEC3","min":[4122,1278,403],"max":[8004,13466,2864]},{"bufferView":1,"byteOffset":21740,"componentType":5120,"count":1522,"type":"VEC3","normalized":true},{"bufferView":2,"byteOffset":21740,"componentType":5123,"count":1522,"type":"VEC2","normalized":true},{"bufferView":3,"byteOffset":38580,"componentType":5123,"count":5310,"type":"SCALAR"},{"bufferView":0,"byteOffset":55656,"componentType":5123,"count":7348,"type":"VEC3","min":[0,8706,615],"max":[12056,16383,2737]},{"bufferView":1,"byteOffset":27828,"componentType":5120,"count":7348,"type":"VEC3","normalized":true},{"bufferView":2,"byteOffset":27828,"componentType":5123,"count":7348,"type":"VEC2","normalized":true},{"bufferView":3,"byteOffset":49200,"componentType":5123,"count":29139,"type":"SCALAR"}],"samplers":[{"magFilter":9729,"minFilter":9987}],"images":[{"uri":"textures/baseColor.webp"},{"uri":"textures/occlusionRoughnessMetallic.webp"},{"uri":"textures/normal.webp"},{"uri":"textures/baseColor-Android_1_Head_Eyelaches_01.webp"},{"uri":"textures/occlusionRoughnessMetallic-Android_1_Head_Eyelaches_01.webp"},{"uri":"textures/normal-Android_1_Head_Eyelaches_01.webp"},{"uri":"textures/baseColor-Android_1_Sneakers_01.webp"},{"uri":"textures/occlusionRoughnessMetallic-Android_1_Sneakers_01.webp"},{"uri":"textures/normal-Android_1_Sneakers_01.webp"},{"uri":"textures/baseColor-Android_1_Pants_02.webp"},{"uri":"textures/occlusionRoughnessMetallic-Android_1_Pants_02.webp"},{"uri":"textures/normal-Android_1_Pants_02.webp"},{"uri":"textures/baseColor-Android_1_Jacket_02.webp"},{"uri":"textures/occlusionRoughnessMetallic-Android_1_Jacket_02.webp"},{"uri":"textures/normal-Android_1_Jacket_02.webp"},{"uri":"textures/baseColor-Android_1_Pants_01.webp"},{"uri":"textures/occlusionRoughnessMetallic-Android_1_Pants_01.webp"},{"uri":"textures/normal-Android_1_Pants_01.webp"},{"uri":"textures/normal-Android_1_Head_Arms_01.webp"},{"uri":"textures/baseColor.jpg"},{"uri":"textures/occlusionRoughnessMetallic.jpg"},{"uri":"textures/normal.png"},{"uri":"textures/baseColor-Android_1_Head_Eyelaches_01.png"},{"uri":"textures/occlusionRoughnessMetallic-Android_1_Head_Eyelaches_01.jpg"},{"uri":"textures/normal-Android_1_Head_Eyelaches_01.png"},{"uri":"textures/baseColor-Android_1_Sneakers_01.jpg"},{"uri":"textures/occlusionRoughnessMetallic-Android_1_Sneakers_01.jpg"},{"uri":"textures/normal-Android_1_Sneakers_01.png"},{"uri":"textures/baseColor-Android_1_Pants_02.jpg"},{"uri":"textures/occlusionRoughnessMetallic-Android_1_Pants_02.jpg"},{"uri":"textures/normal-Android_1_Pants_02.png"},{"uri":"textures/baseColor-Android_1_Jacket_02.jpg"},{"uri":"textures/occlusionRoughnessMetallic-Android_1_Jacket_02.jpg"},{"uri":"textures/normal-Android_1_Jacket_02.png"},{"uri":"textures/baseColor-Android_1_Pants_01.jpg"},{"uri":"textures/occlusionRoughnessMetallic-Android_1_Pants_01.jpg"},{"uri":"textures/normal-Android_1_Pants_01.png"},{"uri":"textures/normal-Android_1_Head_Arms_01.png"}],"textures":[{"sampler":0,"source":0},{"sampler":0,"source":1},{"sampler":0,"source":2},{"sampler":0,"source":3},{"sampler":0,"source":4},{"sampler":0,"source":5},{"sampler":0,"source":6},{"sampler":0,"source":7},{"sampler":0,"source":8},{"sampler":0,"source":9},{"sampler":0,"source":10},{"sampler":0,"source":11},{"sampler":0,"source":12},{"sampler":0,"source":13},{"sampler":0,"source":14},{"sampler":0,"source":15},{"sampler":0,"source":16},{"sampler":0,"source":17},{"sampler":0,"source":18}],"materials":[{"name":"Android_1_Jacket_01","pbrMetallicRoughness":{"baseColorTexture":{"index":0,"extensions":{"KHR_texture_transform":{"offset":[0.00924873166,0.0114920139],"scale":[15.6750641,15.7791414]}}},"metallicRoughnessTexture":{"index":1,"extensions":{"KHR_texture_transform":{"offset":[0.00924873166,0.0114920139],"scale":[15.6750641,15.7791414]}}}},"normalTexture":{"index":2,"extensions":{"KHR_texture_transform":{"offset":[0.00924873166,0.0114920139],"scale":[15.6750641,15.7791414]}}},"occlusionTexture":{"index":1,"extensions":{"KHR_texture_transform":{"offset":[0.00924873166,0.0114920139],"scale":[15.6750641,15.7791414]}}}},{"name":"Android_1_Head_Eyelaches_01","pbrMetallicRoughness":{"baseColorTexture":{"index":3,"extensions":{"KHR_texture_transform":{"offset":[0.424127996,0.870790005],"scale":[8.47325134,1.87653196]}}},"metallicRoughnessTexture":{"index":4,"extensions":{"KHR_texture_transform":{"offset":[0.424127996,0.870790005],"scale":[8.47325134,1.87653196]}}}},"normalTexture":{"index":5,"extensions":{"KHR_texture_transform":{"offset":[0.424127996,0.870790005],"scale":[8.47325134,1.87653196]}}},"occlusionTexture":{"index":4,"extensions":{"KHR_texture_transform":{"offset":[0.424127996,0.870790005],"scale":[8.47325134,1.87653196]}}}},{"name":"Android_1_Sneakers_01","pbrMetallicRoughness":{"baseColorTexture":{"index":6,"extensions":{"KHR_texture_transform":{"offset":[0.0111793103,0.286462784],"scale":[10.6998882,11.1961384]}}},"metallicRoughnessTexture":{"index":7,"extensions":{"KHR_texture_transform":{"offset":[0.0111793103,0.286462784],"scale":[10.6998882,11.1961384]}}}},"normalTexture":{"index":8,"extensions":{"KHR_texture_transform":{"offset":[0.0111793103,0.286462784],"scale":[10.6998882,11.1961384]}}},"occlusionTexture":{"index":7,"extensions":{"KHR_texture_transform":{"offset":[0.0111793103,0.286462784],"scale":[10.6998882,11.1961384]}}}},{"name":"Android_1_Pants_02","pbrMetallicRoughness":{"baseColorTexture":{"index":9,"extensions":{"KHR_texture_transform":{"offset":[0.00301037496,0.00988197327],"scale":[15.7314405,15.6714268]}}},"metallicRoughnessTexture":{"index":10,"extensions":{"KHR_texture_transform":{"offset":[0.00301037496,0.00988197327],"scale":[15.7314405,15.6714268]}}}},"normalTexture":{"index":11,"extensions":{"KHR_texture_transform":{"offset":[0.00301037496,0.00988197327],"scale":[15.7314405,15.6714268]}}},"occlusionTexture":{"index":10,"extensions":{"KHR_texture_transform":{"offset":[0.00301037496,0.00988197327],"scale":[15.7314405,15.6714268]}}}},{"name":"Android_1_Jacket_02","pbrMetallicRoughness":{"baseColorTexture":{"index":12,"extensions":{"KHR_texture_transform":{"offset":[0.00915211998,0.0199499726],"scale":[15.6950083,15.6252623]}}},"metallicRoughnessTexture":{"index":13,"extensions":{"KHR_texture_transform":{"offset":[0.00915211998,0.0199499726],"scale":[15.6950083,15.6252623]}}}},"normalTexture":{"index":14,"extensions":{"KHR_texture_transform":{"offset":[0.00915211998,0.0199499726],"scale":[15.6950083,15.6252623]}}},"occlusionTexture":{"index":13,"extensions":{"KHR_texture_transform":{"offset":[0.00915211998,0.0199499726],"scale":[15.6950083,15.6252623]}}}},{"name":"Android_1_Pants_01","pbrMetallicRoughness":{"baseColorTexture":{"index":15,"extensions":{"KHR_texture_transform":{"offset":[0.0109243002,0.0118589997],"scale":[15.7017183,15.5344324]}}},"metallicRoughnessTexture":{"index":16,"extensions":{"KHR_texture_transform":{"offset":[0.0109243002,0.0118589997],"scale":[15.7017183,15.5344324]}}}},"normalTexture":{"index":17,"extensions":{"KHR_texture_transform":{"offset":[0.0109243002,0.0118589997],"scale":[15.7017183,15.5344324]}}},"occlusionTexture":{"index":16,"extensions":{"KHR_texture_transform":{"offset":[0.0109243002,0.0118589997],"scale":[15.7017183,15.5344324]}}}},{"name":"Android_1_Head_Arms_01","pbrMetallicRoughness":{"baseColorTexture":{"index":3,"extensions":{"KHR_texture_transform":{"offset":[0.00983673986,0.0106220245],"scale":[15.6545639,15.3138866]}}},"metallicRoughnessTexture":{"index":4,"extensions":{"KHR_texture_transform":{"offset":[0.00983673986,0.0106220245],"scale":[15.6545639,15.3138866]}}}},"normalTexture":{"index":18,"extensions":{"KHR_texture_transform":{"offset":[0.00983673986,0.0106220245],"scale":[15.6545639,15.3138866]}}},"occlusionTexture":{"index":4,"extensions":{"KHR_texture_transform":{"offset":[0.00983673986,0.0106220245],"scale":[15.6545639,15.3138866]}}}}],"meshes":[{"primitives":[{"attributes":{"POSITION":0,"NORMAL":1,"TEXCOORD_0":2},"indices":3,"material":0},{"attributes":{"POSITION":4,"NORMAL":5,"TEXCOORD_0":6},"indices":7,"material":1},{"attributes":{"POSITION":8,"NORMAL":9,"TEXCOORD_0":10},"indices":11,"material":2},{"attributes":{"POSITION":12,"NORMAL":13,"TEXCOORD_0":14},"indices":15,"material":3},{"attributes":{"POSITION":16,"NORMAL":17,"TEXCOORD_0":18},"indices":19,"material":4},{"attributes":{"POSITION":20,"NORMAL":21,"TEXCOORD_0":22},"indices":23,"material":5},{"attributes":{"POSITION":24,"NORMAL":25,"TEXCOORD_0":26},"indices":27,"material":6}]}],"nodes":[{"mesh":0,"translation":[-66.9469604,0,-17.7702675],"scale":[0.0111053353,0.0111053353,0.0111053353]}],"scenes":[{"nodes":[0]}],"scene":0}