<svg viewBox="0 0 179 47" fill="none" xmlns="http://www.w3.org/2000/svg">
<path fill-rule="evenodd" clip-rule="evenodd" d="M42.0806 21.9856C42.0806 27.5256 39.9004 32.8388 36.0196 36.7562C32.1388 40.6737 26.8753 42.8745 21.387 42.8745C15.8987 42.8745 10.6352 40.6737 6.75439 36.7562C2.87358 32.8388 0.693359 27.5256 0.693359 21.9856C0.693359 16.4455 2.87358 11.1323 6.75439 7.21489C10.6352 3.29747 15.8987 1.09668 21.387 1.09668C26.8753 1.09668 32.1388 3.29747 36.0196 7.21489C39.9004 11.1323 42.0806 16.4455 42.0806 21.9856ZM27.9365 18.8313H22.9183L24.5945 9.29557H22.9183L14.4236 23.5C13.7407 24.6698 14.6409 25.0353 14.6409 25.0353L19.7315 25.0667L18.2002 34.5607H19.8039L28.4435 20.0429C28.9919 18.8313 27.9262 18.8313 27.9262 18.8313H27.9365Z" fill="#F3F3F3"/>
<path d="M73.2866 43.8665H74.4972L71.2896 35.7198H70.0066L66.7991 43.8665H67.989L68.8374 41.5896H72.4278L73.2969 43.8665H73.2866ZM70.6171 36.8896L72.0139 40.5451H69.241L70.6171 36.8896ZM77.1459 42.4251C77.2391 43.0623 77.8702 44.044 79.3809 44.044C80.7259 44.044 81.3778 43.104 81.3778 42.3311C81.3778 41.506 80.8605 40.9003 79.8672 40.6809L78.9773 40.4929C78.5635 40.3885 78.3565 40.1587 78.3565 39.8245C78.3565 39.438 78.7187 39.0934 79.267 39.0934C80.1258 39.0934 80.3535 39.72 80.4052 40.002L81.3468 39.6469C81.2329 39.156 80.7673 38.1638 79.267 38.1638C78.191 38.1638 77.3218 38.968 77.3218 39.9185C77.3218 40.6914 77.8392 41.2763 78.6876 41.4643L79.6188 41.6731C80.0741 41.7776 80.3224 42.0387 80.3224 42.3834C80.3224 42.7803 79.9913 43.1145 79.3912 43.1145C78.6152 43.1145 78.1806 42.6549 78.1185 42.0909L77.1459 42.4356V42.4251ZM83.085 40.5347C83.1368 39.8245 83.6851 39.1247 84.575 39.1247C85.5476 39.1247 86.0546 39.7514 86.0856 40.5347H83.085ZM86.2408 41.976C86.0339 42.5923 85.589 43.0831 84.7095 43.0831C83.7783 43.0831 83.0747 42.3938 83.054 41.412H87.172L87.1927 41.0674C87.1927 39.344 86.2615 38.1638 84.5646 38.1638C83.1885 38.1638 81.9469 39.3545 81.9469 41.0883C81.9469 42.9683 83.2402 44.0336 84.6991 44.0336C85.2421 44.0549 85.777 43.8958 86.2218 43.5807C86.6666 43.2657 86.9968 42.812 87.1617 42.2894L86.2408 41.976ZM91.2487 38.2787C91.1866 38.2787 91.0417 38.2474 90.8969 38.2474C90.3381 38.2474 89.6553 38.4563 89.2517 39.3023V38.3414H88.2067V43.8665H89.2724V41.0987C89.2724 39.8767 89.8829 39.3963 90.7831 39.3963L91.2487 39.4276V38.2787ZM96.8877 38.3414H95.7392L94.1561 42.6027L92.6041 38.3414H91.3935L93.6181 43.8665H94.7045L96.8773 38.3309L96.8877 38.3414ZM98.6053 43.8665V38.3309H97.5395V43.8665H98.6053ZM97.3016 36.242C97.3016 36.6703 97.643 37.0149 98.0672 37.0149C98.5018 37.0149 98.8432 36.6703 98.8432 36.2525C98.8432 36.0461 98.762 35.8482 98.6175 35.7023C98.4729 35.5563 98.2768 35.4744 98.0724 35.4744C97.868 35.4744 97.6719 35.5563 97.5273 35.7023C97.3828 35.8482 97.3016 36.0461 97.3016 36.2525V36.242ZM102.371 39.1665C103.303 39.1665 103.696 39.7931 103.83 40.3363L104.803 39.9185C104.575 39.0829 103.82 38.1638 102.361 38.1638C100.809 38.1638 99.6089 39.3754 99.6089 41.0883C99.6089 42.7698 100.788 44.0336 102.382 44.0336C103.799 44.0336 104.586 43.104 104.844 42.3207L103.903 41.9029C103.819 42.2412 103.622 42.5397 103.345 42.7474C103.067 42.9551 102.727 43.059 102.382 43.0414C101.492 43.0414 100.706 42.3625 100.706 41.0987C100.706 39.814 101.502 39.1665 102.361 39.1665H102.371ZM106.386 40.5347C106.427 39.8245 106.976 39.1247 107.876 39.1247C108.849 39.1247 109.356 39.7514 109.376 40.5347H106.376H106.386ZM109.542 41.976C109.335 42.5923 108.89 43.0831 108 43.0831C107.079 43.0831 106.376 42.3938 106.345 41.412H110.473L110.494 41.0674C110.494 39.344 109.552 38.1638 107.866 38.1638C106.49 38.1638 105.248 39.3545 105.248 41.0883C105.248 42.9683 106.531 44.0336 108 44.0336C108.543 44.0549 109.078 43.8958 109.523 43.5807C109.968 43.2657 110.298 42.812 110.463 42.2894L109.531 41.976H109.542ZM115.057 43.8665V43.0623C115.398 43.6576 116.019 44.0127 116.826 44.0127C118.461 44.0127 119.382 42.7176 119.382 41.0778C119.382 39.4694 118.523 38.1847 116.857 38.1847C115.947 38.1847 115.305 38.6234 115.057 39.1247V35.5527H113.991V43.8665H115.057ZM118.285 41.0778C118.285 42.2685 117.643 43.0518 116.671 43.0518C115.729 43.0518 115.036 42.2685 115.036 41.0674C115.036 39.8767 115.729 39.1351 116.671 39.1351C117.654 39.1351 118.285 39.8767 118.285 41.0778ZM121.534 46.1747L125.093 38.3414H123.945L122.299 42.1536L120.592 38.3414H119.361L121.72 43.2503L120.354 46.1747H121.534ZM134.26 35.7303H132.936L130.867 38.9158L128.828 35.7198H127.483L130.215 39.7931L127.452 43.8665H128.766L130.846 40.6809L132.884 43.8665H134.219L131.508 39.7931L134.25 35.7198L134.26 35.7303ZM142.486 42.164L140.417 35.7198H139.248L137.22 42.0909L135.44 35.7198H134.302L136.63 43.8665H137.747L139.817 37.2551L141.927 43.8665H143.076L145.383 35.7198H144.235L142.486 42.164ZM147.339 39.5216V36.7329H148.953C149.915 36.7329 150.505 37.2865 150.505 38.1429C150.505 38.9785 149.915 39.5216 148.953 39.5216H147.339ZM149.149 40.5347C150.65 40.5347 151.643 39.5111 151.643 38.1325C151.643 36.7747 150.65 35.7303 149.16 35.7303H146.221V43.8665H147.328V40.5347H149.149ZM79.6602 25.0665H83.3851L76.67 7.29004H72.6968L65.9507 25.0665H69.5721L71.0413 21.0036H78.191L79.6706 25.0665H79.6602ZM74.6213 11.1336L77.0528 17.8494H72.1898L74.6213 11.1336ZM105.279 25.0665V7.29004H100.613L95.4391 20.1367L90.1622 7.29004H85.6303V25.0665H88.9103V12.7107L93.9802 25.0665H96.8359L101.906 12.6063V25.0665H105.279ZM112.749 15.3949V10.298H115.46C117.178 10.298 118.212 11.2798 118.212 12.8569C118.212 14.3923 117.178 15.3949 115.46 15.3949H112.749ZM115.884 18.3716C119.361 18.3716 121.679 16.0738 121.679 12.836C121.679 9.62959 119.361 7.30048 115.884 7.30048H109.304V25.0665H112.729V18.382H115.884V18.3716ZM127.763 25.0665V7.29004H124.286V25.0665H127.763ZM144.597 25.0665V21.7556H135.161L144.473 10.5278V7.29004H131.063V10.58H139.899L130.742 21.7034V25.0665H144.597ZM158.689 25.0665V21.8078H151.095V17.6927H157.975V14.622H151.095V10.5487H158.689V7.29004H147.67V25.0665H158.689ZM165.549 21.86V10.5069H168.301C171.188 10.5069 173.568 12.3347 173.568 16.1887C173.568 20.0531 171.157 21.86 168.281 21.86H165.549ZM168.405 25.0665C173.423 25.0665 177.117 21.8078 177.117 16.1887C177.117 10.58 173.444 7.29004 168.426 7.29004H162.114V25.0665H168.405Z" fill="#F3F3F3"/>
</svg>
