<svg viewBox="0 0 56 88" fill="none" xmlns="http://www.w3.org/2000/svg">
<path fill-rule="evenodd" clip-rule="evenodd" d="M27.4471 26.073C36.2992 30.2687 47.4571 27.6785 52.906 25.9883V66.9847C53.1276 76.5119 46.6248 79.7214 40.2848 81.1527C35.8159 82.1605 32.3405 83.0704 27.4471 85.4165C22.5519 83.0704 19.0782 82.1605 14.6093 81.1527C8.26764 79.7214 1.76654 76.5119 1.98805 66.9847V25.9883C7.43695 27.6785 18.5932 30.2687 27.4471 26.073V26.073ZM51.9176 27.2933V66.9847C52.213 75.1405 47.0292 78.5426 40.2848 80.1415C36.0878 81.1344 32.4798 81.943 27.4471 84.3373C22.4127 81.943 18.8063 81.1344 14.6093 80.1415C7.86321 78.5426 2.67944 75.1404 2.97479 66.9847V27.2933C7.59638 28.6482 18.6234 31.1504 27.4471 27.1439C36.2707 31.1504 47.296 28.6482 51.9176 27.2933V27.2933Z" fill="#f3f3f3"/>
<path fill-rule="evenodd" clip-rule="evenodd" d="M27.447 23.9311C36.5811 28.6964 48.2156 25.5002 54.8694 23.3799L54.8744 66.9648C55.2772 77.8585 46.9637 81.7621 40.221 83.1701C35.8796 84.0766 32.3404 85.229 27.447 87.5784C22.5519 85.2289 19.0144 84.0766 14.673 83.1701C7.93029 81.7621 -0.383043 77.8585 0.0178674 66.9648L0.0245709 23.3799C6.67671 25.5002 18.3112 28.6964 27.447 23.9311V23.9311ZM53.8852 24.6846C47.6408 26.7634 36.1624 29.3735 27.4462 25.0017C18.7316 29.3735 7.25483 26.7634 1.00712 24.6846L1.00208 66.9811C0.711773 76.9898 8.06536 80.739 14.6739 82.1569C19.0085 83.0884 22.551 84.1494 27.4461 86.4971C32.3413 84.1494 35.8855 83.0884 40.2201 82.1569C46.8286 80.739 54.1805 76.9898 53.8902 66.9811L53.8852 24.6846V24.6846Z" fill="#f3f3f3"/>
<path fill-rule="evenodd" clip-rule="evenodd" d="M7.92271 39.5749L10.3157 41.3349L10.7688 40.7339L11.3142 41.1357L10.4315 42.3112L7.48975 40.1494L7.92271 39.5749ZM11.4704 35.7901L12.0544 35.3036L15.0868 37.5152L14.4961 38.0084L13.996 37.6282L13.4339 38.0947L13.7309 38.646L13.1805 39.1042L11.4704 35.7901V35.7901ZM13.5429 37.2612L13.1536 37.5883L12.6435 36.7498L12.3464 36.2799L12.3531 36.2749L12.7727 36.6402L13.543 37.2612H13.5429ZM17.4396 33.1322C17.5604 33.3779 17.5 33.612 17.255 33.7316L16.8606 32.9363C17.1039 32.8018 17.3221 32.8948 17.4396 33.1322L17.4396 33.1322ZM18.1914 35.6593L17.5587 35.9681L15.9427 32.7138L16.5787 32.4033C16.8321 32.2804 17.0553 32.1841 17.3473 32.2505C17.651 32.3169 17.9128 32.5494 18.0471 32.82C18.1931 33.1089 18.1931 33.3812 18.0286 33.6652C18.3642 33.6635 18.6697 33.9424 18.8106 34.223C19.1295 34.8673 18.7854 35.372 18.1914 35.6593V35.6593ZM18.1326 34.4621C18.2669 34.7345 18.2082 34.9985 17.9413 35.1114L17.5034 34.2314C17.7567 34.0969 18.0068 34.2064 18.1326 34.4621V34.4621ZM22.5408 30.2938C23.1734 30.1643 23.9051 30.5345 24.1854 31.8661C24.4639 33.1994 23.9403 33.827 23.3077 33.9566C22.6733 34.0861 21.9417 33.7158 21.6614 32.3825C21.3829 31.0509 21.9081 30.4233 22.5408 30.2938V30.2938ZM22.4199 32.2281C22.3545 31.9126 22.2051 31.0409 22.6767 30.943C23.1466 30.8483 23.363 31.7068 23.4285 32.0222C23.4889 32.3045 23.6433 33.2094 23.1718 33.3057C22.7002 33.4037 22.4804 32.5104 22.4199 32.2281V32.2281ZM28.2886 33.4825L27.5653 33.446L27.7465 29.8247L28.4748 29.8612C28.9363 29.8845 29.7586 29.9725 29.7099 30.9621C29.6898 31.3589 29.5119 31.6926 29.1427 31.8719L29.6965 33.5506L28.9346 33.5141L28.3825 31.8105H28.3725L28.2886 33.4825V33.4825ZM28.4413 30.4507L28.5386 30.4573C28.9028 30.454 29.0186 30.6715 29.0051 30.9322C28.99 31.2294 28.8491 31.4436 28.5185 31.427L28.3926 31.417L28.4413 30.4507V30.4507ZM34.4096 30.8086L35.1379 31.0311L34.8962 34.752L34.1578 34.5262L34.2099 33.9036L33.5084 33.6877L33.2013 34.234L32.5149 34.0231L34.4096 30.8086V30.8086ZM34.277 33.3291L33.7887 33.1813L34.2266 32.303L34.4649 31.8015L34.4733 31.8049L34.3877 32.3528L34.277 33.3291L34.277 33.3291ZM42.9603 35.245L41.4399 37.0449C41.262 37.2557 40.9684 37.5513 41.2704 37.802C41.5423 38.0261 41.7135 37.8236 41.893 37.6194L43.5124 35.7016L44.0679 36.1599L42.3545 38.1905C42.1061 38.4861 41.648 38.9593 40.8459 38.2968C40.3273 37.8684 40.2199 37.3736 40.6596 36.8523L42.4049 34.7851L42.9603 35.245V35.245ZM47.7863 40.404L47.2409 40.8041L46.8986 40.3492L44.5005 42.1075L44.0692 41.5314L46.4673 39.773L46.13 39.3214L46.6754 38.9196L47.7863 40.404ZM46.9153 68.6636C46.6989 69.4074 45.3564 73.9984 45.108 74.8502C33.8762 70.5797 23.4533 70.5996 10.5351 74.9199C10.5904 73.8705 10.7499 70.8868 10.7499 70.8868C10.7499 70.8868 9.35868 69.424 8.70925 68.7416C20.7113 64.1258 34.8915 64.0893 46.9154 68.6636H46.9153ZM14.0229 72.2253L13.3231 72.4046L12.4085 68.8929L13.115 68.7136C13.5631 68.599 14.3753 68.4429 14.6237 69.4026C14.7244 69.7878 14.6539 70.1581 14.3569 70.4387L15.3872 71.8782L14.6489 72.0659L13.6118 70.6031L13.6017 70.6047L14.0229 72.2253V72.2253ZM13.2594 69.2881L13.5044 70.2229L13.6252 70.1963C13.9457 70.1149 14.0179 69.8692 13.944 69.5803C13.8769 69.3296 13.7007 69.1552 13.3533 69.2632L13.2594 69.2881V69.2881ZM17.5019 67.7499L17.6311 68.4107L16.9095 68.5502L17.0622 69.3239L17.6982 69.2027L17.8274 69.8635L17.1914 69.9847L17.3491 70.7867L18.0791 70.6472L18.2083 71.3081L16.7685 71.5837L16.0704 68.0238L17.5018 67.7499H17.5019ZM21.6782 70.2652L22.034 70.5391L21.7051 70.941L21.3846 70.677C21.2134 70.8496 21.0053 70.9493 20.7502 70.9808C20.1092 71.0655 19.406 70.6421 19.2265 69.2939C19.0486 67.944 19.6175 67.3562 20.2585 67.2749C20.8996 67.1902 21.6027 67.6119 21.7806 68.9618C21.8377 69.3869 21.8477 69.88 21.6782 70.2652ZM20.6646 69.4466L21.0389 69.7621C21.0691 69.5496 21.0506 69.3337 21.0137 69.0614C20.9717 68.741 20.8241 67.8693 20.3458 67.9307C19.8692 67.9938 19.9514 68.8738 19.9934 69.1942C20.032 69.4798 20.1847 70.3864 20.663 70.325C20.7284 70.3166 20.7754 70.2901 20.8274 70.2403L20.3408 69.8518L20.6646 69.4466H20.6646ZM23.8309 66.9756L23.982 69.3168C24.0004 69.5907 23.992 70.0058 24.3847 69.9809C24.7388 69.9577 24.7204 69.6937 24.7103 69.4264L24.5492 66.9308L25.2708 66.8827L25.4419 69.5243C25.4671 69.9079 25.4638 70.5621 24.4216 70.6285C23.7487 70.6717 23.3258 70.3844 23.2822 69.707L23.1077 67.0205L23.8309 66.9757L23.8309 66.9756ZM27.6569 66.8324L27.7006 70.4586L26.9773 70.4669L26.9336 66.8407L27.6569 66.8324ZM30.7781 66.8905L30.7563 67.5646L30.0229 67.5397L29.9944 68.3267L30.6405 68.35L30.6187 69.0224L29.9726 69.0008L29.9457 69.8177L30.6875 69.8426L30.6656 70.5167L29.199 70.4669L29.3198 66.8423L30.7781 66.8905V66.8905ZM33.8227 67.9309C33.6885 67.7931 33.519 67.6735 33.321 67.6552C33.0978 67.6353 32.9451 67.7582 32.9266 67.979C32.8729 68.5718 33.9704 68.7013 33.8831 69.6792C33.8261 70.3202 33.4099 70.7718 32.7336 70.7137C32.5306 70.6954 32.2839 70.6124 32.1295 70.4762L32.1899 69.7971C32.3493 69.9283 32.5054 70.0196 32.7202 70.0362C32.9518 70.0562 33.1498 69.92 33.1716 69.6809C33.1951 69.402 32.982 69.2774 32.7907 69.1164C32.3997 68.8009 32.1664 68.5103 32.2134 67.984C32.2637 67.4145 32.6396 66.9512 33.2606 67.0044C33.4938 67.0226 33.6952 67.104 33.8848 67.2368L33.8227 67.9309V67.9309ZM37.4045 68.254C37.3173 68.2158 37.2317 68.1909 37.1411 68.1776C36.5101 68.0879 36.1543 68.6143 36.0738 69.1655C35.9949 69.6985 36.1728 70.3959 36.7987 70.4839C36.8894 70.4988 36.9833 70.4872 37.0807 70.4722L36.9817 71.1414C36.8692 71.1713 36.7568 71.1729 36.641 71.1563C35.6073 71.0085 35.1709 70.004 35.3086 69.0609C35.4378 68.171 36.1678 67.3424 37.1444 67.4836C37.2703 67.5018 37.3861 67.5417 37.5002 67.6014L37.4045 68.254ZM39.6638 67.9747L40.4106 68.1291L40.5214 71.855L39.7645 71.6989L39.7595 71.073L39.0395 70.9252L38.7845 71.498L38.0813 71.3502L39.6638 67.9747V67.9747ZM39.7712 70.4951L39.7897 69.5139L39.8216 68.9593L39.8132 68.9576L39.6235 69.479L39.2728 70.3939L39.7712 70.4951ZM43.9478 69.8496C43.842 69.6902 43.696 69.5424 43.5047 69.4893C43.2899 69.4312 43.1188 69.5225 43.0583 69.7367C42.8972 70.3112 43.9511 70.6333 43.6877 71.5797C43.5148 72.2007 43.0231 72.5693 42.3686 72.3916C42.1706 72.3368 41.9441 72.2107 41.8165 72.0513L42.0028 71.3938C42.1354 71.5498 42.273 71.6677 42.4794 71.7242C42.7043 71.7839 42.9224 71.6843 42.9879 71.4535C43.0634 71.1829 42.8754 71.0235 42.7177 70.8309C42.3904 70.4523 42.2142 70.1252 42.3552 69.6155C42.5079 69.0642 42.966 68.6741 43.5651 68.8368C43.79 68.8982 43.9746 69.0144 44.1357 69.1772L43.9478 69.8496V69.8496ZM16.0806 63.5822C17.2301 62.8748 18.0575 61.867 18.2907 60.8791C18.3159 60.7678 18.3327 60.6566 18.3427 60.5453C19.6114 62.2655 21.3617 63.6137 23.3973 64.3991C19.9974 64.6697 16.6327 65.2459 13.3755 66.1259C12.7395 65.402 12.1571 64.6299 11.6369 63.8146C11.9004 64.067 12.2444 64.248 12.6539 64.3426C13.649 64.5734 14.9311 64.2895 16.0806 63.5822V63.5822Z" fill="#f3f3f3"/>
<path fill-rule="evenodd" clip-rule="evenodd" d="M27.4996 35.4038C37.8335 35.4038 46.2427 43.7223 46.2427 53.9486C46.2427 58.5212 44.5595 62.7104 41.7771 65.9464C38.5081 65.108 35.1368 64.575 31.7368 64.3459C35.8936 62.6822 38.8354 58.6491 38.8354 53.9486C38.8354 47.7653 33.7489 42.7327 27.4996 42.7327C21.2485 42.7327 16.1638 47.7653 16.1638 53.9486C16.1638 55.6123 16.5329 57.1896 17.1925 58.6126C17.0666 58.5578 16.929 58.5146 16.7847 58.4797C15.9943 58.2971 15.0243 58.4399 14.0812 58.86L13.7254 58.1144L12.784 58.5561L13.17 59.3597C12.1178 60.0588 11.3677 61.0101 11.1478 61.9416C11.0572 62.3235 11.0622 62.6855 11.1545 63.0142C9.62742 60.331 8.75647 57.2394 8.75647 53.9486C8.75647 43.7223 17.1639 35.4038 27.4996 35.4038H27.4996ZM25.7644 38.576H27.3469L27.8352 37.1049L28.3034 38.576H29.9496L28.6625 39.5622L29.1861 41.1462L27.8436 40.145L26.4541 41.0649L27.0062 39.5074L25.7644 38.576V38.576ZM18.3656 41.7926L19.5873 40.798L19.0184 39.3552L20.3257 40.197L21.5977 39.1592L21.2369 40.7316L22.66 41.6232L20.9802 41.6963L20.4985 43.2803L19.923 41.7312L18.3656 41.7926H18.3656ZM33.6865 42.2974L34.9065 41.3011L34.3376 39.8583L35.6466 40.7001L36.9169 39.6657L36.5561 41.2347L37.9792 42.128L36.2977 42.1994L35.8177 43.7834L35.2421 42.2343L33.6865 42.2974H33.6865ZM13.3678 48.1376L13.8243 46.6382L12.5405 45.7516L14.0995 45.73L14.571 44.1709L15.1567 45.6752L16.8399 45.6337L15.4856 46.6183L15.974 48.199L14.6264 47.2277L13.3678 48.1376ZM39.1274 48.2915L39.5821 46.7922L38.2984 45.9072L39.8574 45.8856L40.3306 44.3248L40.9146 45.8292L42.5977 45.7876L41.2435 46.7723L41.7335 48.3546L40.386 47.3833L39.1274 48.2915V48.2915ZM12.3302 55.4871L11.9728 53.9612L10.4138 53.8234L11.758 53.0397L11.3854 51.4524L12.6474 52.4718L14.0889 51.6101L13.4059 53.1293L14.6242 54.26L12.9679 54.0791L12.3302 55.4871V55.4871ZM42.3162 55.6055L41.9604 54.0796L40.4014 53.9418L41.7439 53.1564L41.3747 51.5691L42.635 52.5902L44.0765 51.7268L43.3935 53.2477L44.6119 54.3784L42.9538 54.1974L42.3162 55.6055V55.6055Z" fill="#f3f3f3"/>
<path fill-rule="evenodd" clip-rule="evenodd" d="M17.2758 60.6456C17.1064 61.3612 16.4384 62.1499 15.5323 62.7061C14.626 63.264 13.6124 63.5065 12.8909 63.3404C12.5854 63.269 12.3656 63.1312 12.2414 62.932C12.1172 62.7344 12.0904 62.4803 12.1609 62.1765C12.3136 61.5389 12.8607 60.8432 13.6225 60.3052L13.8776 60.8416L14.819 60.3999L14.5287 59.7905C15.2537 59.4734 15.987 59.3538 16.5475 59.4833C16.8546 59.5547 17.0711 59.6909 17.197 59.8885C17.3211 60.0877 17.348 60.3418 17.2758 60.6456V60.6456ZM13.7836 21.9142L17.2221 18.5121H20.1438L16.712 21.9075L13.7836 21.9142ZM19.2246 21.9142L22.6615 18.5121H25.5848L22.153 21.9075L19.2246 21.9142ZM24.6655 21.9142L28.104 18.5121H31.0256L27.5938 21.9075L24.6655 21.9142ZM30.107 21.9142L33.5455 18.5121H36.4671L33.0354 21.9075L30.107 21.9142ZM35.5474 21.9142L38.9859 18.5121H41.9092L38.4774 21.9075L35.5474 21.9142ZM10.9699 21.9105C10.0218 21.9105 9.25317 21.1517 9.25317 20.2136C9.25317 19.2738 10.0218 18.5134 10.9699 18.5134H14.4755L11.0437 21.9105H10.9699ZM44.2404 18.5129C45.1886 18.5129 45.9588 19.2717 45.9588 20.2114C45.9588 21.1496 45.1886 21.91 44.2404 21.91H40.7365L44.1683 18.5129H44.2404V18.5129ZM33.7583 59.9058C33.4109 60.0319 32.5031 60.1913 30.6571 59.5322C29.3767 59.0789 28.4017 59.3346 27.7909 59.6467V48.8875L27.8244 48.8543C27.8613 48.8161 28.7407 47.9328 30.3064 48.489C32.0063 49.095 33.0921 49.105 33.7583 48.9655V59.9058V59.9058ZM24.2332 59.5322C22.3873 60.1913 21.4777 60.0319 21.1303 59.9058V48.9655C21.7982 49.105 22.884 49.095 24.5856 48.489C26.1496 47.9328 27.029 48.8161 27.0642 48.8543L27.0978 48.8875V59.6467C26.4886 59.3346 25.5136 59.0789 24.2332 59.5322L24.2332 59.5322ZM33.9362 47.8082C33.9731 47.775 34.7988 47.0329 34.7988 47.0329V60.4271L34.641 60.5782C34.4564 60.7575 33.3723 61.5944 30.3064 60.5035C28.7407 59.9473 27.8613 60.8306 27.8244 60.8688L27.4418 61.2556L27.0642 60.8688C27.029 60.8306 26.1496 59.9473 24.5856 60.5035C21.518 61.5944 20.4339 60.7575 20.2476 60.5782L20.0899 60.4271L20.1016 47.0445L20.9541 47.8082C20.9659 47.8166 21.7613 48.3977 24.2332 47.5193C25.7939 46.9648 26.9014 47.4662 27.4452 47.8381C27.9889 47.4662 29.0948 46.9648 30.6571 47.5193C33.1324 48.401 33.9278 47.8149 33.9362 47.8082V47.8082ZM36.3171 6.77085C36.3171 6.77085 31.4572 10.4918 30.9286 10.8952C31.1367 11.5278 33.1522 17.6164 33.1522 17.6164C33.1522 17.6164 27.9936 13.771 27.4549 13.3675C26.8927 13.7395 21.6385 17.2163 21.6385 17.2163C21.6385 17.2163 23.7177 11.3502 23.9459 10.7059C23.4022 10.2992 18.6967 6.77085 18.6967 6.77085H25.369C25.5804 6.12995 27.4515 0.486328 27.4515 0.486328C27.4515 0.486328 29.2488 6.1233 29.4552 6.77085H36.3171V6.77085ZM31.0288 14.6789L29.6477 10.508C29.6477 10.508 31.8259 8.83935 33.1164 7.85142H28.6526C28.6526 7.85142 27.9092 5.51528 27.4309 4.01762C26.9358 5.51362 26.1605 7.85142 26.1605 7.85142H21.9501C23.2087 8.79618 25.2409 10.3204 25.2409 10.3204C25.2409 10.3204 24.3079 12.9538 23.7558 14.5145C25.1469 13.593 27.4913 12.0422 27.4913 12.0422C27.4913 12.0422 29.6729 13.6677 31.0288 14.6789Z" fill="#f3f3f3"/>
<path fill-rule="evenodd" clip-rule="evenodd" d="M21.825 51.2304V50.7821C21.825 50.7821 23.3 50.7024 24.1207 50.4184C24.9396 50.1345 25.4934 49.9104 26.2099 50.4184V51.0261C26.2099 51.0261 25.777 50.1943 24.2431 50.8236C23.1557 51.2702 21.825 51.2304 21.825 51.2304ZM21.825 52.9337V52.4871C21.825 52.4871 23.3 52.4074 24.1207 52.1218C24.9396 51.8396 25.4934 51.6137 26.2099 52.1218V52.7312C26.2099 52.7312 25.777 51.8977 24.2431 52.5286C23.1557 52.9753 21.825 52.9337 21.825 52.9337ZM21.825 54.637V54.192C21.825 54.192 23.3 54.1106 24.1207 53.8267C24.9396 53.5428 25.4934 53.3186 26.2099 53.8267V54.4344C26.2099 54.4344 25.777 53.6025 24.2431 54.2318C23.1557 54.6785 21.825 54.637 21.825 54.637V54.637ZM21.825 56.3415V55.8949C21.825 55.8949 23.3 55.8135 24.1207 55.5312C24.9396 55.2457 25.4934 55.0232 26.2099 55.5312V56.1389C26.2099 56.1389 25.777 55.3054 24.2431 55.9364C23.1557 56.3814 21.825 56.3415 21.825 56.3415V56.3415ZM21.825 58.0459V57.5992C21.825 57.5992 23.3 57.5179 24.1207 57.2356C24.9396 56.9517 25.4934 56.7276 26.2099 57.2356V57.8417C26.2099 57.8417 25.777 57.0081 24.2431 57.6407C23.1557 58.0857 21.825 58.0459 21.825 58.0459V58.0459ZM33.0997 51.2304C33.0997 51.2304 31.7656 51.2702 30.6781 50.8236C29.1443 50.1943 28.7114 51.0261 28.7114 51.0261V50.4185C29.4279 49.9104 29.9834 50.1345 30.8023 50.4185C31.6229 50.7024 33.0997 50.7821 33.0997 50.7821V51.2304ZM33.0997 52.9337C33.0997 52.9337 31.7656 52.9753 30.6781 52.5286C29.1443 51.8977 28.7114 52.7312 28.7114 52.7312V52.1218C29.4279 51.6137 29.9834 51.8396 30.8023 52.1218C31.6229 52.4074 33.0997 52.4871 33.0997 52.4871V52.9337ZM33.0997 54.637C33.0997 54.637 31.7656 54.6785 30.6781 54.2318C29.1443 53.6025 28.7114 54.4344 28.7114 54.4344V53.8267C29.4279 53.3186 29.9834 53.5428 30.8023 53.8267C31.6229 54.1106 33.0997 54.192 33.0997 54.192V54.637V54.637ZM33.0997 56.3415C33.0997 56.3415 31.7656 56.3814 30.6781 55.9364C29.1443 55.3054 28.7114 56.1389 28.7114 56.1389V55.5313C29.4279 55.0232 29.9834 55.2457 30.8023 55.5313C31.6229 55.8135 33.0997 55.8949 33.0997 55.8949V56.3415V56.3415ZM33.0997 58.0459C33.0997 58.0459 31.7656 58.0857 30.6781 57.6408C29.1443 57.0081 28.7114 57.8417 28.7114 57.8417V57.2356C29.4279 56.7276 29.9834 56.9517 30.8023 57.2356C31.6229 57.5179 33.0997 57.5992 33.0997 57.5992V58.0459Z" fill="#f3f3f3"/>
</svg>
