<svg viewBox="0 0 169 67" fill="none" xmlns="http://www.w3.org/2000/svg">
<g clip-path="url(#clip0_32_770)">
<path d="M68.8794 9.85355C69.3571 9.77515 69.8349 9.70981 70.3127 9.6706C70.3127 9.59219 70.3127 9.52685 70.3127 9.44844C70.1667 6.11609 67.3266 3.52861 63.9689 3.64622C60.6112 3.78997 57.9967 6.62574 58.1427 9.9581C58.1825 10.8337 58.3948 11.67 58.8062 12.428C61.7658 11.3041 65.1501 10.3893 68.8794 9.85355V9.85355ZM72.0778 5.31893C71.4142 5.46268 71.0028 6.11609 71.1621 6.76949C71.3213 7.42289 71.9318 7.85414 72.5954 7.71039C73.259 7.56664 73.6704 6.91324 73.5111 6.25984C73.405 5.60643 72.7414 5.17519 72.0778 5.31893ZM56.0192 9.89276C55.4618 9.52685 54.6921 9.6706 54.3205 10.2587C53.9489 10.8467 54.0948 11.5655 54.6921 11.9314C55.2495 12.2973 56.0192 12.1535 56.3908 11.5655C56.7492 11.0166 56.6032 10.2456 56.0192 9.89276ZM70.6445 2.05192C70.0871 1.68601 69.3173 1.82976 68.9457 2.41782C68.5741 2.99282 68.7201 3.72463 69.3173 4.09054C69.8747 4.45644 70.6445 4.31269 71.0161 3.72463C71.3479 3.13657 71.2019 2.41782 70.6445 2.05192ZM56.4572 5.71098C55.8998 5.34507 55.13 5.48882 54.7584 6.07688C54.3868 6.65188 54.5328 7.38369 55.13 7.7496C55.6874 8.1155 56.4572 7.97175 56.8288 7.38369C57.2004 6.79563 57.0146 6.07688 56.4572 5.71098ZM66.8886 0.196252C66.3312 -0.169654 65.5615 -0.0259052 65.1899 0.562158C64.8183 1.13715 64.9642 1.86896 65.5615 2.23487C66.1189 2.60078 66.8886 2.45703 67.2602 1.86896C67.6186 1.32011 67.4328 0.562158 66.8886 0.196252ZM58.8195 2.30021C58.2621 1.9343 57.4924 2.07805 57.1208 2.66612C56.7492 3.25418 56.8951 3.97292 57.4924 4.33883C58.0498 4.70474 58.8195 4.56099 59.1911 3.97292C59.5495 3.42406 59.4035 2.66612 58.8195 2.30021ZM62.9072 1.90817C62.5356 2.48316 61.8056 2.63998 61.2084 2.27407C60.651 1.90817 60.4652 1.15022 60.8368 0.601362C61.2084 0.026367 61.9383 -0.13045 62.5356 0.235456C63.1328 0.601362 63.2788 1.35931 62.9072 1.90817Z" fill="#f3f3f3"/>
<path d="M99.5367 13.3294C98.2096 12.6368 86.5704 7.01757 68.3618 9.59198C51.7458 11.9442 42.5619 21.889 42.0178 22.5816C41.1684 23.418 41.978 24.1106 42.6415 23.6402C46.7292 20.6998 55.5017 15.3289 69.835 13.3033C85.4291 11.0948 99.7225 14.388 99.7225 14.388C100.121 14.5317 100.718 13.9175 99.5367 13.3294" fill="#f3f3f3"/>
<path d="M104.806 17.5113C92.901 15.0414 84.9115 16.5704 79.3772 17.8772C77.5325 18.3084 77.8643 19.3669 79.4834 19.2885C82.8677 19.1056 93.1133 19.3669 103.439 21.1442C113.273 22.8561 121.315 25.8618 125.323 27.7436C125.881 28.0311 126.319 27.4169 125.801 26.9856C122.682 24.0322 115.197 19.6806 104.806 17.5113Z" fill="#f3f3f3"/>
<path d="M24.2869 40.1844V37.0612C24.2869 35.5322 23.1455 34.3822 21.3804 34.3822H19.1641V37.1788V57.9309H24.2471V44.5753C24.2471 40.3282 27.127 38.0805 30.1795 38.3288C32.4622 38.5117 34.6387 38.5771 35.7402 34.0424C29.622 33.5066 25.6804 36.2248 24.2869 40.1844" fill="#f3f3f3"/>
<path d="M99.4968 57.5649V41.9225C99.4968 36.6952 95.2233 33.6504 90.8304 33.6504C88.1363 33.6504 85.1502 34.7089 83.4913 36.9174V24.6465C83.4913 23.1567 82.3897 21.9937 80.6511 21.9937H78.4746V57.5519H83.5178V42.8372C83.5178 38.956 86.8755 36.9958 89.2644 36.9958C92.0647 36.9958 94.4668 39.1782 94.4668 42.1838V57.5649H99.4968Z" fill="#f3f3f3"/>
<path d="M40.6109 42.1839C40.8631 41.06 41.2347 39.9754 41.8584 38.9953C42.7078 37.6885 44.0748 36.6692 45.6541 36.4862C47.1671 36.3033 48.68 36.9567 49.6754 38.0805C50.6707 39.2044 51.1087 40.7333 50.9627 42.1839C49.1976 42.1839 42.9998 42.1839 40.6109 42.1839ZM47.6448 34.0163C44.6189 33.7942 41.5665 34.7743 39.2837 36.6953C36.6692 38.9038 35.2359 42.2492 35.0501 45.6208C34.8643 48.7441 35.7933 51.9327 37.7708 54.3241C38.806 55.5917 40.1597 56.611 41.6726 57.3037C44.4331 58.532 47.8572 58.5713 50.6973 57.5519C52.2102 57.0031 53.6038 56.1667 54.7451 55.0821C55.2627 54.6116 55.7405 53.8145 55.2627 53.2656C55.0105 52.9389 54.4929 52.8997 54.0815 53.0173C53.6701 53.1349 53.3383 53.4224 52.98 53.6315C50.9893 54.9383 48.3349 55.265 46.0522 54.5071C43.7695 53.7491 41.885 51.9719 40.9692 49.7895C40.3057 48.2344 40.1199 46.4833 40.226 44.7844H56.3244C56.4306 42.0663 55.8865 39.1652 54.0815 37.0612C52.5553 35.2186 50.0868 34.1993 47.6448 34.0163Z" fill="#f3f3f3"/>
<path d="M72.4892 44.4707C71.4938 43.7781 70.3524 43.4122 69.2509 43.0593C67.4858 42.4843 65.0438 41.8309 64.1679 40.0537C63.8361 39.4003 63.7565 38.5639 64.0883 37.9105C64.9775 36.0549 67.7379 36.1333 69.4367 36.5253C70.6179 36.8128 71.5336 37.61 72.675 38.0151C73.0067 38.1196 73.4447 38.0543 73.7101 37.7929C74.1216 37.3225 73.6703 36.5906 73.2324 36.1202C71.2416 34.2384 68.2157 33.6111 65.5614 34.1992C62.8407 34.7742 60.5182 36.6691 59.8546 39.348C59.4167 41.1645 59.7087 43.2292 61.0756 44.6144C61.925 45.5161 63.0265 46.1434 64.1679 46.6792C65.8667 47.4763 67.6716 48.1297 69.1447 49.2144C70.6975 50.3775 71.5071 52.7297 69.9543 54.2195C68.9589 55.1996 67.3398 55.4217 65.9728 55.3825C64.4201 55.3433 62.8806 54.9513 61.5136 54.1541C60.7704 53.7229 59.2972 52.5598 58.4877 53.5007C57.9701 54.1149 58.5275 55.0297 59.1114 55.5655C61.5401 57.8916 65.2694 58.6887 68.5475 58.0353C71.308 57.4865 74.0817 55.9314 75.3691 53.3962C76.3246 51.436 76.1388 49.2536 75.1833 47.411C74.5197 46.2871 73.5907 45.2286 72.4892 44.4707" fill="#f3f3f3"/>
<path d="M19.0181 23.1303C17.107 21.2485 14.1209 20.6213 11.5064 21.1701C11.4003 21.1701 11.2808 21.2093 11.2145 21.2093C7.27281 22.0849 4.72467 24.9076 4.28671 29.011C4.14073 30.4223 4.0611 33.1143 3.95492 34.6694H0V37.2438H4.02128V57.9959H9.22373C9.22373 57.9959 9.22373 37.5705 9.22373 37.2438H15.4481C15.4481 35.8325 14.3067 34.7086 12.8734 34.7086H9.17064C9.17064 34.7086 9.02466 29.011 9.75459 26.9462C10.0466 26.1099 10.4978 25.3127 11.1216 24.7377C12.4487 23.4701 14.5058 23.1434 16.1648 23.9406C16.9345 24.3065 17.6777 24.8161 18.4873 25.1036C18.8191 25.2082 19.257 25.1428 19.4826 24.8815C19.8941 24.2934 19.4959 23.6008 19.0181 23.1303" fill="#f3f3f3"/>
<path d="M117.002 33.9771C113.578 33.9771 110.99 35.2839 109.304 37.3878V37.2049C109.304 35.7151 108.203 34.552 106.464 34.552H104.288V66.987H105.987C107.831 66.987 109.304 65.5364 109.304 63.72V44.0003C109.304 39.8577 111.999 37.4009 115.317 37.4009C118.634 37.4009 121.329 39.8708 121.329 45.7514C121.329 51.632 118.236 55.7615 114.215 55.7615C113.472 55.7615 112.118 55.8661 112.118 56.9638C112.118 58.1268 113.339 58.1268 113.366 58.166C113.883 58.2445 114.401 58.2445 115.171 58.2445C121.912 58.2445 127.141 52.3246 127.141 45.0326C127.141 38.9168 122.603 33.9771 117.002 33.9771Z" fill="#f3f3f3"/>
<path d="M135.317 42.1839C135.569 41.06 135.94 39.9754 136.564 38.9953C137.414 37.6885 138.781 36.6692 140.36 36.4862C141.873 36.3033 143.386 36.9567 144.381 38.0805C145.377 39.2044 145.815 40.7333 145.669 42.1839C143.864 42.1839 137.599 42.1839 135.317 42.1839V42.1839ZM142.351 34.0163C139.325 33.7942 136.272 34.7743 133.99 36.6953C131.375 38.9038 129.942 42.2492 129.756 45.6208C129.57 48.7441 130.499 51.9327 132.477 54.3241C133.512 55.5917 134.865 56.611 136.378 57.3037C139.139 58.5321 142.563 58.5713 145.403 57.5519C146.916 57.0031 148.31 56.1667 149.451 55.0821C149.969 54.6116 150.446 53.8145 149.969 53.2656C149.716 52.9389 149.199 52.8997 148.787 53.0173C148.376 53.1219 148.044 53.4224 147.686 53.6315C145.695 54.9383 143.041 55.265 140.758 54.5071C138.475 53.7491 136.591 51.9719 135.675 49.7895C135.011 48.2344 134.826 46.4833 134.932 44.7844H151.03C151.136 42.0663 150.592 39.1652 148.787 37.0612C147.261 35.2186 144.819 34.1993 142.351 34.0163Z" fill="#f3f3f3"/>
<path d="M168.151 53.6447C167.925 53.3964 167.567 53.2395 167.076 53.3964C166.12 53.6839 165.523 54.5986 164.647 55.0299C163.32 55.7225 161.329 55.3566 160.851 53.8015C160.745 53.3964 160.705 52.9651 160.705 52.5731L160.745 37.2181H167.673V34.7874H160.705V27.0903H159.79H159.604C158.861 27.1295 158.277 27.6392 158.091 28.2926C158.091 28.371 158.051 28.4363 158.051 28.5409C157.387 32.2784 155.689 34.709 151.827 35.5454V37.2181H155.583V51.1879C155.583 52.0634 155.543 52.8998 155.689 53.7623C155.914 55.0299 156.498 56.2321 157.573 57.0685C160.082 59.0679 163.798 58.519 166.306 56.8463C167.195 56.2191 169.106 54.8469 168.151 53.6447" fill="#f3f3f3"/>
<path d="M166.532 30.3833C167.115 30.3833 167.301 30.135 167.301 29.7299C167.301 29.3247 167.115 28.998 166.532 28.998H166.24V30.3833H166.532ZM167.673 31.298H167.261L166.784 30.6446C166.704 30.6446 166.638 30.6838 166.558 30.6838H166.226V31.298H165.855V28.7236H166.558C167.328 28.7236 167.699 29.1549 167.699 29.7037C167.699 30.0696 167.514 30.3963 167.142 30.5401L167.673 31.298ZM168.628 30.0304C168.628 28.8674 167.819 28.1094 166.678 28.1094C165.576 28.1094 164.727 28.9066 164.727 30.0304C164.727 31.1543 165.536 31.9514 166.678 31.9514C167.779 31.9514 168.628 31.1543 168.628 30.0304ZM164.355 30.0304C164.355 28.7236 165.39 27.7827 166.678 27.7827C167.965 27.7827 169 28.7236 169 30.0304C169 31.298 167.925 32.2781 166.678 32.2781C165.39 32.2781 164.355 31.298 164.355 30.0304Z" fill="#f3f3f3"/>
</g>
<defs>
<clipPath id="clip0_32_770">
<rect width="169" height="67" fill="white"/>
</clipPath>
</defs>
</svg>
