<svg viewBox="0 0 210 36" fill="none" xmlns="http://www.w3.org/2000/svg">
<path d="M38.7411 24.6425V7.39967C38.7411 7.17322 38.9223 6.99017 39.1455 6.99017H42.2219C42.4451 6.99017 42.6263 7.17322 42.6263 7.39967V25.1888C42.6263 27.4472 41.3986 28.5757 38.9441 28.5757H34.8224C32.3675 28.5757 31.1402 27.4472 31.1402 25.1888V7.39967C31.1402 7.17322 31.3214 6.99017 31.5446 6.99017H34.621C34.8442 6.99017 35.0254 7.17322 35.0254 7.39967V24.6425C35.0254 25.007 35.0929 25.2527 35.228 25.3772C35.363 25.5037 35.6105 25.5655 35.9708 25.5655H37.7614C38.1443 25.5655 38.4035 25.5037 38.539 25.3772C38.6736 25.2527 38.7411 25.007 38.7411 24.6425V24.6425ZM69.6387 6.99001C72.0933 6.99001 73.3209 8.11816 73.3209 10.3765V13.7302C73.3209 13.9563 73.1398 14.1397 72.9166 14.1397H69.8066C69.5834 14.1397 69.4022 13.9563 69.4022 13.7302V10.7864C69.4022 10.4232 69.3347 10.1771 69.2 10.0518C69.0645 9.92648 68.8167 9.86341 68.4568 9.86341H66.8183C66.4584 9.86341 66.2105 9.92648 66.0755 10.0518C65.94 10.1771 65.8729 10.4232 65.8729 10.7864V24.8135C65.8729 25.178 65.94 25.4241 66.0755 25.5482C66.2105 25.6743 66.4584 25.7365 66.8183 25.7365H68.4568C68.8167 25.7365 69.0645 25.6743 69.2 25.5482C69.3347 25.4241 69.4022 25.178 69.4022 24.8135V21.9389C69.4022 21.7125 69.5834 21.5294 69.8066 21.5294H72.9166C73.1398 21.5294 73.3209 21.7125 73.3209 21.9389V25.2234C73.3209 27.4818 72.0933 28.6099 69.6387 28.6099H65.6865C63.2315 28.6099 62.0043 27.4818 62.0043 25.2234V10.3765C62.0043 8.11816 63.2315 6.99001 65.6865 6.99001H69.6387ZM3.47999 6.99001C3.7036 6.99001 3.88436 7.17305 3.88436 7.3995V25.5654H11.4557L10.926 28.2467C10.888 28.4384 10.7222 28.576 10.5293 28.576H0.404368C0.180752 28.576 0 28.3929 0 28.1665V7.3995C0 7.17305 0.180752 6.99001 0.404368 6.99001H3.47999V6.99001ZM54.6154 21.0843V7.3995C54.6154 7.17305 54.7965 6.99001 55.0197 6.99001H57.7581C57.9817 6.99001 58.1625 7.17305 58.1625 7.3995V28.1665C58.1625 28.3929 57.9817 28.576 57.7581 28.576H54.8086C54.6327 28.576 54.4775 28.4617 54.4237 28.2926L49.9538 14.2765V28.1665C49.9538 28.3929 49.7726 28.576 49.5494 28.576H46.7775C46.5539 28.576 46.3731 28.3929 46.3731 28.1665V7.3995C46.3731 7.17305 46.5539 6.99001 46.7775 6.99001H49.8285C50.0039 6.99001 50.1592 7.10467 50.2134 7.27338L54.6154 21.0843ZM21.298 10.0184L19.07 28.2342C19.0372 28.4316 18.8686 28.5758 18.6713 28.5758H15.6219C15.3668 28.5758 15.1751 28.3391 15.2257 28.0856L17.7619 7.31863C17.8003 7.1274 17.9661 6.98981 18.1585 6.98981H24.4598C24.6511 6.98981 24.816 7.12576 24.8553 7.31494L27.3696 28.0819C27.4226 28.3362 27.2309 28.5758 26.9742 28.5758H23.909C23.7137 28.5758 23.5463 28.4349 23.5112 28.2404L21.298 10.0184ZM113.791 21.0783H117.406L115.548 10.746L113.791 21.0783ZM118.714 28.2944L117.947 24.0549H113.285L112.582 28.2898C112.559 28.4323 112.438 28.5364 112.295 28.5364H109.012C108.828 28.5364 108.69 28.3656 108.726 28.1834L112.9 7.18464C112.927 7.04705 113.047 6.94837 113.185 6.94837H117.947C118.085 6.94837 118.204 7.04582 118.232 7.18219L122.603 28.1805C122.641 28.364 122.502 28.5364 122.318 28.5364H119C118.86 28.5364 118.739 28.4344 118.714 28.2944V28.2944ZM130.305 9.95924V17.2126H133.109C133.469 17.2126 133.717 17.1499 133.852 17.0242C133.987 16.8989 134.054 16.654 134.054 16.2887V10.883C134.054 10.5182 133.987 10.2729 133.852 10.1472C133.717 10.0219 133.469 9.95924 133.109 9.95924H130.305V9.95924ZM130.305 20.12V28.2414C130.305 28.404 130.175 28.5362 130.014 28.5362H126.711C126.55 28.5362 126.42 28.404 126.42 28.2414V7.24308C126.42 7.08051 126.55 6.94824 126.711 6.94824H134.257C136.712 6.94824 137.94 8.07721 137.94 10.3356V16.7335C137.94 18.6036 137.118 19.6986 135.473 20.0176L138.85 28.1267C138.931 28.3213 138.79 28.5362 138.582 28.5362H135.031C134.911 28.5362 134.803 28.4617 134.76 28.3483L131.589 20.12H130.305ZM152.001 7.24316V9.66407C152.001 9.82705 151.87 9.95932 151.71 9.95932H148.251V28.2411C148.251 28.4041 148.12 28.5363 147.959 28.5363H144.656C144.495 28.5363 144.365 28.4041 144.365 28.2411V9.95932H140.94C140.779 9.95932 140.649 9.82705 140.649 9.66407V7.24316C140.649 7.08059 140.779 6.94832 140.94 6.94832H151.71C151.87 6.94832 152.001 7.08059 152.001 7.24316V7.24316ZM164.758 9.95924H158.63V16.5283H163.575C163.736 16.5283 163.866 16.6602 163.866 16.8231V19.1069C163.866 19.2694 163.736 19.4021 163.575 19.4021H158.63V28.2414C158.63 28.404 158.499 28.5362 158.339 28.5362H155.002C154.841 28.5362 154.711 28.404 154.711 28.2414V7.24308C154.711 7.08051 154.841 6.94824 155.002 6.94824H164.758C164.918 6.94824 165.049 7.08051 165.049 7.24308V9.66399C165.049 9.82697 164.918 9.95924 164.758 9.95924V9.95924ZM175.361 24.6022V10.883C175.361 10.5181 175.293 10.2728 175.158 10.1471C175.023 10.0222 174.774 9.95915 174.414 9.95915H172.624C172.24 9.95915 171.982 10.0222 171.847 10.1471C171.712 10.2728 171.644 10.5181 171.644 10.883V24.6022C171.644 24.9674 171.712 25.2123 171.847 25.3376C171.982 25.4633 172.24 25.526 172.624 25.526H174.414C174.774 25.526 175.023 25.4633 175.158 25.3376C175.293 25.2123 175.361 24.9674 175.361 24.6022ZM171.441 6.94857H175.564C178.018 6.94857 179.246 8.07754 179.246 10.3355V25.1493C179.246 27.4076 178.018 28.5362 175.564 28.5362H171.441C168.986 28.5362 167.759 27.4076 167.759 25.1493V10.3355C167.759 8.07754 168.986 6.94857 171.441 6.94857V6.94857ZM186.832 10.022V17.2753H189.636C189.996 17.2753 190.244 17.2127 190.379 17.087C190.514 16.9617 190.582 16.7168 190.582 16.3515V10.9458C190.582 10.581 190.514 10.3357 190.379 10.21C190.244 10.0847 189.996 10.022 189.636 10.022H186.832ZM186.832 20.1827V28.3042C186.832 28.4672 186.702 28.599 186.541 28.599H183.238C183.077 28.599 182.947 28.4672 182.947 28.3042V7.30585C182.947 7.14328 183.077 7.01102 183.238 7.01102H190.784C193.239 7.01102 194.467 8.13999 194.467 10.3983V16.7962C194.467 18.6664 193.645 19.7614 192.001 20.0804L195.377 28.1895C195.458 28.384 195.318 28.599 195.109 28.599H191.558C191.438 28.599 191.33 28.5249 191.286 28.4115L188.116 20.1827H186.832V20.1827ZM206.081 24.7389V10.7458C206.081 10.3813 206.014 10.1361 205.878 10.0103C205.743 9.88544 205.495 9.82238 205.135 9.82238H202.095V25.6628H205.135C205.495 25.6628 205.743 25.6001 205.878 25.4744C206.014 25.3491 206.081 25.1042 206.081 24.7389V24.7389ZM198.209 7.24299C198.209 7.08043 198.34 6.94857 198.5 6.94857H206.317C208.772 6.94857 210 8.07754 210 10.3355V25.1493C210 27.4076 208.772 28.5362 206.317 28.5362H198.5C198.34 28.5362 198.209 28.4039 198.209 28.2413V7.24299V7.24299Z" fill="#f3f3f3"/>
<path d="M93.8129 0V2.99641H102.089V32.1532H93.8129V35.1492H105.607C105.83 35.1492 106.012 34.967 106.012 34.7416V0.407564C106.012 0.182181 105.83 0 105.607 0H93.8129ZM77.6879 0C77.4641 0 77.2832 0.182181 77.2832 0.407564V34.7416C77.2832 34.967 77.4641 35.1492 77.6879 35.1492H89.4815V32.1532H81.2047V2.99641H89.4815V0H77.6879ZM94.2528 6.83241C94.0294 6.83241 93.8481 7.015 93.8481 7.23998V15.6562H89.4531V7.23998C89.4531 7.015 89.2722 6.83241 89.0484 6.83241H85.9699C85.7465 6.83241 85.5652 7.015 85.5652 7.23998V28.3172H89.4531V19.4926H93.8481V27.9096C93.8481 28.1342 94.0294 28.3172 94.2528 28.3172H97.3317C97.5547 28.3172 97.7364 28.1342 97.7364 27.9096V7.23998C97.7364 7.015 97.5547 6.83241 97.3317 6.83241H94.2528Z" fill="#f3f3f3"/>
</svg>
