<svg viewBox="0 0 465 112" fill="none" xmlns="http://www.w3.org/2000/svg">
<path d="M289.103 0.339301C282.606 1.08597 278.32 2.98657 274.476 6.75385C270.326 10.8945 268.625 15.2387 268.625 21.7211C268.625 27.8641 270.258 32.0726 273.965 35.5684C277.605 38.9623 280.837 40.3199 291.382 42.8993C294.783 43.7138 298.389 44.7999 299.444 45.2751C305.703 48.2617 305.532 54.5066 299.103 57.086C297.369 57.7648 296.552 57.8666 292.028 57.8666C287.742 57.8666 286.517 57.7308 284.272 57.086C281.245 56.2375 278.149 54.7442 275.768 53.0811C274.884 52.4363 274.034 51.9272 273.897 51.9272C273.591 51.9272 266.686 63.5005 266.686 64.0096C266.686 64.4169 269.645 66.3514 272.469 67.7769C280.837 72.0193 293.593 73.4108 302.573 71.0351C303.696 70.7635 306.043 69.8472 307.812 68.9987C313.322 66.3854 317.438 61.566 318.901 55.9999C319.615 53.3526 319.717 47.8205 319.105 45.1393C317.574 38.6569 312.914 33.7696 305.634 31.0545C304.342 30.5454 300.158 29.3914 296.382 28.4751C289.511 26.846 287.3 26.0314 285.803 24.6399C283.49 22.5696 283.422 19.2096 285.633 16.9017C289.307 13.0666 301.416 13.5417 308.56 17.7841L310.567 18.972L311.043 18.2254C311.315 17.8181 312.982 15.0351 314.785 12.0484L318.05 6.65203L316.418 5.63385C312.812 3.39385 308.288 1.76476 303.083 0.882331C299.307 0.237483 292.368 -0.0340324 289.103 0.339301Z" fill="#f3f3f3"/>
<path d="M80.3461 1.05214C74.2912 1.59517 68.1683 3.69941 63.304 6.9576C60.1745 8.99396 55.6504 13.8473 53.7115 17.1734C50.1738 23.1806 48.8812 28.2376 48.8472 35.9758C48.8472 44.9697 50.8541 51.6218 55.5143 57.9685C63.7462 69.1006 79.8358 74.1237 94.7689 70.2206C106.947 67.0303 115.621 58.3418 118.954 45.9879C119.805 42.8655 119.873 42.0849 119.873 36.1455C119.873 30.24 119.771 29.4255 118.988 26.4049C114.328 9.1976 99.3271 -0.644829 80.3461 1.05214ZM88.9521 16.1212C96.2996 17.6824 101.64 22.8073 103.647 30.24C104.429 33.1927 104.429 39.1321 103.647 42.0849C102.627 45.8521 101.13 48.4655 98.5107 51.1128C94.3607 55.2194 89.6325 56.9164 83.1694 56.577C81.2985 56.4412 79.0535 56.1358 78.2031 55.8643C69.597 53.1491 64.6306 45.92 64.6306 36.1794C64.6306 32.0388 65.2769 29.154 66.9097 25.8279C70.7195 18.1915 79.7678 14.1867 88.9521 16.1212V16.1212Z" fill="#f3f3f3"/>
<path d="M434.045 1.05202C417.718 2.47748 405.676 13.4399 402.921 29.3235C402.274 33.1587 402.274 39.4714 402.921 43.2048C403.601 47.1417 405.438 52.1647 407.411 55.4569C409.622 59.1223 414.316 63.8399 418.058 66.1138C432.038 74.6666 452.04 72.8678 463.163 62.109C464.184 61.1248 464.966 60.2084 464.932 60.1066C464.83 59.869 455.271 50.9769 454.387 50.2641C453.843 49.8569 453.571 49.9926 452.006 51.4181C448.298 54.7441 444.42 56.3054 439.284 56.5769C429.589 57.1199 422.106 52.1647 419.18 43.3066C418.398 40.8969 418.296 40.0144 418.296 36.1454C418.296 32.2763 418.398 31.3938 419.18 28.9841C421.459 22.1623 426.562 17.5466 433.433 16.1551C440.27 14.7635 447.141 16.4605 451.734 20.7029C452.754 21.6193 453.673 22.366 453.809 22.332C453.945 22.2641 456.53 19.9563 459.523 17.1393L465 12.0823L463.401 10.4193C458.605 5.56596 450.271 1.76475 443.128 1.18778C438.093 0.780507 437.209 0.780507 434.045 1.05202V1.05202Z" fill="#f3f3f3"/>
<path d="M0 36.1453V70.5937H43.2004V56.3392H15.3072V1.69678H0V36.1453Z" fill="#f3f3f3"/>
<path d="M125.52 2.03617C125.52 2.27375 146.371 62.2107 148.991 69.5077L149.399 70.5937L158.073 70.5259L166.781 70.4241L178.789 36.315C185.388 17.5465 190.83 2.10405 190.83 1.93435C190.83 1.7986 187.361 1.73072 183.143 1.76466L175.455 1.86647L167.087 26.7441C162.257 41.1344 158.617 51.418 158.481 51.1804C158.311 50.9428 154.501 39.7089 149.977 26.235L141.711 1.69678H133.615C128.547 1.69678 125.52 1.83253 125.52 2.03617Z" fill="#f3f3f3"/>
<path d="M204.097 36.1453V70.5937H252.74V56.3392H219.404V15.9513H251.719V1.69678H204.097V36.1453Z" fill="#f3f3f3"/>
<path d="M340.229 35.5344C333.086 54.1671 327.133 69.6774 327.031 69.9828C326.827 70.5598 327.337 70.5937 334.616 70.5937H342.406L345.059 63.2968L347.747 55.9998H375.028L377.715 63.2968L380.402 70.5937H388.702C395.233 70.5937 397.002 70.4919 396.9 70.1525C396.798 69.9489 390.913 54.4386 383.838 35.738L370.946 1.69678H353.257L340.229 35.5344ZM370.265 42.1525C370.503 42.7295 369.925 42.7634 361.421 42.7634C356.251 42.7634 352.407 42.6277 352.475 42.458C352.543 42.2883 354.584 36.8919 356.999 30.4774L361.421 18.7683L365.707 30.1719C368.088 36.4507 370.129 41.8471 370.265 42.1525Z" fill="#f3f3f3"/>
<path d="M231.309 35.9756V44.4604H245.936V27.4907H231.309V35.9756Z" fill="#f3f3f3"/>
<path d="M157.528 81.4882C154.943 82.2688 153.413 84.2712 153.413 86.8845C153.413 88.1742 153.345 88.2421 152.392 88.2421C151.406 88.2421 151.372 88.31 151.372 89.7694C151.372 91.2288 151.406 91.2967 152.392 91.2967H153.413V105.212H156.814V91.2967H160.896V88.2421H158.855C157.018 88.2421 156.814 88.1742 156.814 87.5294C156.814 85.7985 158.141 84.5427 159.978 84.5088H161.27L161.168 82.8797C161.066 81.3185 161.032 81.2845 159.876 81.2167C159.229 81.1827 158.175 81.3185 157.528 81.4882V81.4882Z" fill="#f3f3f3"/>
<path d="M237.602 81.4207C235.017 82.0655 233.759 83.4231 233.248 86.1722C232.874 88.1067 232.806 88.2425 231.922 88.2425C231.037 88.2425 230.969 88.3104 230.969 89.7698C230.969 91.2292 231.003 91.297 231.99 91.297H233.01V105.212H236.752V91.297H240.494V88.2425H238.623C236.752 88.2425 236.752 88.2425 236.752 87.2243C236.752 85.731 238.079 84.5091 239.643 84.5091H240.868L240.766 82.8801C240.664 81.3867 240.596 81.2849 239.643 81.217C239.099 81.1831 238.181 81.2849 237.602 81.4207V81.4207Z" fill="#f3f3f3"/>
<path d="M428.535 81.5563C425.099 82.846 422.854 84.8823 421.357 88.1405C420.745 89.4642 420.609 90.3805 420.609 93.1635C420.609 96.1163 420.711 96.7951 421.493 98.4581C423.908 103.583 429.113 106.264 434.726 105.28C437.141 104.839 440.1 103.481 441.223 102.293L441.937 101.513L441.019 100.325C440.508 99.646 440.032 99.1029 439.964 99.1029C439.896 99.1029 439.182 99.5781 438.399 100.121C437.617 100.698 436.154 101.411 435.134 101.682C427.65 103.854 421.561 95.6411 425.405 88.5478C427.718 84.3393 432.923 83.1854 437.685 85.8666L439.488 86.8848L440.406 85.4932C441.325 84.1017 441.325 84.1017 440.678 83.5926C438.671 82.0654 436.256 81.3187 433.025 81.2169C430.882 81.149 429.385 81.2508 428.535 81.5563Z" fill="#f3f3f3"/>
<path d="M0.340088 93.3334V105.314L5.71463 105.11C9.4564 105.009 11.5654 104.771 12.7219 104.364C17.8584 102.599 20.3075 98.5261 20.0014 92.3491C19.7973 88.7176 18.8789 86.4097 16.7699 84.4752C14.0486 81.9976 12.892 81.6582 6.22487 81.5225L0.340088 81.3867V93.3334ZM10.1707 84.8825C13.8785 85.6631 15.9875 88.3104 16.2596 92.5867C16.4977 96.4897 15.1031 99.3407 12.1097 100.868C11.0211 101.445 9.93263 101.649 7.24535 101.75L3.7417 101.886V84.5091H6.12282C7.41544 84.5091 9.2523 84.6788 10.1707 84.8825V84.8825Z" fill="#f3f3f3"/>
<path d="M57.147 83.1516V84.8485H60.8887V81.4546H57.147V83.1516Z" fill="#f3f3f3"/>
<path d="M135.044 85.5273V89.5661L133.819 88.7516C130.52 86.5116 125.655 87.6994 123.58 91.2291C122.696 92.7225 122.628 93.0958 122.628 96.5916C122.628 100.189 122.662 100.427 123.648 102.022C125.077 104.296 127.05 105.382 129.771 105.348C131.812 105.348 133.377 104.805 134.5 103.685C135.01 103.176 135.044 103.21 135.044 104.16C135.044 105.178 135.078 105.212 136.745 105.212H138.445V81.4546H135.044V85.5273V85.5273ZM132.935 91.5006C135.792 93.3673 135.622 100.121 132.629 101.649C129.601 103.21 126.574 101.343 125.996 97.5758C125.281 92.8243 129.431 89.1928 132.935 91.5006Z" fill="#f3f3f3"/>
<path d="M207.158 93.3334V105.212H221.105V101.818H210.56V81.4546H207.158V93.3334Z" fill="#f3f3f3"/>
<path d="M223.826 83.1516V84.8485H227.568V81.4546H223.826V83.1516Z" fill="#f3f3f3"/>
<path d="M273.149 93.3334V105.212H276.551V95.0303H284.715V91.9758H276.551V84.5091H286.415V81.4546H273.149V93.3334Z" fill="#f3f3f3"/>
<path d="M341.521 83.1516V84.8485H345.263V81.4546H341.521V83.1516Z" fill="#f3f3f3"/>
<path d="M350.706 85.8665V88.2422H349.515C348.325 88.2422 348.325 88.2422 348.325 89.7695C348.325 91.2968 348.325 91.2968 349.481 91.2968H350.672L350.774 96.5235C350.876 101.241 350.944 101.886 351.59 102.734C352.645 104.16 354.209 104.906 356.489 105.11L358.53 105.314V101.954L357.305 101.92C356.455 101.886 355.774 101.614 355.162 101.003C354.312 100.155 354.278 99.9174 354.175 95.7089L354.039 91.2968H358.189V88.2422H354.107V83.4907H350.706V85.8665V85.8665Z" fill="#f3f3f3"/>
<path d="M28.5055 88.0385C26.6346 88.7173 25.6141 89.464 24.5256 90.9913C23.5391 92.3149 22.7908 94.7925 22.7908 96.6931C22.7908 99.9513 25.2399 103.651 28.1653 104.771C30.4444 105.653 34.0501 105.551 36.1251 104.567C38.5742 103.379 38.8804 102.7 37.6218 101.037C37.1796 100.494 37.0775 100.494 35.4448 101.343C31.6009 103.345 27.6211 101.818 26.7026 97.9828L26.4645 97.0664H38.7783V95.4373C38.7783 92.8919 38.166 91.2628 36.6013 89.7355C34.5263 87.6652 31.3968 87.0204 28.5055 88.0385ZM33.3017 91.0931C33.812 91.3646 34.3903 91.9755 34.6284 92.4846C35.4788 94.3173 35.3767 94.3513 30.9546 94.3513C26.2264 94.3513 25.9883 94.1476 28.1993 91.9416C29.2878 90.8216 29.7301 90.6179 30.9206 90.6179C31.703 90.6179 32.7575 90.8216 33.3017 91.0931V91.0931Z" fill="#f3f3f3"/>
<path d="M45.0713 88.0046C42.418 89.0907 41.2955 90.7198 41.6016 92.9937C41.8738 95.064 42.7242 95.9804 45.8877 97.4737C49.1872 99.0349 50.0036 99.6119 50.0036 100.494C50.0036 102.327 46.8061 102.768 44.2209 101.275L42.6901 100.392L41.9418 101.377C41.4996 101.886 41.1594 102.497 41.1594 102.7C41.1594 103.719 43.7787 105.042 46.4659 105.382C48.711 105.687 50.786 105.076 52.2827 103.719C53.3712 102.734 53.5413 102.361 53.6774 100.664C53.8474 98.7295 53.8134 98.7295 52.3167 97.304C51.3983 96.4555 49.9696 95.5731 48.711 95.0979C45.8536 94.0119 45.0713 93.3331 45.3434 92.2131C45.7856 90.5161 49.0852 90.2786 51.2622 91.8058C51.9765 92.3149 52.0446 92.281 52.7249 90.9913C53.0991 90.2446 53.4052 89.5319 53.4052 89.464C53.4052 89.3622 52.7589 88.9549 51.9765 88.5476C50.2417 87.6652 46.602 87.3598 45.0713 88.0046V88.0046Z" fill="#f3f3f3"/>
<path d="M68.4063 88.4801C66.9436 89.2267 66.3654 89.8037 65.515 91.297C64.5965 92.9601 64.4604 93.4691 64.4604 95.8788C64.4604 99.2388 65.2088 101.343 67.0117 102.972C69.6309 105.314 73.8489 105.552 76.128 103.447L76.8763 102.735V103.99C76.8763 107.893 73.3386 109.828 68.9506 108.335L66.9776 107.69L66.5014 108.878C65.7871 110.507 65.8211 110.609 67.2158 111.186C70.4473 112.543 75.6177 112 77.9308 110.066C80.1079 108.199 80.2779 107.452 80.2779 97.1346V87.9031H78.5771C77.1144 87.9031 76.8763 88.0049 76.8763 88.5819C76.8763 89.2267 76.8423 89.2267 75.6858 88.514C74.9374 88.1067 73.6448 87.7673 72.3522 87.6655C70.5153 87.5297 70.0051 87.6316 68.4063 88.4801V88.4801ZM75.0395 91.5007C76.8763 92.7225 77.4206 96.8291 76.128 99.4425C74.053 103.481 68.5764 101.852 68.1002 97.0667C68.0321 96.1504 68.0662 94.8607 68.1682 94.2158C68.4403 92.8582 70.0391 91.0934 71.1956 90.8558C72.3182 90.6182 74.155 90.9237 75.0395 91.5007Z" fill="#f3f3f3"/>
<path d="M92.0476 88.0388C91.3333 88.3103 90.2107 89.0231 89.5984 89.634L88.4419 90.754V87.9031H85.0403V105.212H88.7821V99.9855C88.7821 95.1322 88.8501 94.7249 89.5644 93.6388C91.2312 91.1612 94.2246 90.2109 95.9595 91.6025C96.7418 92.2473 96.7758 92.3831 96.8779 98.7297L96.9799 105.212H100.756L100.654 98.3225C100.518 90.8558 100.314 90.0073 98.2725 88.514C97.116 87.6315 93.8164 87.394 92.0476 88.0388V88.0388Z" fill="#f3f3f3"/>
<path d="M109.396 88.0389C107.457 88.7516 105.756 90.3128 104.804 92.1795C103.783 94.2159 103.647 98.1868 104.497 100.155C105.28 101.954 106.981 103.719 108.784 104.601C111.199 105.755 114.838 105.687 117.458 104.432C118.512 103.889 119.397 103.244 119.397 102.972C119.397 102.463 118.478 100.461 118.24 100.461C118.172 100.461 117.322 100.868 116.403 101.343C113.784 102.701 111.029 102.497 109.226 100.8C108.477 100.053 107.491 98.1528 107.491 97.4062C107.491 97.2025 109.634 97.0668 113.614 97.0668H119.737V95.0983C119.703 92.0777 118.342 89.6001 115.927 88.3783C114.43 87.5977 111.029 87.428 109.396 88.0389V88.0389ZM114.532 91.2292C114.94 91.5346 115.519 92.3831 115.825 93.0619L116.335 94.3516H112.083C108.647 94.3516 107.831 94.2498 107.831 93.8765C107.831 93.1977 109.498 91.2971 110.348 90.9577C111.573 90.4486 113.75 90.5843 114.532 91.2292Z" fill="#f3f3f3"/>
<path d="M168.244 88.1067C164.536 89.2946 161.917 93.537 162.393 97.5418C163.243 104.941 172.564 108.131 178.04 102.904C179.911 101.105 180.625 99.4085 180.625 96.6255C180.625 92.9261 179.231 90.4485 176.237 88.8194C174.06 87.5976 170.693 87.3261 168.244 88.1067V88.1067ZM174.196 91.5006C176.135 92.4849 177.496 95.3697 177.054 97.5079C175.999 102.429 170.183 103.889 167.189 99.9855C165.488 97.7455 165.658 94.7928 167.597 92.6206C169.4 90.6182 171.747 90.2109 174.196 91.5006Z" fill="#f3f3f3"/>
<path d="M247.909 87.9708C246.277 88.412 244.066 90.3466 243.147 92.1114C242.739 92.926 242.365 94.4193 242.263 95.7769C241.991 99.8157 243.589 102.802 246.889 104.431C249.44 105.687 252.706 105.721 255.359 104.567C257.774 103.481 258.012 103.176 257.264 101.682C256.958 101.004 256.583 100.46 256.447 100.46C256.311 100.46 255.529 100.834 254.747 101.309C252.842 102.395 250.018 102.463 248.386 101.479C247.127 100.698 245.936 98.9332 245.936 97.8132V97.0666H258.284L258.08 94.8605C257.536 89.2266 253.488 86.4775 247.909 87.9708V87.9708ZM253.046 91.5345C253.624 92.0775 254.168 92.892 254.304 93.4011L254.508 94.3514H245.936L246.379 93.2314C247.433 90.686 251.107 89.7357 253.046 91.5345Z" fill="#f3f3f3"/>
<path d="M328.629 88.0045C328.017 88.2082 326.963 88.853 326.35 89.43L325.194 90.5161V87.9027H321.792V105.212H325.126L325.262 100.019C325.398 94.3173 325.67 93.333 327.575 91.9755C328.902 91.0252 331.079 90.7197 332.167 91.2967C333.426 91.9755 333.698 93.333 333.698 99.4761V105.212H337.099V98.4918C337.099 90.4821 336.759 89.3621 334.31 88.2421C332.711 87.5294 330.432 87.4276 328.629 88.0045V88.0045Z" fill="#f3f3f3"/>
<path d="M398.226 88.0389C394.178 89.5322 391.933 93.9783 392.886 98.5601C394.144 104.635 401.288 107.384 407.071 104.024L408.533 103.142L407.853 101.818C407.479 101.072 407.105 100.461 407.037 100.461C406.969 100.461 406.118 100.868 405.2 101.343C402.58 102.701 399.825 102.497 398.022 100.8C397.274 100.053 396.287 98.1528 396.287 97.4061C396.287 97.2025 398.43 97.0667 402.41 97.0667H408.533V95.0983C408.533 92.3152 407.275 89.9055 405.268 88.7176C403.397 87.6316 400.165 87.3261 398.226 88.0389ZM403.703 91.6364C404.247 92.1795 404.791 92.994 404.86 93.5031L405.03 94.3516H400.846C396.117 94.3516 395.913 94.2158 397.546 92.3152C398.635 91.0255 399.417 90.6522 401.288 90.6522C402.41 90.6183 402.887 90.8219 403.703 91.6364Z" fill="#f3f3f3"/>
<path d="M448.978 87.8013C447.244 88.0728 444.488 90.0413 443.4 91.7722C442.583 93.1298 442.379 93.8764 442.277 95.9128C442.107 99.0013 442.583 100.495 444.386 102.429C447.652 105.993 453.06 106.468 457.074 103.549C458.911 102.226 459.898 100.562 460.306 97.9831C460.85 94.8946 460.068 92.451 457.891 90.2788C455.612 88.0049 452.788 87.2243 448.978 87.8013ZM452.822 90.9576C453.537 91.1613 454.557 91.874 455.237 92.6546C457.176 94.7928 457.346 97.7455 455.646 99.9855C452.652 103.889 446.835 102.429 445.781 97.5079C445.271 94.9964 447.006 92.0098 449.523 91.1273C451.189 90.5504 451.258 90.5504 452.822 90.9576Z" fill="#f3f3f3"/>
<path d="M57.147 96.5574V105.212H60.8887V87.9028H57.147V96.5574Z" fill="#f3f3f3"/>
<path d="M184.367 96.5574V105.212H187.701L187.837 100.223C187.939 95.9125 188.041 95.0301 188.653 94.0119C189.538 92.4507 191.306 91.2968 192.735 91.2968H193.892V87.9028H192.463C190.898 87.9028 189.402 88.6834 188.381 90.0071L187.769 90.7877V87.9028H184.367V96.5574V96.5574Z" fill="#f3f3f3"/>
<path d="M223.826 96.5574V105.212H227.568V87.9028H223.826V96.5574Z" fill="#f3f3f3"/>
<path d="M289.205 94.5889C289.307 102.191 289.647 103.413 291.858 104.703C294.171 106.026 298.049 105.45 300.294 103.413L301.043 102.734V105.212H304.444V87.9028H301.043V92.3828C301.043 97.6774 300.736 99.0689 299.172 100.596C297.913 101.886 296.484 102.327 294.92 101.988C293.151 101.58 292.879 100.562 292.879 93.8422V87.9028H289.069L289.205 94.5889V94.5889Z" fill="#f3f3f3"/>
<path d="M309.206 96.5574V105.212H312.948V100.528C312.948 96.3537 313.016 95.675 313.73 94.3513C314.581 92.6204 316.35 91.2968 317.744 91.2968C318.697 91.2968 318.731 91.2289 318.731 89.5998V87.9028H317.472C315.873 87.9028 314.173 88.921 313.288 90.3465L312.608 91.4665V87.9028H309.206V96.5574V96.5574Z" fill="#f3f3f3"/>
<path d="M341.521 96.5574V105.212H345.263V87.9028H341.521V96.5574Z" fill="#f3f3f3"/>
<path d="M361.591 94.5889C361.591 100.46 361.693 101.479 362.237 102.734C363.088 104.533 364.55 105.348 367.034 105.348C369.585 105.382 370.571 105.042 372.136 103.651L373.497 102.429V105.212H376.898V87.9028H373.157V92.8919C373.157 97.4738 373.088 98.0507 372.374 99.2386C371.422 100.936 370.197 101.818 368.496 102.056C367.408 102.191 366.966 102.09 366.149 101.377L365.163 100.528L365.061 94.2156L364.925 87.9028H361.591V94.5889V94.5889Z" fill="#f3f3f3"/>
<path d="M381.661 96.5574V105.212H385.028L385.13 100.359C385.232 96.2859 385.334 95.3356 385.947 94.1816C386.831 92.5186 388.532 91.2968 390.029 91.2968H391.185V87.9028H390.029C388.362 87.9028 387.205 88.4119 386.049 89.6677L385.062 90.7537V87.9028H381.661V96.5574Z" fill="#f3f3f3"/>
<path d="M462.279 103.685V105.212H465V102.157H462.279V103.685Z" fill="#f3f3f3"/>
</svg>
