<svg viewBox="0 0 164 33" fill="none" xmlns="http://www.w3.org/2000/svg">
<path fill-rule="evenodd" clip-rule="evenodd" d="M14.09 17.427V0H18.399V24.267H12.278L4.948 6.882H4.308V24.267H0V0H6.12L13.452 17.427H14.089H14.09ZM28.561 24.247V0H42.275V3.83H32.87V10.328H39.905V13.885H32.87V20.416H42.275V24.247L28.561 24.267V24.247ZM159.294 0V17.427H158.656L151.325 0H145.204V24.267H149.513V6.882H150.151L157.482 24.267H163.603V0H159.294V0ZM71.087 17.427L73.724 0.001H78.034L73.684 24.266H68.285L64.791 6.882H64.183L60.69 24.266H55.293L50.944 0.001H55.253L57.89 17.427H58.429L61.972 0.001H67.006L70.549 17.427H71.087ZM125.555 0.001L118.88 24.266H123.19L124.117 20.393L131.312 20.413L132.235 24.266H136.544L129.865 0.001H125.555ZM125.147 16.087L127.36 6.84H128.065L130.28 16.1L125.147 16.087ZM97.859 17.385L101.352 0H106.744V0.003L111.094 24.265H106.788L104.146 6.84H103.622L100.07 24.266H95.036L91.484 6.84H90.96L88.317 24.266H84.01L88.356 0.001H93.756L97.249 17.385H97.858H97.859Z" fill="#f3f3f3"/>
<path fill-rule="evenodd" clip-rule="evenodd" d="M0 32.8852H18.399V28.5762H0V32.8852Z" fill="#f3f3f3"/>
</svg>
