<svg viewBox="0 0 76 42" fill="none" xmlns="http://www.w3.org/2000/svg">
<g clip-path="url(#clip0_32_849)">
<path d="M35.0769 42.0001L33.4425 41.0104L38.7229 33.1547C38.0314 33.4021 37.3399 33.5258 36.7113 33.5258C35.1397 33.5258 33.8196 32.9691 32.751 31.8557C31.6823 30.7423 31.1166 29.3815 31.1166 27.7733C31.1166 26.6599 31.368 25.6702 31.8709 24.8042C32.3738 23.9382 33.1282 23.1959 34.0711 22.7011C35.014 22.1444 36.0827 21.897 37.1513 21.897C38.22 21.897 39.2258 22.1444 40.1687 22.6392C41.1116 23.1341 41.8031 23.8764 42.306 24.8042C42.8089 25.732 43.0603 26.7217 43.0603 27.7733C43.0603 28.5774 42.8717 29.3815 42.5574 30.2475C42.2431 31.1135 41.6774 32.165 40.7973 33.4021L35.0769 42.0001ZM37.2142 31.7939C38.3457 31.7939 39.3515 31.4227 40.1058 30.6186C40.923 29.8145 41.3002 28.8867 41.3002 27.7733C41.3002 26.6599 40.923 25.732 40.1058 24.9279C39.2886 24.1238 38.3457 23.7526 37.2142 23.7526C36.0827 23.7526 35.1397 24.1238 34.3225 24.9279C33.5053 25.732 33.1282 26.6599 33.1282 27.7733C33.1282 28.8867 33.5053 29.8145 34.3225 30.6186C35.1397 31.3609 36.0827 31.7939 37.2142 31.7939V31.7939Z" fill="#f3f3f3"/>
<path d="M46.392 26.7834H44.3804C44.7576 25.1752 45.4491 23.9999 46.4549 23.1339C47.4607 22.268 48.7179 21.835 50.1009 21.835C51.1067 21.835 52.0496 22.0824 52.9297 22.5154C53.8097 22.9484 54.5012 23.5669 54.9412 24.371C55.4441 25.1752 55.6327 25.9793 55.6327 26.7834C55.6327 28.4535 54.8155 29.7525 53.1182 30.6803C54.0612 31.0515 54.8155 31.6082 55.4441 32.3504C56.2613 33.3401 56.7014 34.5154 56.7014 35.7525C56.7014 36.8659 56.3871 37.8556 55.8213 38.8453C55.2556 39.835 54.4383 40.5772 53.4326 41.1339C52.4268 41.6906 51.2952 41.9381 50.038 41.9381C48.3407 41.9381 46.9578 41.4432 45.8263 40.5154C44.6948 39.5875 43.9404 38.1649 43.6261 36.3092H45.512C45.8263 37.5463 46.3292 38.4741 46.9578 39.0308C47.775 39.7112 48.7808 40.0824 50.038 40.0824C51.421 40.0824 52.6154 39.6494 53.4326 38.8453C54.3126 38.0411 54.6898 37.0515 54.6898 35.9381C54.6898 35.1958 54.5012 34.5154 54.0612 33.835C53.6211 33.1546 53.0554 32.7216 52.3639 32.3504C51.6724 32.0411 50.5409 31.7937 49.0322 31.7319V29.9999C49.9123 29.9999 50.7295 29.8762 51.4838 29.5669C52.2382 29.2576 52.7411 28.8865 53.0554 28.3917C53.3697 27.8968 53.5583 27.402 53.5583 26.8453C53.5583 26.0411 53.244 25.2989 52.5525 24.6803C51.861 24.0618 51.0438 23.7525 49.9752 23.7525C49.1579 23.7525 48.4036 23.9999 47.775 24.4329C47.335 24.8659 46.8321 25.67 46.392 26.7834Z" fill="#f3f3f3"/>
<path d="M60.096 38.6597C60.536 38.6597 60.9132 38.8452 61.2275 39.1545C61.5418 39.4638 61.7304 39.8349 61.7304 40.3298C61.7304 40.7628 61.5418 41.1339 61.2275 41.4432C60.9132 41.7525 60.536 41.938 60.096 41.938C59.6559 41.938 59.2788 41.7525 58.9644 41.4432C58.6501 41.1339 58.4615 40.7628 58.4615 40.3298C58.4615 39.8968 58.6501 39.5256 58.9644 39.1545C59.2788 38.7834 59.6559 38.6597 60.096 38.6597Z" fill="#f3f3f3"/>
<path d="M63.6162 22.3301H76L65.5649 42.0002L63.9305 41.1961L72.9198 24.1857H63.6162V22.3301Z" fill="#f3f3f3"/>
<path d="M6.91478 0.556661L6.7262 0.371094V3.03089C6.78906 2.96903 6.85192 2.90718 6.91478 2.78347V0.556661Z" fill="#f3f3f3"/>
<path d="M18.9843 6.92797V19.2372H12.2581L12.4466 19.4228H19.1729V7.11353C19.1729 4.82487 18.4814 2.9692 17.1613 1.79395C18.2928 2.9692 18.9843 4.70116 18.9843 6.92797V6.92797Z" fill="#f3f3f3"/>
<path d="M6.72622 9.0311V19.2373H0L0.188586 19.4229H6.91481V9.21667C6.91481 7.17543 8.10918 6.06203 9.74359 6.06203C10.4351 6.06203 11.0008 6.2476 11.5037 6.68059C11.0008 6.18574 10.3722 5.87646 9.61787 5.87646C7.9206 5.87646 6.72622 6.98987 6.72622 9.0311V9.0311Z" fill="#f3f3f3"/>
<path d="M30.4251 5.62891C27.9735 5.62891 26.402 7.54643 26.402 9.83509V9.89695C26.402 11.1341 26.9049 12.3093 27.7849 13.1134C27.0306 12.3093 26.5906 11.2578 26.5906 10.0825V9.9588C26.5906 7.67014 28.1621 5.75262 30.6137 5.75262C31.6824 5.75262 32.6253 6.12375 33.3168 6.80416C32.5624 6.12375 31.5566 5.62891 30.4251 5.62891Z" fill="#f3f3f3"/>
<path d="M31.9967 14.1029V19.608C31.4938 19.6699 30.9909 19.7318 30.4251 19.7318C27.4078 19.7318 24.7676 18.6184 22.8817 16.8864C24.7676 18.7421 27.4706 19.9173 30.6137 19.9173C31.1795 19.9173 31.6824 19.8555 32.1853 19.7936V14.041L31.9967 13.8555V14.1029Z" fill="#f3f3f3"/>
<path d="M41.0487 9.77303V9.83489C41.0487 13.8555 38.5343 17.3813 34.6997 18.8658C34.6368 18.9277 34.5111 18.9277 34.5111 18.9277L34.6997 19.1132C38.66 17.6287 41.2373 14.0411 41.2373 9.9586C41.2373 7.23695 40.1058 4.82458 38.22 3.03076C39.9801 4.82458 41.0487 7.17509 41.0487 9.77303V9.77303Z" fill="#f3f3f3"/>
<path d="M59.2159 6.61848C61.0389 5.81436 63.1134 5.38137 65.0621 5.38137C66.3822 5.38137 67.388 5.69065 68.0166 6.24735C67.388 5.56693 66.3822 5.1958 64.8735 5.1958C62.9248 5.1958 60.8503 5.62879 59.0273 6.43291L59.2159 6.61848Z" fill="#f3f3f3"/>
<path d="M66.3192 11.2578C67.1993 11.2578 68.0794 11.4434 68.7709 11.6908V11.5671C68.0794 11.2578 67.1364 11.0723 66.1307 11.0723C64.1819 11.0723 63.0504 12.0001 63.0504 13.4228V13.4846C63.0504 14.1032 63.3019 14.6599 63.7419 14.9692C63.4276 14.6599 63.239 14.165 63.239 13.6702V13.6083C63.239 12.1857 64.3705 11.2578 66.3192 11.2578Z" fill="#f3f3f3"/>
<path d="M73.4226 2.59799L73.3598 2.53613C74.7427 3.89696 75.3085 5.81448 75.3085 8.41242V19.2372H68.6451L68.8337 19.4227H75.4971V8.59799C75.4971 5.93819 74.8685 4.02067 73.4226 2.59799V2.59799Z" fill="#f3f3f3"/>
<path d="M68.6452 17.3193C67.3251 18.742 65.5021 19.6699 63.0504 19.6699C61.1646 19.6699 59.4673 19.1132 58.2729 17.9997C59.4673 19.175 61.2275 19.8554 63.239 19.8554C65.6278 19.8554 67.3879 18.9894 68.6452 17.6905V17.3193Z" fill="#f3f3f3"/>
<path d="M49.7237 11.134L46.2035 0.556661L46.0149 0.371094L46.0778 0.556661L49.6609 11.3195L49.7237 11.134Z" fill="#f3f3f3"/>
<path d="M60.3474 0.371094L52.6783 19.2371H46.5807L46.7693 19.4226H52.8669L60.536 0.556661L60.3474 0.371094Z" fill="#f3f3f3"/>
<path d="M12.4467 0C9.74359 0 7.98346 1.48454 6.72622 3.09278V0.43299H0V19.2371H6.72622V9.03093C6.72622 6.98969 7.9206 5.87629 9.555 5.87629C11.1266 5.87629 12.2581 6.98969 12.2581 9.03093V19.2371H18.9843V6.92784C18.9843 2.59794 16.5327 0 12.4467 0Z" fill="#f3f3f3"/>
<path d="M53.3697 0.371094L49.6609 11.3195L46.0149 0.371094H38.9115L46.5806 19.2371H52.6783L60.3474 0.371094H53.3697Z" fill="#f3f3f3"/>
<path d="M30.488 0C24.3276 0 19.8644 4.51546 19.8644 9.83505V9.89691C19.8644 15.2784 24.2647 19.6701 30.4252 19.6701C30.9909 19.6701 31.4938 19.6082 31.9967 19.5464V13.7938C31.5567 13.9794 31.0538 14.0412 30.488 14.0412C28.0993 14.0412 26.402 12.0619 26.402 9.7732V9.71134C26.402 7.42268 27.9736 5.50515 30.4252 5.50515C32.8139 5.50515 34.5112 7.48454 34.5112 9.7732V18.9897C38.4715 17.5052 41.0488 13.9175 41.0488 9.83505V9.7732C41.0488 4.45361 36.5856 2.33785e-07 30.488 2.33785e-07V0Z" fill="#f3f3f3"/>
<path d="M73.2341 2.41219C71.7254 0.927659 69.3995 0.123535 65.9421 0.123535C64.182 0.123535 62.7362 0.309102 61.4161 0.556525L59.0273 6.43281C60.8503 5.62869 62.9247 5.1957 64.8735 5.1957C67.4508 5.1957 68.708 6.3091 68.708 8.28848V8.59776C67.6394 8.22663 65.8792 7.85549 64.1191 7.85549C59.6559 7.85549 56.6385 9.89673 56.6385 13.7936V13.8555C56.6385 17.6287 59.4045 19.6699 63.0505 19.6699C65.5649 19.6699 67.3879 18.7421 68.6452 17.3194V19.2988H75.3085V8.47405C75.3085 5.7524 74.6799 3.83488 73.2341 2.41219V2.41219ZM68.7709 12.4328C68.7709 14.2885 67.3879 15.5256 65.4392 15.5256C64.0562 15.5256 63.0505 14.7833 63.0505 13.4844V13.4225C63.0505 11.9998 64.182 11.072 66.1307 11.072C67.1365 11.072 68.0794 11.2576 68.7709 11.5668V12.4328Z" fill="#f3f3f3"/>
</g>
<defs>
<clipPath id="clip0_32_849">
<rect width="76" height="42" fill="white"/>
</clipPath>
</defs>
</svg>
