<svg viewBox="0 0 550 99" fill="none" xmlns="http://www.w3.org/2000/svg">
<path fill-rule="evenodd" clip-rule="evenodd" d="M502.71 66.9077L501.236 74.6047H474.997L476.275 66.9077C480.298 66.9077 480.86 66.5518 481.385 63.0602L484.234 44.1102C484.722 40.8739 482.768 39.7693 480.893 39.7693C477.11 39.7693 473.146 43.7597 472.441 48.3539L470.083 63.7501C469.748 65.9349 470.102 66.9077 474.603 66.9077L473.423 74.6047H446.792L448.168 66.9077C452.961 66.9077 453.787 66.2069 454.261 63.2577L457.405 43.7159C457.625 42.3542 457.387 42.1374 456.324 42.1374H450.526L451.705 35.4276L475.488 25.1646L476.175 25.8542L475.094 31.8753C479.47 27.9841 484.277 25.2628 489.738 25.2628C497.403 25.2628 501.137 31.7175 501.137 38.5853C501.137 40.1973 501.02 41.5262 500.645 43.8158L497.502 63.0602C496.973 66.2949 497.53 66.9077 502.71 66.9077Z" fill="#f3f3f3"/>
<path fill-rule="evenodd" clip-rule="evenodd" d="M406.499 27.5335L401.979 37.2049C400.125 36.377 397.796 36.1181 396.573 36.1181H391.169L387.532 58.5184C386.88 62.5378 387.649 63.2573 389.695 63.2573C391.939 63.2573 394.242 62.0896 398.343 58.3214L401.88 65.3285C397.011 70.5385 390.792 75.9866 382.914 75.9866C374.526 75.9866 370.826 71.1841 370.826 63.5528C370.826 61.9427 371.074 59.7486 371.317 58.2224L374.855 36.1181L368.663 36.2181L370.138 27.7307L376.034 27.8288L377.409 18.849L393.625 12.2363L394.706 13.3223L392.447 27.6317L406.499 27.5335Z" fill="#f3f3f3"/>
<path fill-rule="evenodd" clip-rule="evenodd" d="M375.053 3.35501C373.192 9.67891 371.051 18.9765 370.041 25.3631H360.608C361.477 22.2174 361.757 20.2549 361.786 18.5532C361.858 14.4487 357.207 11.8424 350.29 11.8424C343.199 11.8424 338.477 15.4692 338.398 20.0335C338.324 24.3416 339.958 26.1471 345.377 30.0011L354.809 36.711C363.561 42.9348 368.841 48.7645 368.665 58.816C368.377 75.534 354.489 83.9813 336.432 83.9813C332.209 83.9813 329.192 82.897 326.311 82.2034C323.853 81.6141 321.393 80.8232 318.842 80.8232C317.454 80.8232 314.98 81.2859 313.339 82.3035L311.864 81.5141C310.74 73.4096 308.87 64.5095 307.442 57.7301L317.27 55.3614C319.857 67.6072 325.026 73.2257 337.317 73.2257C345.37 73.2257 349.688 69.3006 349.799 62.9599C349.903 56.9032 346.775 54.3865 341.052 50.6241C338.515 48.9561 335.962 47.3169 333.584 45.6908C331.189 44.0554 328.84 42.348 326.9 40.3621C322.988 36.3568 320.482 31.0085 320.611 23.5855C320.837 10.4929 332.534 1.18506 348.422 1.18506C355.061 1.18506 360.227 2.8429 366.209 3.15785C368.199 3.26246 371.542 2.80363 373.679 2.26906L375.053 3.35501Z" fill="#f3f3f3"/>
<path fill-rule="evenodd" clip-rule="evenodd" d="M205.827 11.3497C205.827 17.5409 199.136 22.9948 192.169 22.9948C188.605 22.9948 184.503 21.4911 184.503 16.4803C184.503 9.05641 192.036 4.04639 198.262 4.04639C202.37 4.04639 205.827 6.81255 205.827 11.3497Z" fill="#f3f3f3"/>
<path fill-rule="evenodd" clip-rule="evenodd" d="M204.254 25.8552L198.259 62.3678C197.587 66.4622 197.504 66.9077 203.37 66.9077L202.19 74.6047H174.772L175.951 66.9077C180.454 66.9077 181.767 65.8145 182.143 63.3557L185.19 43.4196C185.369 42.2411 185.374 42.1374 184.207 42.1374H177.917L179.096 35.4276L203.566 25.1646L204.254 25.8552Z" fill="#f3f3f3"/>
<path fill-rule="evenodd" clip-rule="evenodd" d="M179.883 2.96063L170.252 62.073C169.533 66.4811 170.021 66.9083 174.379 66.9083L173.2 74.6048H146.47L147.649 66.9083C152.347 66.9083 153.503 65.9954 154.037 62.6643L160.719 20.9213C160.943 19.5288 160.778 19.3429 159.737 19.3429H153.546L154.724 12.533L179.195 2.27002L179.883 2.96063Z" fill="#f3f3f3"/>
<path fill-rule="evenodd" clip-rule="evenodd" d="M533.863 40.2626C533.734 35.8909 531.954 34.6387 529.437 34.6387C526.552 34.6387 522.433 38.2002 520.892 46.0847L533.863 40.2626ZM549.486 42.6298L519.61 56.4466C520.217 61.5764 523.081 65.033 527.767 65.033C532.654 65.033 534.351 62.2511 534.351 60.9865C534.351 60.2378 534.097 59.7522 533.863 59.4072C533.495 58.8653 533.173 58.5438 533.173 57.8279C533.173 57.3157 533.298 56.9833 533.568 56.6436C534.828 55.0606 537.532 53.7814 540.251 53.7814C543.753 53.7814 546.835 56.4159 546.835 60.3931C546.835 69.0853 538.372 76.0846 525.115 76.0846C512.066 76.0846 502.71 68.1265 502.71 53.0915C502.71 39.6085 514.088 25.0654 529.048 25.0654C541.568 25.0654 547.587 31.3828 549.486 42.6298Z" fill="#f3f3f3"/>
<path fill-rule="evenodd" clip-rule="evenodd" d="M432.741 42.5325C432.741 37.0917 430.952 34.6377 427.729 34.6377C423.051 34.6377 418 44.5716 418 58.7157C418 64.1331 419.824 66.5132 423.012 66.5132C427.964 66.5132 432.741 55.0214 432.741 42.5325ZM449.741 46.479C449.741 61.3022 439.118 76.1855 422.226 76.1855C409.401 76.1855 401.293 69.0523 401.293 54.0778C401.293 38.4374 412.675 24.8682 428.515 24.8682C440.863 24.8682 449.741 32.6751 449.741 46.479Z" fill="#f3f3f3"/>
<path fill-rule="evenodd" clip-rule="evenodd" d="M287.097 82.2047C287.097 81.086 286.06 80.3284 283.657 80.3284C280.915 80.3284 276.864 80.7244 274.028 80.7244C269.283 80.7244 265.251 80.0178 261.546 78.1582C259.619 79.6786 258.501 81.4002 258.501 83.8825C258.501 87.0838 262.66 89.7042 267.246 89.7042C279.411 89.7042 287.097 85.2513 287.097 82.2047ZM288.571 39.0775C288.571 35.6244 287.521 33.947 285.328 33.947C280.301 33.947 278.156 43.2698 278.156 48.8479C278.156 52.7282 278.95 54.3748 281.594 54.3748C286.017 54.3748 288.571 44.2081 288.571 39.0775ZM319.134 30.9864C319.134 34.1442 316.363 37.9935 313.73 37.9935C312.842 37.9935 312.521 37.3561 312.059 36.7104C311.841 36.4057 311.51 36.0515 310.879 35.8216C310.477 35.6749 310.075 35.6244 309.7 35.6244C306.851 35.6244 304.886 38.8635 304.886 41.7427C304.886 42.381 304.982 43.0361 304.982 43.7155C304.982 46.8219 304.033 49.7768 302.428 52.4979C298.795 58.6641 290.996 63.5526 282.479 63.5526C279.162 63.5526 276.038 63.2405 273.536 62.2697C273.143 62.6637 272.75 63.5052 272.75 64.2425C272.75 66.2589 274.323 66.7102 276.78 66.7102C281.868 66.7102 287.707 65.9197 292.404 65.9197C300.464 65.9197 306.26 69.9224 306.26 77.3678C306.26 90.6213 284.865 98.6851 266.067 98.6851C254.889 98.6851 244.153 95.4629 244.153 85.9542C244.153 81.2449 246.849 77.5903 252.996 74.6041H230.787L232.065 66.9076C236.518 66.8086 236.948 66.4804 237.371 63.6505L240.319 43.9127C240.68 41.4979 239.066 39.769 236.978 39.769C233.116 39.769 229.181 44.1258 228.625 47.663L226.069 63.947C225.751 65.9854 226.185 66.9076 230.393 66.9076L229.215 74.6041H203.761L205.039 66.9076C209.451 66.9076 209.585 66.261 209.953 63.947L213.196 43.6165C213.415 42.2483 213.186 42.1372 212.214 42.1372H205.924L207.201 35.3291L231.475 25.1643L232.261 25.8539L231.279 31.776C236.157 27.5128 241.195 25.1643 245.627 25.1643C253.882 25.1643 257.223 30.8873 257.223 39.1765C257.223 39.899 257.04 41.7278 256.928 42.4324L253.587 63.4536C253.18 66.0151 254.952 66.7451 257.419 66.9076C258.64 62.2312 262.098 59.777 266.165 58.1243C263.797 55.5716 261.546 52.0805 261.546 46.0846C261.546 32.7862 273.49 24.6709 285.623 24.6709C291.171 24.6709 298.006 26.5456 301.838 32.3685C304.589 27.5334 308.423 24.6709 312.549 24.6709C316.214 24.6709 319.134 27.0389 319.134 30.9864Z" fill="#f3f3f3"/>
<mask id="mask0_32_872" style="mask-type:alpha" maskUnits="userSpaceOnUse" x="0" y="0" width="152" height="99">
<path d="M0 0H151.677V98.5868H0V0Z" fill="#f3f3f3"/>
</mask>
<g mask="url(#mask0_32_872)">
<path fill-rule="evenodd" clip-rule="evenodd" d="M107.849 42.5334C107.849 37.0927 106.06 34.6387 102.836 34.6387C98.1605 34.6387 93.1072 44.5726 93.1072 58.7166C93.1072 64.1339 94.9311 66.5141 98.1206 66.5141C103.071 66.5141 107.849 55.0223 107.849 42.5334ZM124.849 46.48C124.849 61.3036 114.229 76.1864 97.3329 76.1864C84.5101 76.1864 76.3016 68.6572 76.3016 53.6842C76.3016 38.402 87.7821 24.8691 103.623 24.8691C115.973 24.8691 124.849 32.6761 124.849 46.48Z" fill="#f3f3f3"/>
<path fill-rule="evenodd" clip-rule="evenodd" d="M64.3111 22.2043C64.3111 14.257 58.9346 9.27609 51.8304 9.27609C48.7835 9.27609 45.8353 9.57231 44.4598 9.76948L39.5461 40.165C40.4414 40.2284 42.0086 40.165 42.7893 40.165C54.5014 40.165 64.3111 32.4756 64.3111 22.2043ZM151.675 3.25683L141.848 63.4543C141.447 65.9111 141.425 66.9084 146.074 66.9084L144.895 74.6069H136.836C142.241 76.4817 145.582 79.8769 145.582 84.0802C145.582 92.131 137.708 98.5868 116.986 98.5868C78.7133 98.5868 53.4299 78.6534 44.7548 49.1439L37.9743 49.4401L35.026 67.9942C34.4612 71.5442 34.5301 72.6957 40.8239 73.1245L45.1476 73.421L43.3794 82.5009C37.1479 82.1137 30.2045 81.7896 23.3309 81.8094C17.0491 81.8277 10.4734 82.1439 4.26607 82.5009L5.7402 73.421C7.35482 73.3236 8.48834 73.3199 9.57345 73.2235C10.6343 73.1323 11.5222 72.9255 12.423 72.6321C14.1633 72.0642 15.5871 70.9325 15.9603 68.6857L25.395 11.9404C22.1983 12.5488 19.4622 13.3684 17.6317 14.1132C15.5648 14.9524 13.2094 17.0224 13.2094 18.5541C13.2094 19.2194 13.3313 19.7044 13.6021 20.1315C13.9697 20.711 14.3885 21.1829 14.3885 21.9081C14.3885 22.4379 14.1782 22.7389 13.8971 23.0921C12.5673 24.7593 9.49338 26.0527 6.62519 26.0527C3.34289 26.0527 -0.0576172 23.4445 -0.0576172 19.2438C-0.0576172 8.65557 13.108 4.43431 21.5627 2.76338C30.0453 1.08595 41.975 0 50.2576 0C69.7364 0 83.8672 6.08657 83.8672 21.5146C83.8672 34.198 74.2806 42.3798 64.0159 45.888C71.8202 70.3536 90.9119 88.7181 115.413 88.7181C124.705 88.7181 127.991 84.7221 127.991 80.8215C127.991 76.7625 124.831 74.6069 121.898 74.6069H118.067L119.54 66.9084C122.255 66.9084 125.278 66.6671 125.732 63.8488L132.708 20.4277C132.836 19.6418 132.53 19.3428 131.726 19.3428H125.24L126.517 12.4358L150.889 2.46717L151.675 3.25683Z" fill="#f3f3f3"/>
</g>
</svg>
