<svg viewBox="0 0 220 31" fill="none" xmlns="http://www.w3.org/2000/svg">
<path fill-rule="evenodd" clip-rule="evenodd" d="M56.3633 28.675H57.8427V0.0926265H56.3633V28.675ZM64.0057 28.675V13.9429H69.5762V12.4937H64.0057V5.48625C64.0057 2.88188 65.0546 1.50705 67.0416 1.50705C67.767 1.50705 68.4509 1.64375 68.9683 1.89511L69.5762 2.19054V0.58041L69.325 0.468361C68.6011 0.134831 67.94 0 67.0416 0C65.7275 0 64.6635 0.40412 63.8797 1.19966C62.9905 2.1024 62.5204 3.54296 62.5204 5.36151V28.675H64.0057V28.675ZM123.963 28.675V20.3072C123.963 17.5079 126.103 13.6056 129.589 13.6056H130.166V12.13L129.682 12.1262C127.241 12.2028 125.224 13.4245 123.963 15.5807V12.4937H122.479V28.675H123.963ZM184.072 28.675V19.5733C184.072 14.9797 181.486 12.1262 177.322 12.1262C174.17 12.1262 172.433 14.0411 171.696 15.1444V12.4937H170.211V28.675H171.696V19.7563C171.696 16.306 174.14 13.6056 177.263 13.6056C180.598 13.6056 182.59 15.8582 182.59 19.6357V28.675H184.072V28.675ZM51.1454 20.5523V20.615C51.1454 24.5759 48.259 27.5642 44.4316 27.5642C40.635 27.5642 37.66 24.5094 37.66 20.615V20.5523C37.66 16.5936 40.5454 13.6056 44.3732 13.6056C48.1712 13.6056 51.1454 16.6575 51.1454 20.5523ZM52.659 20.5866V20.5201C52.659 15.7357 49.11 12.1262 44.4036 12.1262C39.6962 12.1262 36.1461 15.7614 36.1461 20.5866V20.6467C36.1461 25.4301 39.6962 29.0392 44.4036 29.0392C49.11 29.0392 52.659 25.4036 52.659 20.5866ZM117.515 20.5523V20.615C117.515 24.5759 114.628 27.5642 110.803 27.5642C107.003 27.5642 104.027 24.5094 104.027 20.615V20.5523C104.027 16.5936 106.913 13.6056 110.74 13.6056C114.537 13.6056 117.515 16.6575 117.515 20.5523ZM119.027 20.5866V20.5201C119.027 15.7357 115.477 12.1262 110.77 12.1262C106.064 12.1262 102.514 15.7614 102.514 20.5866V20.6467C102.514 25.4301 106.064 29.0392 110.77 29.0392C115.477 29.0392 119.027 25.4036 119.027 20.5866ZM145.377 20.5523V20.615C145.377 24.5094 142.51 27.5642 138.846 27.5642C135.095 27.5642 132.376 24.6278 132.376 20.5866V20.5201C132.376 16.5133 135.095 13.6056 138.846 13.6056C142.51 13.6056 145.377 16.6575 145.377 20.5523ZM142.869 27.9318C143.874 27.3245 144.724 26.4843 145.349 25.4798V28.675H146.831V0.0926265H145.349V15.6894C144.724 14.6841 143.874 13.8427 142.869 13.2333C141.668 12.5102 140.266 12.1262 138.816 12.1262C134.28 12.1262 130.862 15.7473 130.862 20.5523V20.615C130.862 25.4159 134.28 29.0392 138.816 29.0392C140.272 29.0392 141.673 28.6552 142.869 27.9318ZM165.427 20.5523V20.615C165.427 24.5759 162.542 27.5642 158.714 27.5642C154.916 27.5642 151.941 24.5094 151.941 20.615V20.5523C151.941 16.5936 154.827 13.6056 158.655 13.6056C162.453 13.6056 165.427 16.6575 165.427 20.5523ZM166.937 20.5866V20.5201C166.937 15.7357 163.39 12.1262 158.683 12.1262C153.977 12.1262 150.426 15.7614 150.426 20.5866V20.6467C150.426 25.4301 153.977 29.0392 158.683 29.0392C163.39 29.0392 166.937 25.4036 166.937 20.5866ZM92.2641 28.1166C93.7256 27.5246 95.0687 26.6665 96.2274 25.5843C97.3924 24.4911 98.3081 23.231 98.9504 21.8371C99.6233 20.3775 99.9641 18.8346 99.9641 17.245V16.4405H88.5065V18.0484H98.3518C97.8941 23.2377 93.0516 27.4372 87.4983 27.4372C84.4312 27.4372 81.5451 26.2241 79.3734 24.0209C77.2046 21.8102 76.0095 18.8741 76.0095 15.7573C76.0095 12.6405 77.2046 9.70674 79.3734 7.49602C81.5458 5.29353 84.4312 4.07743 87.4983 4.07743C89.3501 4.07769 91.1744 4.53301 92.8159 5.40461C94.4573 6.27621 95.8674 7.53828 96.926 9.08337L97.1632 9.43894L98.4594 8.51865L98.2181 8.16122C97.0115 6.40702 95.4093 4.97225 93.5455 3.97696C91.677 2.9913 89.6032 2.47589 87.4983 2.47402C84.0091 2.47402 80.7268 3.85446 78.2587 6.36023C75.7902 8.87459 74.4305 12.2106 74.4305 15.7573C74.4305 19.304 75.7902 22.6423 78.2587 25.1541C80.7308 27.6643 84.0114 29.047 87.4983 29.047C89.1257 29.047 90.7282 28.7333 92.2641 28.1166V28.1166ZM27.9698 30.2067L38.2289 2.84192H36.6559L27.9995 25.8999L19.1073 1.55149L10.2838 25.8622L1.58077 2.84192H0L10.3213 30.1787L19.1136 5.95051L27.9698 30.2067V30.2067ZM215.499 30.3673V28.7736C215.499 28.7477 215.49 28.7227 215.472 28.704C215.454 28.6853 215.43 28.6744 215.405 28.6735H205.405C205.365 28.674 205.325 28.6663 205.288 28.6511C205.251 28.6359 205.217 28.6133 205.188 28.5847C205.16 28.5561 205.137 28.5221 205.121 28.4845C205.106 28.4469 205.097 28.4066 205.097 28.3657V28.1286C205.097 27.9878 205.174 27.801 205.273 27.705L205.619 27.351C205.716 27.2546 205.898 27.1739 206.036 27.1739H207.607C207.69 27.1739 207.818 27.1216 207.878 27.0593L208.543 26.3844C208.599 26.3239 208.652 26.1935 208.652 26.1091V24.2558C208.652 24.1699 208.599 24.0411 208.543 23.9865L206.318 21.7239C206.308 21.7132 206.296 21.7048 206.282 21.6993C206.268 21.6938 206.254 21.6914 206.239 21.6922C206.211 21.6924 206.185 21.7014 206.162 21.7179L205.558 22.2386C205.494 22.2886 205.441 22.4074 205.441 22.4918L205.437 25.6564C205.437 25.7976 205.364 25.9765 205.267 26.0792L202.883 28.5024C202.787 28.5969 202.605 28.6735 202.469 28.6735H201.481C201.4 28.6739 201.322 28.6417 201.265 28.584C201.208 28.5263 201.175 28.4478 201.174 28.3657V28.1286C201.174 27.9878 201.253 27.801 201.354 27.705L203.198 25.9261C203.259 25.866 203.313 25.7393 203.313 25.6564V19.8953C203.313 19.8131 203.261 19.6805 203.2 19.6196L202.052 18.4543C201.946 18.3378 201.884 18.187 201.878 18.0286V5.91017C201.878 5.82427 201.827 5.69317 201.769 5.63677L200.759 4.61377C200.655 4.49684 200.594 4.34624 200.587 4.18836V2.98608C200.587 2.84565 200.664 2.6589 200.763 2.56628L200.913 2.41128C200.971 2.35484 201.049 2.32317 201.129 2.32276C201.212 2.32276 201.291 2.35525 201.348 2.41576L202.421 3.50674C202.445 3.52877 202.471 3.54296 202.497 3.54296C202.504 3.54302 202.511 3.54159 202.518 3.53877C202.524 3.53595 202.53 3.53178 202.536 3.52653C202.583 3.47872 202.627 3.35584 202.627 3.27554L202.624 1.57166C202.624 1.42675 202.714 1.24598 202.822 1.15559L203.984 0.235301C204.091 0.150518 204.275 0.0844096 204.408 0.0844096H204.907C205.075 0.0844096 205.213 0.225217 205.213 0.395904V2.51399C205.213 2.59877 205.267 2.72875 205.324 2.78925L207.865 5.37196C207.964 5.46795 208.038 5.65134 208.038 5.79775V7.15652C208.038 7.2428 208.093 7.3709 208.15 7.42394L209.804 9.08113C209.905 9.18758 209.978 9.36686 209.978 9.50953V9.69665C209.978 9.73726 209.97 9.77743 209.954 9.81486C209.939 9.85228 209.916 9.88624 209.888 9.91478C209.859 9.94332 209.826 9.9659 209.789 9.98121C209.752 9.99653 209.712 10.0043 209.672 10.004H209.152C209.127 10.0044 209.103 10.015 209.085 10.0335C209.067 10.0519 209.057 10.0768 209.057 10.1026V10.3413C209.057 10.422 209.109 10.5508 209.17 10.611L212.37 13.8723C212.466 13.9631 212.545 14.1517 212.545 14.2944V14.5076C212.545 14.5939 212.597 14.7224 212.658 14.7807L217.697 19.8307C217.798 19.9315 217.871 20.1119 217.871 20.2531V20.4921C217.871 20.5769 217.925 20.7054 217.982 20.7614L218.723 21.5211C218.818 21.6134 218.894 21.8005 218.894 21.9431V22.128C218.894 22.2143 218.942 22.339 219.004 22.3992L219.667 23.0804C219.766 23.1854 219.839 23.3658 219.839 23.5025V26.5651C219.839 26.7078 219.762 26.8931 219.667 26.9913L216.195 30.5462C216.071 30.6691 215.94 30.7315 215.818 30.7315C215.632 30.7315 215.499 30.5824 215.499 30.3673V30.3673Z" fill="#f3f3f3"/>
</svg>
