<svg viewBox="0 0 113 50" fill="none" xmlns="http://www.w3.org/2000/svg">
<path d="M107.403 16.7201V15.4882H108.486C109.002 15.4882 109.324 15.7131 109.324 16.0847C109.324 16.5051 108.944 16.7201 108.437 16.7201H107.403ZM109.734 16.0651C109.734 15.4784 109.217 15.1166 108.505 15.1166H107.013V18.3922H107.403V17.0722H108.369L109.422 18.3922H109.929L108.817 17.0136C109.363 16.9158 109.734 16.6028 109.734 16.0651ZM108.271 19.8394C106.545 19.8394 105.258 18.5095 105.258 16.8572C105.258 15.2046 106.565 13.8553 108.291 13.8553C110.017 13.8553 111.304 15.1851 111.304 16.8375C111.304 18.4801 109.997 19.8394 108.271 19.8394ZM108.281 13.6011C106.428 13.6011 104.975 15.0775 104.975 16.8473C104.975 18.6172 106.418 20.0837 108.261 20.0837C110.114 20.0837 111.567 18.6073 111.567 16.8375C111.577 15.0677 110.134 13.6011 108.281 13.6011Z" fill="#f3f3f3"/>
<path fill-rule="evenodd" clip-rule="evenodd" d="M74.2099 31.3085H70.1141L68.7294 26.5762L65.5309 31.3085H61.3279L66.662 23.936L64.5459 17.4143H68.4857L69.6558 21.8729L72.5813 17.4143H76.8233L71.7231 24.2979L74.2099 31.3085ZM86.3994 31.3085H82.6938L83.8737 25.6473H80.5972L79.3978 31.3085H75.6921L78.6177 17.424H82.3233L81.2603 22.577H84.5565L85.6194 17.424H89.3348L86.3994 31.3085ZM96.5705 17.209C98.1992 17.209 99.4668 17.6782 100.364 18.6266C101.261 19.5751 101.71 20.8854 101.71 22.5574C101.71 24.3273 101.349 25.9405 100.627 27.3974C99.9056 28.8446 98.9305 29.9201 97.6921 30.6143L99.9447 34.6232H95.7806L94.2497 31.5041H94.1326C92.5041 31.5041 91.2363 31.0348 90.3392 30.0863C89.442 29.1379 88.9934 27.8277 88.9934 26.1557C88.9934 24.4738 89.3153 22.9387 89.9687 21.5405C90.6123 20.1423 91.5094 19.0666 92.6407 18.3235C93.7815 17.5805 95.0884 17.209 96.5705 17.209ZM96.2585 20.3182C95.6052 20.3182 95.0102 20.5823 94.4739 21.1102C93.9376 21.6382 93.5086 22.3521 93.2063 23.2613C92.9039 24.1707 92.7479 25.1485 92.7479 26.1948C92.7479 26.9184 92.8941 27.4659 93.1964 27.8374C93.4988 28.1991 93.918 28.3849 94.4739 28.3849C95.1176 28.3849 95.7026 28.1307 96.2389 27.6126C96.7754 27.1041 97.1947 26.3904 97.5067 25.481C97.8187 24.5716 97.9747 23.5841 97.9747 22.5184C97.9747 21.7948 97.8285 21.2471 97.5262 20.8755C97.2239 20.504 96.8143 20.3182 96.2585 20.3182Z" fill="#f3f3f3"/>
<path fill-rule="evenodd" clip-rule="evenodd" d="M37.7878 23.2712L13.9157 0L2.70122 11.0196L15.2614 23.3592L0 39.3167L10.9024 49.8572L37.7878 23.2712Z" fill="#f3f3f3"/>
<path fill-rule="evenodd" clip-rule="evenodd" d="M28.0967 35.9727L39.0382 46.7283L50.2527 35.7087L39.3113 24.9531L28.0967 35.9727Z" fill="#f3f3f3"/>
<path fill-rule="evenodd" clip-rule="evenodd" d="M28.1825 10.6676L39.397 21.6872L50.2506 11.0196L39.0361 0L28.1825 10.6676Z" fill="#f3f3f3"/>
</svg>
